{"glyphs":{"0":{"ha":833,"x_min":67,"x_max":767,"o":"m 172 147 l 550 846 l 661 839 l 283 140 l 172 147 m 417 -22 q 229 40 308 -22 q 108 218 150 103 q 67 492 67 333 q 108 767 67 651 q 229 945 150 882 q 417 1008 308 1008 q 605 945 526 1008 q 725 767 683 882 q 767 492 767 651 q 725 218 767 333 q 605 40 683 103 q 417 -22 526 -22 m 417 114 q 523 159 479 114 q 591 289 567 204 q 615 492 615 374 q 591 697 615 613 q 523 827 567 782 q 417 872 479 872 q 311 827 356 872 q 242 697 267 782 q 218 492 218 613 q 242 289 218 374 q 311 159 267 204 q 417 114 356 114 z "},"1":{"ha":833,"x_min":78,"x_max":756,"o":"m 379 0 l 379 703 l 126 703 l 126 826 l 251 826 q 339 842 306 826 q 388 893 372 858 q 403 986 403 928 l 525 986 l 525 0 l 379 0 m 78 0 l 78 138 l 756 138 l 756 0 l 78 0 z "},"2":{"ha":833,"x_min":67,"x_max":767,"o":"m 67 0 q 99 196 67 110 q 212 358 131 282 q 438 510 293 433 q 539 571 500 542 q 596 633 578 600 q 614 714 614 667 q 594 797 614 763 q 536 852 575 832 q 439 872 497 872 q 291 822 344 872 q 224 679 238 772 l 72 689 q 182 922 88 835 q 439 1008 276 1008 q 617 972 544 1008 q 728 871 690 936 q 765 719 765 806 q 740 588 765 643 q 657 485 715 532 q 497 383 599 438 q 356 294 413 338 q 272 210 300 250 q 240 138 243 171 l 767 138 l 767 0 l 67 0 z "},"3":{"ha":833,"x_min":67,"x_max":767,"o":"m 408 -22 q 160 56 246 -22 q 67 260 74 133 l 215 269 q 277 149 224 185 q 410 114 331 114 q 511 131 464 114 q 587 183 558 147 q 615 281 615 219 q 590 379 615 340 q 517 437 564 418 q 411 456 471 456 l 335 456 l 335 586 l 411 586 q 497 600 458 586 q 559 646 536 614 q 582 728 582 678 q 538 836 582 800 q 414 872 494 872 q 288 838 331 872 q 236 742 246 803 l 86 751 q 185 938 101 867 q 415 1008 269 1008 q 584 976 513 1008 q 694 883 656 943 q 733 740 733 824 q 676 592 733 649 q 508 515 618 536 l 508 542 q 697 456 628 528 q 767 276 767 385 q 722 115 767 182 q 595 13 676 49 q 408 -22 514 -22 z "},"4":{"ha":833,"x_min":50,"x_max":783,"o":"m 519 0 l 519 208 l 50 208 l 50 335 l 504 986 l 665 986 l 665 343 l 783 343 l 783 208 l 665 208 l 665 0 l 519 0 m 193 343 l 519 343 l 519 792 l 193 343 z "},"5":{"ha":833,"x_min":78,"x_max":756,"o":"m 414 -22 q 242 13 315 -22 q 127 112 169 49 q 78 257 85 175 l 229 267 q 288 152 239 190 q 414 114 336 114 q 553 167 501 114 q 604 319 604 221 q 581 431 604 383 q 517 502 558 478 q 417 526 475 526 q 315 499 363 526 q 247 425 267 472 l 93 428 l 157 986 l 700 986 l 700 849 l 283 849 l 243 508 l 214 529 q 272 599 236 571 q 351 641 307 626 q 439 656 394 656 q 606 613 535 656 q 717 493 678 569 q 756 318 756 417 q 713 142 756 219 q 592 21 669 64 q 414 -22 515 -22 z "},"6":{"ha":833,"x_min":64,"x_max":769,"o":"m 419 -22 q 226 29 306 -22 q 105 180 146 81 q 64 419 64 279 q 85 649 64 542 q 151 836 106 756 q 272 963 197 917 q 457 1008 347 1008 q 610 978 549 1008 q 710 894 672 949 q 768 771 749 840 l 618 758 q 567 841 604 810 q 457 872 531 872 q 328 829 382 872 q 244 699 275 786 q 211 475 214 611 l 175 481 q 227 571 190 529 q 319 638 264 613 q 447 664 375 664 q 617 623 546 664 q 729 506 689 582 q 769 331 769 431 q 725 142 769 221 q 603 21 681 64 q 419 -22 525 -22 m 419 115 q 565 171 511 115 q 618 328 618 226 q 568 477 618 422 q 431 532 518 532 q 320 507 368 532 q 245 436 272 482 q 218 328 218 390 q 242 218 218 267 q 313 142 267 169 q 419 115 358 115 z "},"7":{"ha":833,"x_min":81,"x_max":753,"o":"m 256 0 q 297 299 256 151 q 415 586 338 447 q 600 849 493 725 l 81 849 l 81 986 l 753 986 l 753 858 q 597 655 663 756 q 490 451 532 554 q 429 237 449 349 q 410 0 410 125 l 256 0 z "},"8":{"ha":833,"x_min":64,"x_max":769,"o":"m 417 -22 q 235 11 315 -22 q 110 110 156 44 q 64 271 64 175 q 128 449 64 378 q 301 543 193 519 l 304 515 q 163 592 217 538 q 108 738 108 646 q 148 876 108 815 q 257 973 188 938 q 417 1008 326 1008 q 577 973 507 1008 q 686 876 647 938 q 725 738 725 815 q 672 592 725 646 q 529 515 618 538 l 532 543 q 705 448 640 518 q 769 271 769 378 q 724 110 769 175 q 599 11 678 44 q 417 -22 519 -22 m 417 114 q 561 155 504 114 q 618 282 618 196 q 567 410 618 363 q 417 458 517 458 q 267 410 318 458 q 215 282 215 363 q 272 155 215 196 q 417 114 329 114 m 417 589 q 531 625 488 589 q 574 733 574 661 q 531 835 574 797 q 417 872 489 872 q 302 835 344 872 q 260 733 260 797 q 303 625 260 661 q 417 589 346 589 z "},"9":{"ha":833,"x_min":64,"x_max":769,"o":"m 414 1008 q 608 957 528 1008 q 728 807 688 906 q 769 567 769 708 q 749 338 769 444 q 682 150 728 231 q 561 24 636 69 q 376 -22 486 -22 q 223 8 285 -22 q 123 92 161 38 q 65 215 85 146 l 215 228 q 267 145 231 176 q 376 114 304 114 q 506 157 451 114 q 590 288 560 200 q 622 511 619 375 l 658 506 q 607 415 644 457 q 514 348 569 374 q 386 322 458 322 q 217 363 289 322 q 104 480 144 404 q 64 656 64 556 q 108 844 64 765 q 231 965 153 922 q 414 1008 310 1008 m 414 871 q 269 815 322 871 q 215 658 215 760 q 266 510 215 565 q 403 454 317 454 q 513 479 465 454 q 588 550 561 504 q 615 658 615 596 q 591 768 615 719 q 522 844 567 817 q 414 871 476 871 z "},"A":{"ha":833,"x_min":33,"x_max":800,"o":"m 33 0 l 322 986 l 511 986 l 800 0 l 649 0 l 417 835 l 185 0 l 33 0 m 194 257 l 239 392 l 594 392 l 639 257 l 194 257 z "},"Á":{"ha":833,"x_min":33,"x_max":800,"o":"m 33 0 l 322 986 l 511 986 l 800 0 l 649 0 l 417 835 l 185 0 l 33 0 m 194 257 l 239 392 l 594 392 l 639 257 l 194 257 m 354 1078 l 444 1264 l 599 1264 l 474 1078 l 354 1078 z "},"Ă":{"ha":833,"x_min":33,"x_max":800,"o":"m 33 0 l 322 986 l 511 986 l 800 0 l 649 0 l 417 835 l 185 0 l 33 0 m 194 257 l 239 392 l 594 392 l 639 257 l 194 257 m 417 1079 q 275 1131 329 1079 q 217 1267 221 1182 l 308 1267 q 344 1197 315 1218 q 417 1175 372 1175 q 491 1197 463 1175 q 525 1267 519 1218 l 617 1267 q 558 1131 613 1182 q 417 1079 504 1079 z "},"Ǎ":{"ha":833,"x_min":33,"x_max":800,"o":"m 33 0 l 322 986 l 511 986 l 800 0 l 649 0 l 417 835 l 185 0 l 33 0 m 194 257 l 239 392 l 594 392 l 639 257 l 194 257 m 214 1268 l 325 1268 l 429 1128 l 404 1128 l 508 1268 l 619 1268 l 489 1075 l 344 1075 l 214 1268 z "},"Â":{"ha":833,"x_min":33,"x_max":800,"o":"m 33 0 l 322 986 l 511 986 l 800 0 l 649 0 l 417 835 l 185 0 l 33 0 m 194 257 l 239 392 l 594 392 l 639 257 l 194 257 m 213 1075 l 343 1268 l 488 1268 l 618 1075 l 507 1075 l 403 1215 l 428 1215 l 324 1075 l 213 1075 z "},"Ä":{"ha":833,"x_min":33,"x_max":800,"o":"m 33 0 l 322 986 l 511 986 l 800 0 l 649 0 l 417 835 l 185 0 l 33 0 m 194 257 l 239 392 l 594 392 l 639 257 l 194 257 m 208 1092 l 208 1238 l 353 1238 l 353 1092 l 208 1092 m 481 1092 l 481 1238 l 625 1238 l 625 1092 l 481 1092 z "},"À":{"ha":833,"x_min":33,"x_max":800,"o":"m 33 0 l 322 986 l 511 986 l 800 0 l 649 0 l 417 835 l 185 0 l 33 0 m 194 257 l 239 392 l 594 392 l 639 257 l 194 257 m 364 1078 l 239 1264 l 393 1264 l 483 1078 l 364 1078 z "},"Ā":{"ha":833,"x_min":33,"x_max":800,"o":"m 33 0 l 322 986 l 511 986 l 800 0 l 649 0 l 417 835 l 185 0 l 33 0 m 194 257 l 239 392 l 594 392 l 639 257 l 194 257 m 225 1108 l 225 1221 l 606 1221 l 606 1108 l 225 1108 z "},"Ą":{"ha":833,"x_min":33,"x_max":849,"o":"m 33 0 l 322 986 l 511 986 l 800 0 l 649 0 l 417 835 l 185 0 l 33 0 m 194 257 l 239 392 l 594 392 l 639 257 l 194 257 m 718 -294 q 622 -263 657 -294 q 588 -181 588 -232 q 601 -110 588 -143 q 644 -40 615 -76 l 690 17 l 800 0 l 753 -61 q 719 -115 728 -94 q 710 -151 710 -135 q 721 -181 710 -171 q 750 -190 732 -190 q 784 -185 767 -190 q 814 -171 801 -181 l 847 -257 q 796 -284 831 -274 q 718 -294 761 -294 z "},"Å":{"ha":833,"x_min":33,"x_max":800,"o":"m 33 0 l 322 986 l 511 986 l 800 0 l 649 0 l 417 835 l 185 0 l 33 0 m 194 257 l 239 392 l 594 392 l 639 257 l 194 257 m 417 1047 q 322 1085 360 1047 q 283 1179 283 1122 q 322 1273 283 1235 q 417 1311 360 1311 q 512 1273 474 1311 q 550 1179 550 1235 q 512 1085 550 1122 q 417 1047 474 1047 m 417 1121 q 458 1138 442 1121 q 474 1179 474 1154 q 458 1220 474 1204 q 417 1236 442 1236 q 376 1220 392 1236 q 360 1179 360 1204 q 376 1138 360 1154 q 417 1121 392 1121 z "},"Ã":{"ha":833,"x_min":33,"x_max":800,"o":"m 33 0 l 322 986 l 511 986 l 800 0 l 649 0 l 417 835 l 185 0 l 33 0 m 194 257 l 239 392 l 594 392 l 639 257 l 194 257 m 500 1090 q 449 1102 472 1090 q 401 1132 425 1114 q 365 1158 379 1150 q 332 1165 351 1165 q 292 1147 308 1165 q 274 1081 276 1129 l 194 1081 q 234 1210 197 1168 q 329 1253 271 1253 q 388 1241 364 1253 q 438 1210 413 1229 q 474 1185 458 1192 q 504 1178 489 1178 q 542 1197 529 1178 q 560 1267 556 1217 l 639 1267 q 599 1135 636 1181 q 500 1090 563 1090 z "},"Æ":{"ha":833,"x_min":13,"x_max":808,"o":"m 13 0 l 303 986 l 799 986 l 799 849 l 575 849 l 575 561 l 783 561 l 783 428 l 575 428 l 575 138 l 808 138 l 808 0 l 433 0 l 433 853 l 410 853 l 164 0 l 13 0 m 214 257 l 251 392 l 464 392 l 464 257 l 214 257 z "},"B":{"ha":833,"x_min":115,"x_max":775,"o":"m 115 0 l 115 986 l 401 986 q 649 915 564 986 q 733 718 733 844 q 706 609 733 657 q 624 533 678 561 q 497 503 571 504 l 497 511 q 649 481 588 511 q 743 398 711 451 q 775 274 775 344 q 685 72 775 143 q 435 0 596 0 l 115 0 m 261 136 l 436 136 q 578 174 532 136 q 624 281 624 213 q 576 393 624 353 q 436 433 528 433 l 261 433 l 261 136 m 261 568 l 404 568 q 539 605 496 568 q 582 708 582 642 q 539 813 582 776 q 404 850 496 850 l 261 850 l 261 568 z "},"C":{"ha":833,"x_min":50,"x_max":775,"o":"m 421 -22 q 219 40 301 -22 q 93 218 136 103 q 50 492 50 333 q 93 767 50 651 q 219 945 136 882 q 421 1008 301 1008 q 648 919 556 1008 q 769 671 740 831 l 617 663 q 544 819 596 765 q 421 872 492 872 q 300 828 349 872 q 226 699 251 783 q 201 492 201 614 q 226 287 201 371 q 300 158 251 203 q 421 114 349 114 q 551 172 497 114 q 624 343 606 231 l 775 336 q 657 72 750 167 q 421 -22 564 -22 z "},"Ć":{"ha":833,"x_min":50,"x_max":775,"o":"m 421 -22 q 219 40 301 -22 q 93 218 136 103 q 50 492 50 333 q 93 767 50 651 q 219 945 136 882 q 421 1008 301 1008 q 648 919 556 1008 q 769 671 740 831 l 617 663 q 544 819 596 765 q 421 872 492 872 q 300 828 349 872 q 226 699 251 783 q 201 492 201 614 q 226 287 201 371 q 300 158 251 203 q 421 114 349 114 q 551 172 497 114 q 624 343 606 231 l 775 336 q 657 72 750 167 q 421 -22 564 -22 m 357 1078 l 447 1264 l 601 1264 l 476 1078 l 357 1078 z "},"Č":{"ha":833,"x_min":50,"x_max":775,"o":"m 421 -22 q 219 40 301 -22 q 93 218 136 103 q 50 492 50 333 q 93 767 50 651 q 219 945 136 882 q 421 1008 301 1008 q 648 919 556 1008 q 769 671 740 831 l 617 663 q 544 819 596 765 q 421 872 492 872 q 300 828 349 872 q 226 699 251 783 q 201 492 201 614 q 226 287 201 371 q 300 158 251 203 q 421 114 349 114 q 551 172 497 114 q 624 343 606 231 l 775 336 q 657 72 750 167 q 421 -22 564 -22 m 218 1268 l 329 1268 l 433 1128 l 408 1128 l 513 1268 l 624 1268 l 493 1075 l 349 1075 l 218 1268 z "},"Ç":{"ha":833,"x_min":50,"x_max":775,"o":"m 421 -22 q 219 40 301 -22 q 93 218 136 103 q 50 492 50 333 q 93 767 50 651 q 219 945 136 882 q 421 1008 301 1008 q 648 919 556 1008 q 769 671 740 831 l 617 663 q 544 819 596 765 q 421 872 492 872 q 300 828 349 872 q 226 699 251 783 q 201 492 201 614 q 226 287 201 371 q 300 158 251 203 q 421 114 349 114 q 551 172 497 114 q 624 343 606 231 l 775 336 q 657 72 750 167 q 421 -22 564 -22 m 425 -311 q 315 -280 357 -311 q 257 -200 274 -249 l 335 -169 q 367 -212 347 -199 q 422 -225 388 -225 q 476 -211 457 -225 q 494 -172 494 -197 q 476 -129 494 -146 q 393 -112 457 -112 l 349 -67 l 399 14 l 499 14 l 454 -47 q 555 -87 522 -51 q 588 -175 588 -122 q 566 -248 588 -218 q 508 -294 544 -278 q 425 -311 472 -311 z "},"Ĉ":{"ha":833,"x_min":50,"x_max":775,"o":"m 421 -22 q 219 40 301 -22 q 93 218 136 103 q 50 492 50 333 q 93 767 50 651 q 219 945 136 882 q 421 1008 301 1008 q 648 919 556 1008 q 769 671 740 831 l 617 663 q 544 819 596 765 q 421 872 492 872 q 300 828 349 872 q 226 699 251 783 q 201 492 201 614 q 226 287 201 371 q 300 158 251 203 q 421 114 349 114 q 551 172 497 114 q 624 343 606 231 l 775 336 q 657 72 750 167 q 421 -22 564 -22 m 217 1075 l 347 1268 l 492 1268 l 622 1075 l 511 1075 l 407 1215 l 432 1215 l 328 1075 l 217 1075 z "},"Ċ":{"ha":833,"x_min":50,"x_max":775,"o":"m 421 -22 q 219 40 301 -22 q 93 218 136 103 q 50 492 50 333 q 93 767 50 651 q 219 945 136 882 q 421 1008 301 1008 q 648 919 556 1008 q 769 671 740 831 l 617 663 q 544 819 596 765 q 421 872 492 872 q 300 828 349 872 q 226 699 251 783 q 201 492 201 614 q 226 287 201 371 q 300 158 251 203 q 421 114 349 114 q 551 172 497 114 q 624 343 606 231 l 775 336 q 657 72 750 167 q 421 -22 564 -22 m 347 1093 l 347 1239 l 492 1239 l 492 1093 l 347 1093 z "},"D":{"ha":833,"x_min":115,"x_max":783,"o":"m 115 0 l 115 986 l 356 986 q 583 928 486 986 q 731 760 679 871 q 783 492 783 650 q 731 224 783 333 q 583 57 679 114 q 356 0 486 0 l 115 0 m 261 138 l 351 138 q 559 226 486 138 q 632 492 632 314 q 559 759 632 669 q 351 849 486 849 l 261 849 l 261 138 z "},"Ď":{"ha":833,"x_min":115,"x_max":783,"o":"m 115 0 l 115 986 l 356 986 q 583 928 486 986 q 731 760 679 871 q 783 492 783 650 q 731 224 783 333 q 583 57 679 114 q 356 0 486 0 l 115 0 m 261 138 l 351 138 q 559 226 486 138 q 632 492 632 314 q 559 759 632 669 q 351 849 486 849 l 261 849 l 261 138 m 214 1268 l 325 1268 l 429 1128 l 404 1128 l 508 1268 l 619 1268 l 489 1075 l 344 1075 l 214 1268 z "},"Đ":{"ha":833,"x_min":22,"x_max":783,"o":"m 115 0 l 115 986 l 356 986 q 583 928 486 986 q 731 760 679 871 q 783 492 783 650 q 731 224 783 333 q 583 57 679 114 q 356 0 486 0 l 115 0 m 261 138 l 351 138 q 559 226 486 138 q 632 492 632 314 q 559 759 632 669 q 351 849 486 849 l 261 849 l 261 138 m 22 431 l 22 556 l 478 556 l 478 431 l 22 431 z "},"Ð":{"ha":833,"x_min":22,"x_max":783,"o":"m 115 0 l 115 986 l 356 986 q 583 928 486 986 q 731 760 679 871 q 783 492 783 650 q 731 224 783 333 q 583 57 679 114 q 356 0 486 0 l 115 0 m 261 138 l 351 138 q 559 226 486 138 q 632 492 632 314 q 559 759 632 669 q 351 849 486 849 l 261 849 l 261 138 m 22 431 l 22 556 l 478 556 l 478 431 l 22 431 z "},"E":{"ha":833,"x_min":122,"x_max":739,"o":"m 122 0 l 122 986 l 728 986 l 728 849 l 268 849 l 268 561 l 711 561 l 711 428 l 268 428 l 268 138 l 739 138 l 739 0 l 122 0 z "},"É":{"ha":833,"x_min":122,"x_max":739,"o":"m 122 0 l 122 986 l 728 986 l 728 849 l 268 849 l 268 561 l 711 561 l 711 428 l 268 428 l 268 138 l 739 138 l 739 0 l 122 0 m 376 1079 l 467 1265 l 621 1265 l 496 1079 l 376 1079 z "},"Ě":{"ha":833,"x_min":122,"x_max":739,"o":"m 122 0 l 122 986 l 728 986 l 728 849 l 268 849 l 268 561 l 711 561 l 711 428 l 268 428 l 268 138 l 739 138 l 739 0 l 122 0 m 236 1269 l 347 1269 l 451 1129 l 426 1129 l 531 1269 l 642 1269 l 511 1076 l 367 1076 l 236 1269 z "},"Ê":{"ha":833,"x_min":122,"x_max":739,"o":"m 122 0 l 122 986 l 728 986 l 728 849 l 268 849 l 268 561 l 711 561 l 711 428 l 268 428 l 268 138 l 739 138 l 739 0 l 122 0 m 235 1076 l 365 1269 l 510 1269 l 640 1076 l 529 1076 l 425 1217 l 450 1217 l 346 1076 l 235 1076 z "},"Ë":{"ha":833,"x_min":122,"x_max":739,"o":"m 122 0 l 122 986 l 728 986 l 728 849 l 268 849 l 268 561 l 711 561 l 711 428 l 268 428 l 268 138 l 739 138 l 739 0 l 122 0 m 231 1093 l 231 1239 l 375 1239 l 375 1093 l 231 1093 m 503 1093 l 503 1239 l 647 1239 l 647 1093 l 503 1093 z "},"Ė":{"ha":833,"x_min":122,"x_max":739,"o":"m 122 0 l 122 986 l 728 986 l 728 849 l 268 849 l 268 561 l 711 561 l 711 428 l 268 428 l 268 138 l 739 138 l 739 0 l 122 0 m 365 1094 l 365 1240 l 510 1240 l 510 1094 l 365 1094 z "},"È":{"ha":833,"x_min":122,"x_max":739,"o":"m 122 0 l 122 986 l 728 986 l 728 849 l 268 849 l 268 561 l 711 561 l 711 428 l 268 428 l 268 138 l 739 138 l 739 0 l 122 0 m 386 1079 l 261 1265 l 415 1265 l 506 1079 l 386 1079 z "},"Ē":{"ha":833,"x_min":122,"x_max":739,"o":"m 122 0 l 122 986 l 728 986 l 728 849 l 268 849 l 268 561 l 711 561 l 711 428 l 268 428 l 268 138 l 739 138 l 739 0 l 122 0 m 247 1110 l 247 1222 l 628 1222 l 628 1110 l 247 1110 z "},"Ę":{"ha":833,"x_min":122,"x_max":792,"o":"m 122 0 l 122 986 l 728 986 l 728 849 l 268 849 l 268 561 l 711 561 l 711 428 l 268 428 l 268 138 l 739 138 l 739 0 l 122 0 m 661 -294 q 565 -263 600 -294 q 531 -181 531 -232 q 544 -110 531 -143 q 588 -40 558 -76 l 633 17 l 743 0 l 696 -61 q 662 -115 671 -94 q 653 -151 653 -135 q 664 -181 653 -171 q 693 -190 675 -190 q 727 -185 710 -190 q 757 -171 744 -181 l 790 -257 q 739 -284 774 -274 q 661 -294 704 -294 z "},"Ẽ":{"ha":833,"x_min":122,"x_max":739,"o":"m 122 0 l 122 986 l 728 986 l 728 849 l 268 849 l 268 561 l 711 561 l 711 428 l 268 428 l 268 138 l 739 138 l 739 0 l 122 0 m 522 1092 q 471 1103 494 1092 q 424 1133 447 1115 q 388 1159 401 1151 q 354 1167 374 1167 q 315 1149 331 1167 q 296 1082 299 1131 l 217 1082 q 256 1212 219 1169 q 351 1254 293 1254 q 410 1242 386 1254 q 460 1211 435 1231 q 496 1186 481 1193 q 526 1179 511 1179 q 565 1199 551 1179 q 582 1268 578 1218 l 661 1268 q 622 1137 658 1182 q 522 1092 585 1092 z "},"Ə":{"ha":833,"x_min":50,"x_max":794,"o":"m 426 -22 q 223 40 307 -22 q 94 213 139 101 q 50 475 50 325 l 50 549 l 643 549 q 617 716 643 643 q 540 831 590 789 q 418 872 490 872 q 292 819 342 872 q 222 678 243 765 l 67 693 q 143 862 94 792 q 260 970 192 932 q 413 1008 328 1008 q 619 948 533 1008 q 749 772 704 888 q 794 493 794 657 q 748 219 794 335 q 618 40 701 103 q 426 -22 535 -22 m 426 114 q 541 150 493 114 q 615 254 589 186 q 642 415 642 322 l 206 415 q 233 253 206 321 q 309 149 260 185 q 426 114 358 114 z "},"F":{"ha":833,"x_min":136,"x_max":753,"o":"m 136 0 l 136 986 l 753 986 l 753 851 l 199 851 l 282 931 l 282 478 l 199 549 l 728 549 l 728 415 l 199 415 l 282 486 l 282 0 l 136 0 z "},"G":{"ha":833,"x_min":50,"x_max":772,"o":"m 415 -22 q 226 36 308 -22 q 97 209 144 94 q 50 492 50 324 q 94 767 50 651 q 222 945 139 882 q 419 1008 304 1008 q 583 968 513 1008 q 702 854 654 928 q 771 682 750 781 l 619 672 q 549 817 599 763 q 421 871 500 871 q 302 827 351 871 q 227 699 253 783 q 201 492 201 614 q 228 287 201 371 q 305 159 254 203 q 428 115 356 115 q 538 148 492 115 q 609 240 583 181 q 638 376 635 299 l 421 376 l 421 503 l 772 503 l 772 0 l 654 0 l 647 226 l 685 228 q 635 100 669 157 q 547 10 601 43 q 415 -22 493 -22 z "},"Ğ":{"ha":833,"x_min":50,"x_max":772,"o":"m 415 -22 q 226 36 308 -22 q 97 209 144 94 q 50 492 50 324 q 94 767 50 651 q 222 945 139 882 q 419 1008 304 1008 q 583 968 513 1008 q 702 854 654 928 q 771 682 750 781 l 619 672 q 549 817 599 763 q 421 871 500 871 q 302 827 351 871 q 227 699 253 783 q 201 492 201 614 q 228 287 201 371 q 305 159 254 203 q 428 115 356 115 q 538 148 492 115 q 609 240 583 181 q 638 376 635 299 l 421 376 l 421 503 l 772 503 l 772 0 l 654 0 l 647 226 l 685 228 q 635 100 669 157 q 547 10 601 43 q 415 -22 493 -22 m 417 1079 q 275 1131 329 1079 q 217 1267 221 1182 l 308 1267 q 344 1197 315 1218 q 417 1175 372 1175 q 491 1197 463 1175 q 525 1267 519 1218 l 617 1267 q 558 1131 613 1182 q 417 1079 504 1079 z "},"Ǧ":{"ha":833,"x_min":50,"x_max":772,"o":"m 415 -22 q 226 36 308 -22 q 97 209 144 94 q 50 492 50 324 q 94 767 50 651 q 222 945 139 882 q 419 1008 304 1008 q 583 968 513 1008 q 702 854 654 928 q 771 682 750 781 l 619 672 q 549 817 599 763 q 421 871 500 871 q 302 827 351 871 q 227 699 253 783 q 201 492 201 614 q 228 287 201 371 q 305 159 254 203 q 428 115 356 115 q 538 148 492 115 q 609 240 583 181 q 638 376 635 299 l 421 376 l 421 503 l 772 503 l 772 0 l 654 0 l 647 226 l 685 228 q 635 100 669 157 q 547 10 601 43 q 415 -22 493 -22 m 214 1268 l 325 1268 l 429 1128 l 404 1128 l 508 1268 l 619 1268 l 489 1075 l 344 1075 l 214 1268 z "},"Ĝ":{"ha":833,"x_min":50,"x_max":772,"o":"m 415 -22 q 226 36 308 -22 q 97 209 144 94 q 50 492 50 324 q 94 767 50 651 q 222 945 139 882 q 419 1008 304 1008 q 583 968 513 1008 q 702 854 654 928 q 771 682 750 781 l 619 672 q 549 817 599 763 q 421 871 500 871 q 302 827 351 871 q 227 699 253 783 q 201 492 201 614 q 228 287 201 371 q 305 159 254 203 q 428 115 356 115 q 538 148 492 115 q 609 240 583 181 q 638 376 635 299 l 421 376 l 421 503 l 772 503 l 772 0 l 654 0 l 647 226 l 685 228 q 635 100 669 157 q 547 10 601 43 q 415 -22 493 -22 m 214 1075 l 344 1268 l 489 1268 l 619 1075 l 508 1075 l 404 1215 l 429 1215 l 325 1075 l 214 1075 z "},"Ģ":{"ha":833,"x_min":50,"x_max":772,"o":"m 415 -22 q 226 36 308 -22 q 97 209 144 94 q 50 492 50 324 q 94 767 50 651 q 222 945 139 882 q 419 1008 304 1008 q 583 968 513 1008 q 702 854 654 928 q 771 682 750 781 l 619 672 q 549 817 599 763 q 421 871 500 871 q 302 827 351 871 q 227 699 253 783 q 201 492 201 614 q 228 287 201 371 q 305 159 254 203 q 428 115 356 115 q 538 148 492 115 q 609 240 583 181 q 638 376 635 299 l 421 376 l 421 503 l 772 503 l 772 0 l 654 0 l 647 226 l 685 228 q 635 100 669 157 q 547 10 601 43 q 415 -22 493 -22 m 314 -339 l 392 -208 l 340 -208 l 340 -72 l 493 -72 l 493 -200 l 400 -339 l 314 -339 z "},"Ġ":{"ha":833,"x_min":50,"x_max":772,"o":"m 415 -22 q 226 36 308 -22 q 97 209 144 94 q 50 492 50 324 q 94 767 50 651 q 222 945 139 882 q 419 1008 304 1008 q 583 968 513 1008 q 702 854 654 928 q 771 682 750 781 l 619 672 q 549 817 599 763 q 421 871 500 871 q 302 827 351 871 q 227 699 253 783 q 201 492 201 614 q 228 287 201 371 q 305 159 254 203 q 428 115 356 115 q 538 148 492 115 q 609 240 583 181 q 638 376 635 299 l 421 376 l 421 503 l 772 503 l 772 0 l 654 0 l 647 226 l 685 228 q 635 100 669 157 q 547 10 601 43 q 415 -22 493 -22 m 344 1093 l 344 1239 l 489 1239 l 489 1093 l 344 1093 z "},"Ḡ":{"ha":833,"x_min":50,"x_max":772,"o":"m 415 -22 q 226 36 308 -22 q 97 209 144 94 q 50 492 50 324 q 94 767 50 651 q 222 945 139 882 q 419 1008 304 1008 q 583 968 513 1008 q 702 854 654 928 q 771 682 750 781 l 619 672 q 549 817 599 763 q 421 871 500 871 q 302 827 351 871 q 227 699 253 783 q 201 492 201 614 q 228 287 201 371 q 305 159 254 203 q 428 115 356 115 q 538 148 492 115 q 609 240 583 181 q 638 376 635 299 l 421 376 l 421 503 l 772 503 l 772 0 l 654 0 l 647 226 l 685 228 q 635 100 669 157 q 547 10 601 43 q 415 -22 493 -22 m 226 1108 l 226 1221 l 607 1221 l 607 1108 l 226 1108 z "},"Ǥ":{"ha":833,"x_min":26,"x_max":815,"o":"m 415 -22 q 211 40 299 -22 q 75 218 124 103 q 26 492 26 333 q 74 766 26 650 q 208 945 121 882 q 413 1008 294 1008 q 586 967 514 1008 q 703 851 658 925 q 769 682 749 778 l 618 672 q 551 817 599 761 q 414 872 503 872 q 286 826 339 872 q 206 694 233 779 q 178 492 178 608 q 205 292 178 376 q 285 161 232 207 q 415 115 339 115 q 535 144 486 115 q 609 235 583 174 q 635 389 635 296 l 421 389 l 421 503 l 776 503 l 776 433 q 683 91 776 204 q 415 -22 589 -22 m 421 217 l 421 314 l 815 314 l 815 217 l 421 217 z "},"H":{"ha":833,"x_min":78,"x_max":756,"o":"m 78 0 l 78 986 l 224 986 l 224 511 l 158 564 l 675 564 l 610 511 l 610 986 l 756 986 l 756 0 l 610 0 l 610 481 l 675 428 l 158 428 l 224 481 l 224 0 l 78 0 z "},"Ħ":{"ha":833,"x_min":25,"x_max":808,"o":"m 78 0 l 78 986 l 224 986 l 224 511 l 158 564 l 675 564 l 610 511 l 610 986 l 756 986 l 756 0 l 610 0 l 610 481 l 675 428 l 158 428 l 224 481 l 224 0 l 78 0 m 25 731 l 25 856 l 808 856 l 808 731 l 25 731 z "},"Ĥ":{"ha":833,"x_min":78,"x_max":756,"o":"m 78 0 l 78 986 l 224 986 l 224 511 l 158 564 l 675 564 l 610 511 l 610 986 l 756 986 l 756 0 l 610 0 l 610 481 l 675 428 l 158 428 l 224 481 l 224 0 l 78 0 m 213 1075 l 343 1268 l 488 1268 l 618 1075 l 507 1075 l 403 1215 l 428 1215 l 324 1075 l 213 1075 z "},"I":{"ha":833,"x_min":108,"x_max":725,"o":"m 108 0 l 108 138 l 344 138 l 344 849 l 108 849 l 108 986 l 725 986 l 725 849 l 489 849 l 489 138 l 725 138 l 725 0 l 108 0 z "},"Í":{"ha":833,"x_min":108,"x_max":725,"o":"m 108 0 l 108 138 l 344 138 l 344 849 l 108 849 l 108 986 l 725 986 l 725 849 l 489 849 l 489 138 l 725 138 l 725 0 l 108 0 m 354 1078 l 444 1264 l 599 1264 l 474 1078 l 354 1078 z "},"Î":{"ha":833,"x_min":108,"x_max":725,"o":"m 108 0 l 108 138 l 344 138 l 344 849 l 108 849 l 108 986 l 725 986 l 725 849 l 489 849 l 489 138 l 725 138 l 725 0 l 108 0 m 213 1075 l 343 1268 l 488 1268 l 618 1075 l 507 1075 l 403 1215 l 428 1215 l 324 1075 l 213 1075 z "},"Ï":{"ha":833,"x_min":108,"x_max":725,"o":"m 108 0 l 108 138 l 344 138 l 344 849 l 108 849 l 108 986 l 725 986 l 725 849 l 489 849 l 489 138 l 725 138 l 725 0 l 108 0 m 208 1092 l 208 1238 l 353 1238 l 353 1092 l 208 1092 m 481 1092 l 481 1238 l 625 1238 l 625 1092 l 481 1092 z "},"İ":{"ha":833,"x_min":108,"x_max":725,"o":"m 108 0 l 108 138 l 344 138 l 344 849 l 108 849 l 108 986 l 725 986 l 725 849 l 489 849 l 489 138 l 725 138 l 725 0 l 108 0 m 343 1093 l 343 1239 l 488 1239 l 488 1093 l 343 1093 z "},"Ì":{"ha":833,"x_min":108,"x_max":725,"o":"m 108 0 l 108 138 l 344 138 l 344 849 l 108 849 l 108 986 l 725 986 l 725 849 l 489 849 l 489 138 l 725 138 l 725 0 l 108 0 m 364 1078 l 239 1264 l 393 1264 l 483 1078 l 364 1078 z "},"Ī":{"ha":833,"x_min":108,"x_max":725,"o":"m 108 0 l 108 138 l 344 138 l 344 849 l 108 849 l 108 986 l 725 986 l 725 849 l 489 849 l 489 138 l 725 138 l 725 0 l 108 0 m 225 1108 l 225 1221 l 606 1221 l 606 1108 l 225 1108 z "},"Į":{"ha":833,"x_min":108,"x_max":772,"o":"m 108 0 l 108 138 l 344 138 l 344 849 l 108 849 l 108 986 l 725 986 l 725 849 l 489 849 l 489 138 l 725 138 l 725 0 l 108 0 m 643 -294 q 547 -263 582 -294 q 513 -181 513 -232 q 526 -110 513 -143 q 569 -40 540 -76 l 615 17 l 725 0 l 678 -61 q 644 -115 653 -94 q 635 -151 635 -135 q 646 -181 635 -171 q 675 -190 657 -190 q 709 -185 692 -190 q 739 -171 726 -181 l 772 -257 q 721 -284 756 -274 q 643 -294 686 -294 z "},"Ĩ":{"ha":833,"x_min":108,"x_max":725,"o":"m 108 0 l 108 138 l 344 138 l 344 849 l 108 849 l 108 986 l 725 986 l 725 849 l 489 849 l 489 138 l 725 138 l 725 0 l 108 0 m 500 1090 q 449 1102 472 1090 q 401 1132 425 1114 q 365 1158 379 1150 q 332 1165 351 1165 q 292 1147 308 1165 q 274 1081 276 1129 l 194 1081 q 234 1210 197 1168 q 329 1253 271 1253 q 388 1241 364 1253 q 438 1210 413 1229 q 474 1185 458 1192 q 504 1178 489 1178 q 542 1197 529 1178 q 560 1267 556 1217 l 639 1267 q 599 1135 636 1181 q 500 1090 563 1090 z "},"J":{"ha":833,"x_min":53,"x_max":711,"o":"m 382 -22 q 210 20 283 -22 q 97 142 138 63 q 53 329 56 221 l 197 340 q 246 169 200 225 q 383 114 292 114 q 520 169 475 114 q 565 335 565 224 l 565 986 l 711 986 l 711 335 q 624 73 711 168 q 382 -22 536 -22 z "},"Ĵ":{"ha":833,"x_min":53,"x_max":842,"o":"m 382 -22 q 210 20 283 -22 q 97 142 138 63 q 53 329 56 221 l 197 340 q 246 169 200 225 q 383 114 292 114 q 520 169 475 114 q 565 335 565 224 l 565 986 l 711 986 l 711 335 q 624 73 711 168 q 382 -22 536 -22 m 436 1075 l 567 1268 l 711 1268 l 842 1075 l 731 1075 l 626 1215 l 651 1215 l 547 1075 l 436 1075 z "},"K":{"ha":833,"x_min":78,"x_max":781,"o":"m 210 297 l 210 504 l 593 986 l 769 986 l 210 297 m 78 0 l 78 986 l 224 986 l 224 0 l 78 0 m 610 0 l 296 486 l 396 586 l 781 0 l 610 0 z "},"Ǩ":{"ha":833,"x_min":78,"x_max":781,"o":"m 210 297 l 210 504 l 593 986 l 769 986 l 210 297 m 78 0 l 78 986 l 224 986 l 224 0 l 78 0 m 610 0 l 296 486 l 396 586 l 781 0 l 610 0 m 181 1268 l 292 1268 l 396 1128 l 371 1128 l 475 1268 l 586 1268 l 456 1075 l 311 1075 l 181 1268 z "},"Ķ":{"ha":833,"x_min":78,"x_max":781,"o":"m 210 297 l 210 504 l 593 986 l 769 986 l 210 297 m 78 0 l 78 986 l 224 986 l 224 0 l 78 0 m 610 0 l 296 486 l 396 586 l 781 0 l 610 0 m 290 -339 l 368 -208 l 317 -208 l 317 -72 l 469 -72 l 469 -200 l 376 -339 l 290 -339 z "},"L":{"ha":833,"x_min":136,"x_max":753,"o":"m 136 0 l 136 986 l 282 986 l 282 56 l 193 138 l 753 138 l 753 0 l 136 0 z "},"Ĺ":{"ha":833,"x_min":136,"x_max":753,"o":"m 136 0 l 136 986 l 282 986 l 282 56 l 193 138 l 753 138 l 753 0 l 136 0 m 143 1078 l 233 1264 l 388 1264 l 263 1078 l 143 1078 z "},"Ľ":{"ha":833,"x_min":136,"x_max":753,"o":"m 136 0 l 136 986 l 282 986 l 282 56 l 193 138 l 753 138 l 753 0 l 136 0 m 499 618 l 540 986 l 675 986 l 599 618 l 499 618 z "},"Ļ":{"ha":833,"x_min":136,"x_max":753,"o":"m 136 0 l 136 986 l 282 986 l 282 56 l 193 138 l 753 138 l 753 0 l 136 0 m 343 -339 l 421 -208 l 369 -208 l 369 -72 l 522 -72 l 522 -200 l 429 -339 l 343 -339 z "},"Ł":{"ha":833,"x_min":36,"x_max":753,"o":"m 136 0 l 136 986 l 282 986 l 282 56 l 193 138 l 753 138 l 753 0 l 136 0 m 36 356 l 36 472 l 486 701 l 486 583 l 36 356 z "},"M":{"ha":833,"x_min":67,"x_max":767,"o":"m 361 119 l 192 825 l 207 826 l 207 0 l 67 0 l 67 986 l 261 986 l 444 238 l 389 238 l 572 986 l 767 986 l 767 0 l 626 0 l 626 826 l 642 825 l 472 119 l 361 119 z "},"N":{"ha":833,"x_min":94,"x_max":739,"o":"m 94 0 l 94 986 l 272 986 l 596 207 l 596 986 l 739 986 l 739 0 l 561 0 l 238 779 l 238 0 l 94 0 z "},"Ń":{"ha":833,"x_min":94,"x_max":739,"o":"m 94 0 l 94 986 l 272 986 l 596 207 l 596 986 l 739 986 l 739 0 l 561 0 l 238 779 l 238 0 l 94 0 m 354 1078 l 444 1264 l 599 1264 l 474 1078 l 354 1078 z "},"Ň":{"ha":833,"x_min":94,"x_max":739,"o":"m 94 0 l 94 986 l 272 986 l 596 207 l 596 986 l 739 986 l 739 0 l 561 0 l 238 779 l 238 0 l 94 0 m 214 1268 l 325 1268 l 429 1128 l 404 1128 l 508 1268 l 619 1268 l 489 1075 l 344 1075 l 214 1268 z "},"Ņ":{"ha":833,"x_min":94,"x_max":739,"o":"m 94 0 l 94 986 l 272 986 l 596 207 l 596 986 l 739 986 l 739 0 l 561 0 l 238 779 l 238 0 l 94 0 m 314 -339 l 392 -208 l 340 -208 l 340 -72 l 493 -72 l 493 -200 l 400 -339 l 314 -339 z "},"Ñ":{"ha":833,"x_min":94,"x_max":739,"o":"m 94 0 l 94 986 l 272 986 l 596 207 l 596 986 l 739 986 l 739 0 l 561 0 l 238 779 l 238 0 l 94 0 m 500 1090 q 449 1102 472 1090 q 401 1132 425 1114 q 365 1158 379 1150 q 332 1165 351 1165 q 292 1147 308 1165 q 274 1081 276 1129 l 194 1081 q 234 1210 197 1168 q 329 1253 271 1253 q 388 1241 364 1253 q 438 1210 413 1229 q 474 1185 458 1192 q 504 1178 489 1178 q 542 1197 529 1178 q 560 1267 556 1217 l 639 1267 q 599 1135 636 1181 q 500 1090 563 1090 z "},"Ŋ":{"ha":833,"x_min":94,"x_max":739,"o":"m 386 -208 l 386 -79 l 524 -79 q 582 -61 563 -79 q 601 -8 601 -43 l 601 131 l 739 131 l 739 -10 q 683 -154 739 -100 q 531 -208 626 -208 l 386 -208 m 94 0 l 94 986 l 272 986 l 596 207 l 596 986 l 739 986 l 739 0 l 561 0 l 238 779 l 238 0 l 94 0 z "},"O":{"ha":833,"x_min":50,"x_max":783,"o":"m 417 -22 q 217 38 299 -22 q 93 213 136 97 q 50 492 50 328 q 93 774 50 658 q 217 949 136 889 q 417 1008 299 1008 q 617 949 535 1008 q 741 774 699 889 q 783 492 783 658 q 741 213 783 328 q 617 38 699 97 q 417 -22 535 -22 m 417 114 q 534 156 486 114 q 607 282 582 197 q 632 492 632 367 q 607 702 632 617 q 534 830 582 788 q 417 872 486 872 q 299 830 347 872 q 226 702 251 788 q 201 492 201 617 q 226 282 201 367 q 299 156 251 197 q 417 114 347 114 z "},"Ó":{"ha":833,"x_min":50,"x_max":783,"o":"m 417 -22 q 217 38 299 -22 q 93 213 136 97 q 50 492 50 328 q 93 774 50 658 q 217 949 136 889 q 417 1008 299 1008 q 617 949 535 1008 q 741 774 699 889 q 783 492 783 658 q 741 213 783 328 q 617 38 699 97 q 417 -22 535 -22 m 417 114 q 534 156 486 114 q 607 282 582 197 q 632 492 632 367 q 607 702 632 617 q 534 830 582 788 q 417 872 486 872 q 299 830 347 872 q 226 702 251 788 q 201 492 201 617 q 226 282 201 367 q 299 156 251 197 q 417 114 347 114 m 354 1078 l 444 1264 l 599 1264 l 474 1078 l 354 1078 z "},"Ô":{"ha":833,"x_min":50,"x_max":783,"o":"m 417 -22 q 217 38 299 -22 q 93 213 136 97 q 50 492 50 328 q 93 774 50 658 q 217 949 136 889 q 417 1008 299 1008 q 617 949 535 1008 q 741 774 699 889 q 783 492 783 658 q 741 213 783 328 q 617 38 699 97 q 417 -22 535 -22 m 417 114 q 534 156 486 114 q 607 282 582 197 q 632 492 632 367 q 607 702 632 617 q 534 830 582 788 q 417 872 486 872 q 299 830 347 872 q 226 702 251 788 q 201 492 201 617 q 226 282 201 367 q 299 156 251 197 q 417 114 347 114 m 213 1075 l 343 1268 l 488 1268 l 618 1075 l 507 1075 l 403 1215 l 428 1215 l 324 1075 l 213 1075 z "},"Ö":{"ha":833,"x_min":50,"x_max":783,"o":"m 417 -22 q 217 38 299 -22 q 93 213 136 97 q 50 492 50 328 q 93 774 50 658 q 217 949 136 889 q 417 1008 299 1008 q 617 949 535 1008 q 741 774 699 889 q 783 492 783 658 q 741 213 783 328 q 617 38 699 97 q 417 -22 535 -22 m 417 114 q 534 156 486 114 q 607 282 582 197 q 632 492 632 367 q 607 702 632 617 q 534 830 582 788 q 417 872 486 872 q 299 830 347 872 q 226 702 251 788 q 201 492 201 617 q 226 282 201 367 q 299 156 251 197 q 417 114 347 114 m 208 1092 l 208 1238 l 353 1238 l 353 1092 l 208 1092 m 481 1092 l 481 1238 l 625 1238 l 625 1092 l 481 1092 z "},"Ò":{"ha":833,"x_min":50,"x_max":783,"o":"m 417 -22 q 217 38 299 -22 q 93 213 136 97 q 50 492 50 328 q 93 774 50 658 q 217 949 136 889 q 417 1008 299 1008 q 617 949 535 1008 q 741 774 699 889 q 783 492 783 658 q 741 213 783 328 q 617 38 699 97 q 417 -22 535 -22 m 417 114 q 534 156 486 114 q 607 282 582 197 q 632 492 632 367 q 607 702 632 617 q 534 830 582 788 q 417 872 486 872 q 299 830 347 872 q 226 702 251 788 q 201 492 201 617 q 226 282 201 367 q 299 156 251 197 q 417 114 347 114 m 364 1078 l 239 1264 l 393 1264 l 483 1078 l 364 1078 z "},"Ő":{"ha":833,"x_min":50,"x_max":783,"o":"m 417 -22 q 217 38 299 -22 q 93 213 136 97 q 50 492 50 328 q 93 774 50 658 q 217 949 136 889 q 417 1008 299 1008 q 617 949 535 1008 q 741 774 699 889 q 783 492 783 658 q 741 213 783 328 q 617 38 699 97 q 417 -22 535 -22 m 417 114 q 534 156 486 114 q 607 282 582 197 q 632 492 632 367 q 607 702 632 617 q 534 830 582 788 q 417 872 486 872 q 299 830 347 872 q 226 702 251 788 q 201 492 201 617 q 226 282 201 367 q 299 156 251 197 q 417 114 347 114 m 244 1075 l 335 1261 l 489 1261 l 364 1075 l 244 1075 m 456 1075 l 546 1261 l 700 1261 l 575 1075 l 456 1075 z "},"Ō":{"ha":833,"x_min":50,"x_max":783,"o":"m 417 -22 q 217 38 299 -22 q 93 213 136 97 q 50 492 50 328 q 93 774 50 658 q 217 949 136 889 q 417 1008 299 1008 q 617 949 535 1008 q 741 774 699 889 q 783 492 783 658 q 741 213 783 328 q 617 38 699 97 q 417 -22 535 -22 m 417 114 q 534 156 486 114 q 607 282 582 197 q 632 492 632 367 q 607 702 632 617 q 534 830 582 788 q 417 872 486 872 q 299 830 347 872 q 226 702 251 788 q 201 492 201 617 q 226 282 201 367 q 299 156 251 197 q 417 114 347 114 m 225 1108 l 225 1221 l 606 1221 l 606 1108 l 225 1108 z "},"Ø":{"ha":833,"x_min":50,"x_max":783,"o":"m 417 -22 q 217 38 299 -22 q 93 213 136 97 q 50 492 50 328 q 93 774 50 658 q 217 949 136 889 q 417 1008 299 1008 q 617 949 535 1008 q 741 774 699 889 q 783 492 783 658 q 741 213 783 328 q 617 38 699 97 q 417 -22 535 -22 m 417 114 q 534 156 486 114 q 607 282 582 197 q 632 492 632 367 q 607 702 632 617 q 534 830 582 788 q 417 872 486 872 q 299 830 347 872 q 226 702 251 788 q 201 492 201 617 q 226 282 201 367 q 299 156 251 197 q 417 114 347 114 m 50 -22 l 654 1008 l 783 1008 l 179 -22 l 50 -22 z "},"Õ":{"ha":833,"x_min":50,"x_max":783,"o":"m 417 -22 q 217 38 299 -22 q 93 213 136 97 q 50 492 50 328 q 93 774 50 658 q 217 949 136 889 q 417 1008 299 1008 q 617 949 535 1008 q 741 774 699 889 q 783 492 783 658 q 741 213 783 328 q 617 38 699 97 q 417 -22 535 -22 m 417 114 q 534 156 486 114 q 607 282 582 197 q 632 492 632 367 q 607 702 632 617 q 534 830 582 788 q 417 872 486 872 q 299 830 347 872 q 226 702 251 788 q 201 492 201 617 q 226 282 201 367 q 299 156 251 197 q 417 114 347 114 m 500 1090 q 449 1102 472 1090 q 401 1132 425 1114 q 365 1158 379 1150 q 332 1165 351 1165 q 292 1147 308 1165 q 274 1081 276 1129 l 194 1081 q 234 1210 197 1168 q 329 1253 271 1253 q 388 1241 364 1253 q 438 1210 413 1229 q 474 1185 458 1192 q 504 1178 489 1178 q 542 1197 529 1178 q 560 1267 556 1217 l 639 1267 q 599 1135 636 1181 q 500 1090 563 1090 z "},"Œ":{"ha":833,"x_min":14,"x_max":819,"o":"m 294 -22 q 87 108 160 -22 q 14 492 14 239 q 87 876 14 744 q 294 1008 160 1008 q 410 970 360 1008 q 493 862 460 932 q 543 698 526 792 q 560 492 560 604 q 543 286 560 379 q 493 124 526 193 q 410 16 460 54 q 294 -22 360 -22 m 297 114 q 380 156 350 114 q 423 281 410 197 q 436 492 436 365 q 423 704 436 619 q 380 831 410 789 q 297 872 350 872 q 217 831 247 872 q 173 704 186 789 q 160 492 160 619 q 173 281 160 365 q 217 156 186 197 q 297 114 247 114 m 451 0 l 451 986 l 808 986 l 808 849 l 586 849 l 586 561 l 792 561 l 792 428 l 586 428 l 586 138 l 819 138 l 819 0 l 451 0 z "},"P":{"ha":833,"x_min":119,"x_max":767,"o":"m 119 0 l 119 986 l 425 986 q 605 949 528 986 q 724 842 682 911 q 767 679 767 774 q 724 516 767 585 q 605 410 682 447 q 425 374 528 374 l 265 374 l 265 0 l 119 0 m 265 511 l 410 511 q 565 554 515 511 q 615 679 615 597 q 565 806 615 763 q 410 849 515 849 l 265 849 l 265 511 z "},"Þ":{"ha":833,"x_min":119,"x_max":781,"o":"m 157 204 l 157 340 l 428 340 q 578 383 528 340 q 629 511 629 426 q 578 634 629 593 q 428 675 528 675 l 157 675 l 157 811 l 429 811 q 619 775 542 811 q 739 672 697 739 q 781 511 781 606 q 739 347 781 417 q 619 241 697 278 q 429 204 542 204 l 157 204 m 119 0 l 119 986 l 265 986 l 265 0 l 119 0 z "},"Q":{"ha":833,"x_min":50,"x_max":783,"o":"m 581 -96 l 333 297 l 468 297 l 715 -96 l 581 -96 m 417 -22 q 217 38 299 -22 q 93 213 136 97 q 50 492 50 328 q 93 774 50 658 q 217 949 136 889 q 417 1008 299 1008 q 617 949 535 1008 q 741 774 699 889 q 783 492 783 658 q 741 213 783 328 q 617 38 699 97 q 417 -22 535 -22 m 417 114 q 534 156 486 114 q 607 282 582 197 q 632 492 632 367 q 607 702 632 617 q 534 830 582 788 q 417 872 486 872 q 299 830 347 872 q 226 702 251 788 q 201 492 201 617 q 226 282 201 367 q 299 156 251 197 q 417 114 347 114 z "},"R":{"ha":833,"x_min":93,"x_max":747,"o":"m 93 0 l 93 986 l 400 986 q 647 907 557 986 q 736 692 736 828 q 705 567 736 621 q 623 482 674 513 q 515 447 572 451 l 510 464 q 663 417 613 460 q 722 281 714 375 l 747 0 l 601 0 l 579 253 q 558 331 575 301 q 507 372 542 360 q 411 385 472 385 l 239 385 l 239 0 l 93 0 m 239 521 l 397 521 q 538 564 489 521 q 586 685 586 607 q 538 806 586 764 q 397 849 489 849 l 239 849 l 239 521 z "},"Ŕ":{"ha":833,"x_min":93,"x_max":747,"o":"m 93 0 l 93 986 l 400 986 q 647 907 557 986 q 736 692 736 828 q 705 567 736 621 q 623 482 674 513 q 515 447 572 451 l 510 464 q 663 417 613 460 q 722 281 714 375 l 747 0 l 601 0 l 579 253 q 558 331 575 301 q 507 372 542 360 q 411 385 472 385 l 239 385 l 239 0 l 93 0 m 239 521 l 397 521 q 538 564 489 521 q 586 685 586 607 q 538 806 586 764 q 397 849 489 849 l 239 849 l 239 521 m 335 1078 l 425 1264 l 579 1264 l 454 1078 l 335 1078 z "},"Ř":{"ha":833,"x_min":93,"x_max":747,"o":"m 93 0 l 93 986 l 400 986 q 647 907 557 986 q 736 692 736 828 q 705 567 736 621 q 623 482 674 513 q 515 447 572 451 l 510 464 q 663 417 613 460 q 722 281 714 375 l 747 0 l 601 0 l 579 253 q 558 331 575 301 q 507 372 542 360 q 411 385 472 385 l 239 385 l 239 0 l 93 0 m 239 521 l 397 521 q 538 564 489 521 q 586 685 586 607 q 538 806 586 764 q 397 849 489 849 l 239 849 l 239 521 m 196 1268 l 307 1268 l 411 1128 l 386 1128 l 490 1268 l 601 1268 l 471 1075 l 326 1075 l 196 1268 z "},"Ŗ":{"ha":833,"x_min":93,"x_max":747,"o":"m 93 0 l 93 986 l 400 986 q 647 907 557 986 q 736 692 736 828 q 705 567 736 621 q 623 482 674 513 q 515 447 572 451 l 510 464 q 663 417 613 460 q 722 281 714 375 l 747 0 l 601 0 l 579 253 q 558 331 575 301 q 507 372 542 360 q 411 385 472 385 l 239 385 l 239 0 l 93 0 m 239 521 l 397 521 q 538 564 489 521 q 586 685 586 607 q 538 806 586 764 q 397 849 489 849 l 239 849 l 239 521 m 317 -339 l 394 -208 l 343 -208 l 343 -72 l 496 -72 l 496 -200 l 403 -339 l 317 -339 z "},"S":{"ha":833,"x_min":60,"x_max":774,"o":"m 429 -22 q 242 21 322 -22 q 115 141 163 64 q 60 321 68 218 l 210 331 q 249 211 219 260 q 325 138 278 163 q 435 114 372 114 q 538 130 496 114 q 601 176 579 146 q 624 250 624 207 q 603 328 624 294 q 528 389 582 361 q 369 446 474 417 q 204 508 268 474 q 111 594 140 543 q 82 722 82 646 q 122 872 82 807 q 235 972 161 936 q 414 1008 310 1008 q 590 968 517 1008 q 705 856 663 928 q 757 689 747 785 l 607 681 q 576 781 600 738 q 510 848 551 824 q 410 872 468 872 q 280 833 328 872 q 232 729 232 793 q 251 658 232 686 q 319 608 271 631 q 456 563 368 586 q 643 489 574 531 q 743 389 713 447 q 774 250 774 331 q 731 108 774 169 q 610 12 688 46 q 429 -22 533 -22 z "},"Ś":{"ha":833,"x_min":60,"x_max":774,"o":"m 429 -22 q 242 21 322 -22 q 115 141 163 64 q 60 321 68 218 l 210 331 q 249 211 219 260 q 325 138 278 163 q 435 114 372 114 q 538 130 496 114 q 601 176 579 146 q 624 250 624 207 q 603 328 624 294 q 528 389 582 361 q 369 446 474 417 q 204 508 268 474 q 111 594 140 543 q 82 722 82 646 q 122 872 82 807 q 235 972 161 936 q 414 1008 310 1008 q 590 968 517 1008 q 705 856 663 928 q 757 689 747 785 l 607 681 q 576 781 600 738 q 510 848 551 824 q 410 872 468 872 q 280 833 328 872 q 232 729 232 793 q 251 658 232 686 q 319 608 271 631 q 456 563 368 586 q 643 489 574 531 q 743 389 713 447 q 774 250 774 331 q 731 108 774 169 q 610 12 688 46 q 429 -22 533 -22 m 354 1078 l 444 1264 l 599 1264 l 474 1078 l 354 1078 z "},"Š":{"ha":833,"x_min":60,"x_max":774,"o":"m 429 -22 q 242 21 322 -22 q 115 141 163 64 q 60 321 68 218 l 210 331 q 249 211 219 260 q 325 138 278 163 q 435 114 372 114 q 538 130 496 114 q 601 176 579 146 q 624 250 624 207 q 603 328 624 294 q 528 389 582 361 q 369 446 474 417 q 204 508 268 474 q 111 594 140 543 q 82 722 82 646 q 122 872 82 807 q 235 972 161 936 q 414 1008 310 1008 q 590 968 517 1008 q 705 856 663 928 q 757 689 747 785 l 607 681 q 576 781 600 738 q 510 848 551 824 q 410 872 468 872 q 280 833 328 872 q 232 729 232 793 q 251 658 232 686 q 319 608 271 631 q 456 563 368 586 q 643 489 574 531 q 743 389 713 447 q 774 250 774 331 q 731 108 774 169 q 610 12 688 46 q 429 -22 533 -22 m 214 1268 l 325 1268 l 429 1128 l 404 1128 l 508 1268 l 619 1268 l 489 1075 l 344 1075 l 214 1268 z "},"Ş":{"ha":833,"x_min":60,"x_max":774,"o":"m 429 -22 q 242 21 322 -22 q 115 141 163 64 q 60 321 68 218 l 210 331 q 249 211 219 260 q 325 138 278 163 q 435 114 372 114 q 538 130 496 114 q 601 176 579 146 q 624 250 624 207 q 603 328 624 294 q 528 389 582 361 q 369 446 474 417 q 204 508 268 474 q 111 594 140 543 q 82 722 82 646 q 122 872 82 807 q 235 972 161 936 q 414 1008 310 1008 q 590 968 517 1008 q 705 856 663 928 q 757 689 747 785 l 607 681 q 576 781 600 738 q 510 848 551 824 q 410 872 468 872 q 280 833 328 872 q 232 729 232 793 q 251 658 232 686 q 319 608 271 631 q 456 563 368 586 q 643 489 574 531 q 743 389 713 447 q 774 250 774 331 q 731 108 774 169 q 610 12 688 46 q 429 -22 533 -22 m 407 -311 q 297 -280 339 -311 q 239 -200 256 -249 l 317 -169 q 349 -212 329 -199 q 404 -225 369 -225 q 458 -211 439 -225 q 476 -172 476 -197 q 458 -129 476 -146 q 375 -112 439 -112 l 331 -67 l 381 14 l 481 14 l 436 -47 q 537 -87 504 -51 q 569 -175 569 -122 q 548 -248 569 -218 q 490 -294 526 -278 q 407 -311 454 -311 z "},"Ŝ":{"ha":833,"x_min":60,"x_max":774,"o":"m 429 -22 q 242 21 322 -22 q 115 141 163 64 q 60 321 68 218 l 210 331 q 249 211 219 260 q 325 138 278 163 q 435 114 372 114 q 538 130 496 114 q 601 176 579 146 q 624 250 624 207 q 603 328 624 294 q 528 389 582 361 q 369 446 474 417 q 204 508 268 474 q 111 594 140 543 q 82 722 82 646 q 122 872 82 807 q 235 972 161 936 q 414 1008 310 1008 q 590 968 517 1008 q 705 856 663 928 q 757 689 747 785 l 607 681 q 576 781 600 738 q 510 848 551 824 q 410 872 468 872 q 280 833 328 872 q 232 729 232 793 q 251 658 232 686 q 319 608 271 631 q 456 563 368 586 q 643 489 574 531 q 743 389 713 447 q 774 250 774 331 q 731 108 774 169 q 610 12 688 46 q 429 -22 533 -22 m 213 1075 l 343 1268 l 488 1268 l 618 1075 l 507 1075 l 403 1215 l 428 1215 l 324 1075 l 213 1075 z "},"Ș":{"ha":833,"x_min":60,"x_max":774,"o":"m 429 -22 q 242 21 322 -22 q 115 141 163 64 q 60 321 68 218 l 210 331 q 249 211 219 260 q 325 138 278 163 q 435 114 372 114 q 538 130 496 114 q 601 176 579 146 q 624 250 624 207 q 603 328 624 294 q 528 389 582 361 q 369 446 474 417 q 204 508 268 474 q 111 594 140 543 q 82 722 82 646 q 122 872 82 807 q 235 972 161 936 q 414 1008 310 1008 q 590 968 517 1008 q 705 856 663 928 q 757 689 747 785 l 607 681 q 576 781 600 738 q 510 848 551 824 q 410 872 468 872 q 280 833 328 872 q 232 729 232 793 q 251 658 232 686 q 319 608 271 631 q 456 563 368 586 q 643 489 574 531 q 743 389 713 447 q 774 250 774 331 q 731 108 774 169 q 610 12 688 46 q 429 -22 533 -22 m 315 -339 l 393 -208 l 342 -208 l 342 -72 l 494 -72 l 494 -200 l 401 -339 l 315 -339 z "},"ẞ":{"ha":833,"x_min":43,"x_max":803,"o":"m 43 0 l 43 683 q 121 906 43 825 q 333 986 199 986 l 742 986 l 742 839 l 458 589 q 640 553 563 589 q 760 453 718 517 q 803 306 803 390 q 760 145 803 214 q 640 38 718 76 q 451 0 561 0 l 272 0 l 272 138 l 447 138 q 559 157 513 138 q 629 214 606 176 q 653 304 653 251 q 595 430 653 386 q 422 474 538 474 l 313 474 l 313 596 l 569 849 l 342 849 q 228 806 268 849 q 189 681 189 763 l 189 0 l 43 0 z "},"T":{"ha":833,"x_min":56,"x_max":778,"o":"m 344 0 l 344 849 l 56 849 l 56 986 l 778 986 l 778 849 l 489 849 l 489 0 l 344 0 z "},"Ŧ":{"ha":833,"x_min":56,"x_max":778,"o":"m 344 0 l 344 849 l 56 849 l 56 986 l 778 986 l 778 849 l 489 849 l 489 0 l 344 0 m 189 411 l 189 536 l 644 536 l 644 411 l 189 411 z "},"Ť":{"ha":833,"x_min":56,"x_max":778,"o":"m 344 0 l 344 849 l 56 849 l 56 986 l 778 986 l 778 849 l 489 849 l 489 0 l 344 0 m 214 1268 l 325 1268 l 429 1128 l 404 1128 l 508 1268 l 619 1268 l 489 1075 l 344 1075 l 214 1268 z "},"Ţ":{"ha":833,"x_min":56,"x_max":778,"o":"m 344 0 l 344 849 l 56 849 l 56 986 l 778 986 l 778 849 l 489 849 l 489 0 l 344 0 m 406 -311 q 296 -280 338 -311 q 238 -200 254 -249 l 315 -169 q 348 -212 328 -199 q 403 -225 368 -225 q 456 -211 438 -225 q 475 -172 475 -197 q 456 -129 475 -146 q 374 -112 438 -112 l 329 -67 l 379 14 l 479 14 l 435 -47 q 535 -87 503 -51 q 568 -175 568 -122 q 547 -248 568 -218 q 489 -294 525 -278 q 406 -311 453 -311 z "},"Ț":{"ha":833,"x_min":56,"x_max":778,"o":"m 344 0 l 344 849 l 56 849 l 56 986 l 778 986 l 778 849 l 489 849 l 489 0 l 344 0 m 314 -339 l 392 -208 l 340 -208 l 340 -72 l 493 -72 l 493 -200 l 400 -339 l 314 -339 z "},"U":{"ha":833,"x_min":81,"x_max":753,"o":"m 417 -22 q 169 75 258 -22 q 81 343 81 172 l 81 986 l 226 986 l 226 338 q 275 172 226 229 q 417 114 324 114 q 558 172 510 114 q 607 338 607 229 l 607 986 l 753 986 l 753 343 q 664 75 753 172 q 417 -22 575 -22 z "},"Ú":{"ha":833,"x_min":81,"x_max":753,"o":"m 417 -22 q 169 75 258 -22 q 81 343 81 172 l 81 986 l 226 986 l 226 338 q 275 172 226 229 q 417 114 324 114 q 558 172 510 114 q 607 338 607 229 l 607 986 l 753 986 l 753 343 q 664 75 753 172 q 417 -22 575 -22 m 354 1078 l 444 1264 l 599 1264 l 474 1078 l 354 1078 z "},"Ŭ":{"ha":833,"x_min":81,"x_max":753,"o":"m 417 -22 q 169 75 258 -22 q 81 343 81 172 l 81 986 l 226 986 l 226 338 q 275 172 226 229 q 417 114 324 114 q 558 172 510 114 q 607 338 607 229 l 607 986 l 753 986 l 753 343 q 664 75 753 172 q 417 -22 575 -22 m 417 1079 q 275 1131 329 1079 q 217 1267 221 1182 l 308 1267 q 344 1197 315 1218 q 417 1175 372 1175 q 491 1197 463 1175 q 525 1267 519 1218 l 617 1267 q 558 1131 613 1182 q 417 1079 504 1079 z "},"Û":{"ha":833,"x_min":81,"x_max":753,"o":"m 417 -22 q 169 75 258 -22 q 81 343 81 172 l 81 986 l 226 986 l 226 338 q 275 172 226 229 q 417 114 324 114 q 558 172 510 114 q 607 338 607 229 l 607 986 l 753 986 l 753 343 q 664 75 753 172 q 417 -22 575 -22 m 213 1075 l 343 1268 l 488 1268 l 618 1075 l 507 1075 l 403 1215 l 428 1215 l 324 1075 l 213 1075 z "},"Ü":{"ha":833,"x_min":81,"x_max":753,"o":"m 417 -22 q 169 75 258 -22 q 81 343 81 172 l 81 986 l 226 986 l 226 338 q 275 172 226 229 q 417 114 324 114 q 558 172 510 114 q 607 338 607 229 l 607 986 l 753 986 l 753 343 q 664 75 753 172 q 417 -22 575 -22 m 208 1092 l 208 1238 l 353 1238 l 353 1092 l 208 1092 m 481 1092 l 481 1238 l 625 1238 l 625 1092 l 481 1092 z "},"Ù":{"ha":833,"x_min":81,"x_max":753,"o":"m 417 -22 q 169 75 258 -22 q 81 343 81 172 l 81 986 l 226 986 l 226 338 q 275 172 226 229 q 417 114 324 114 q 558 172 510 114 q 607 338 607 229 l 607 986 l 753 986 l 753 343 q 664 75 753 172 q 417 -22 575 -22 m 364 1078 l 239 1264 l 393 1264 l 483 1078 l 364 1078 z "},"Ű":{"ha":833,"x_min":81,"x_max":753,"o":"m 417 -22 q 169 75 258 -22 q 81 343 81 172 l 81 986 l 226 986 l 226 338 q 275 172 226 229 q 417 114 324 114 q 558 172 510 114 q 607 338 607 229 l 607 986 l 753 986 l 753 343 q 664 75 753 172 q 417 -22 575 -22 m 244 1075 l 335 1261 l 489 1261 l 364 1075 l 244 1075 m 456 1075 l 546 1261 l 700 1261 l 575 1075 l 456 1075 z "},"Ū":{"ha":833,"x_min":81,"x_max":753,"o":"m 417 -22 q 169 75 258 -22 q 81 343 81 172 l 81 986 l 226 986 l 226 338 q 275 172 226 229 q 417 114 324 114 q 558 172 510 114 q 607 338 607 229 l 607 986 l 753 986 l 753 343 q 664 75 753 172 q 417 -22 575 -22 m 225 1108 l 225 1221 l 606 1221 l 606 1108 l 225 1108 z "},"Ų":{"ha":833,"x_min":81,"x_max":753,"o":"m 417 -22 q 169 75 258 -22 q 81 343 81 172 l 81 986 l 226 986 l 226 338 q 275 172 226 229 q 417 114 324 114 q 558 172 510 114 q 607 338 607 229 l 607 986 l 753 986 l 753 343 q 664 75 753 172 q 417 -22 575 -22 m 465 -294 q 369 -263 404 -294 q 335 -181 335 -232 q 349 -110 335 -143 q 392 -40 363 -76 l 438 17 l 547 0 l 500 -61 q 466 -115 475 -94 q 457 -151 457 -135 q 468 -181 457 -171 q 497 -190 479 -190 q 531 -185 514 -190 q 561 -171 549 -181 l 594 -257 q 543 -284 578 -274 q 465 -294 508 -294 z "},"Ů":{"ha":833,"x_min":81,"x_max":753,"o":"m 417 -22 q 169 75 258 -22 q 81 343 81 172 l 81 986 l 226 986 l 226 338 q 275 172 226 229 q 417 114 324 114 q 558 172 510 114 q 607 338 607 229 l 607 986 l 753 986 l 753 343 q 664 75 753 172 q 417 -22 575 -22 m 417 1047 q 322 1085 360 1047 q 283 1179 283 1122 q 322 1273 283 1235 q 417 1311 360 1311 q 512 1273 474 1311 q 550 1179 550 1235 q 512 1085 550 1122 q 417 1047 474 1047 m 417 1121 q 458 1138 442 1121 q 474 1179 474 1154 q 458 1220 474 1204 q 417 1236 442 1236 q 376 1220 392 1236 q 360 1179 360 1204 q 376 1138 360 1154 q 417 1121 392 1121 z "},"Ũ":{"ha":833,"x_min":81,"x_max":753,"o":"m 417 -22 q 169 75 258 -22 q 81 343 81 172 l 81 986 l 226 986 l 226 338 q 275 172 226 229 q 417 114 324 114 q 558 172 510 114 q 607 338 607 229 l 607 986 l 753 986 l 753 343 q 664 75 753 172 q 417 -22 575 -22 m 500 1090 q 449 1102 472 1090 q 401 1132 425 1114 q 365 1158 379 1150 q 332 1165 351 1165 q 292 1147 308 1165 q 274 1081 276 1129 l 194 1081 q 234 1210 197 1168 q 329 1253 271 1253 q 388 1241 364 1253 q 438 1210 413 1229 q 474 1185 458 1192 q 504 1178 489 1178 q 542 1197 529 1178 q 560 1267 556 1217 l 639 1267 q 599 1135 636 1181 q 500 1090 563 1090 z "},"V":{"ha":833,"x_min":38,"x_max":796,"o":"m 331 0 l 38 986 l 192 986 l 439 118 l 394 118 l 642 986 l 796 986 l 503 0 l 331 0 z "},"W":{"ha":833,"x_min":39,"x_max":794,"o":"m 144 0 l 39 986 l 185 986 l 267 119 l 250 119 l 353 875 l 481 875 l 583 119 l 567 119 l 649 986 l 794 986 l 689 0 l 499 0 l 400 722 l 433 722 l 335 0 l 144 0 z "},"Ẃ":{"ha":833,"x_min":39,"x_max":794,"o":"m 144 0 l 39 986 l 185 986 l 267 119 l 250 119 l 353 875 l 481 875 l 583 119 l 567 119 l 649 986 l 794 986 l 689 0 l 499 0 l 400 722 l 433 722 l 335 0 l 144 0 m 354 1078 l 444 1264 l 599 1264 l 474 1078 l 354 1078 z "},"Ŵ":{"ha":833,"x_min":39,"x_max":794,"o":"m 144 0 l 39 986 l 185 986 l 267 119 l 250 119 l 353 875 l 481 875 l 583 119 l 567 119 l 649 986 l 794 986 l 689 0 l 499 0 l 400 722 l 433 722 l 335 0 l 144 0 m 213 1075 l 343 1268 l 488 1268 l 618 1075 l 507 1075 l 403 1215 l 428 1215 l 324 1075 l 213 1075 z "},"Ẅ":{"ha":833,"x_min":39,"x_max":794,"o":"m 144 0 l 39 986 l 185 986 l 267 119 l 250 119 l 353 875 l 481 875 l 583 119 l 567 119 l 649 986 l 794 986 l 689 0 l 499 0 l 400 722 l 433 722 l 335 0 l 144 0 m 208 1092 l 208 1238 l 353 1238 l 353 1092 l 208 1092 m 481 1092 l 481 1238 l 625 1238 l 625 1092 l 481 1092 z "},"Ẁ":{"ha":833,"x_min":39,"x_max":794,"o":"m 144 0 l 39 986 l 185 986 l 267 119 l 250 119 l 353 875 l 481 875 l 583 119 l 567 119 l 649 986 l 794 986 l 689 0 l 499 0 l 400 722 l 433 722 l 335 0 l 144 0 m 364 1078 l 239 1264 l 393 1264 l 483 1078 l 364 1078 z "},"X":{"ha":833,"x_min":63,"x_max":771,"o":"m 63 0 l 322 496 l 67 986 l 232 986 l 418 607 l 604 986 l 767 986 l 511 494 l 771 0 l 606 0 l 415 385 l 224 0 l 63 0 z "},"Y":{"ha":833,"x_min":51,"x_max":782,"o":"m 344 0 l 344 406 l 51 986 l 213 986 l 417 556 l 621 986 l 782 986 l 490 406 l 490 0 l 344 0 z "},"Ý":{"ha":833,"x_min":51,"x_max":782,"o":"m 344 0 l 344 406 l 51 986 l 213 986 l 417 556 l 621 986 l 782 986 l 490 406 l 490 0 l 344 0 m 354 1078 l 444 1264 l 599 1264 l 474 1078 l 354 1078 z "},"Ŷ":{"ha":833,"x_min":51,"x_max":782,"o":"m 344 0 l 344 406 l 51 986 l 213 986 l 417 556 l 621 986 l 782 986 l 490 406 l 490 0 l 344 0 m 213 1075 l 343 1268 l 488 1268 l 618 1075 l 507 1075 l 403 1215 l 428 1215 l 324 1075 l 213 1075 z "},"Ÿ":{"ha":833,"x_min":51,"x_max":782,"o":"m 344 0 l 344 406 l 51 986 l 213 986 l 417 556 l 621 986 l 782 986 l 490 406 l 490 0 l 344 0 m 208 1092 l 208 1238 l 353 1238 l 353 1092 l 208 1092 m 481 1092 l 481 1238 l 625 1238 l 625 1092 l 481 1092 z "},"Ỳ":{"ha":833,"x_min":51,"x_max":782,"o":"m 344 0 l 344 406 l 51 986 l 213 986 l 417 556 l 621 986 l 782 986 l 490 406 l 490 0 l 344 0 m 364 1078 l 239 1264 l 393 1264 l 483 1078 l 364 1078 z "},"Ỹ":{"ha":833,"x_min":51,"x_max":782,"o":"m 344 0 l 344 406 l 51 986 l 213 986 l 417 556 l 621 986 l 782 986 l 490 406 l 490 0 l 344 0 m 500 1090 q 449 1102 472 1090 q 401 1132 425 1114 q 365 1158 379 1150 q 332 1165 351 1165 q 292 1147 308 1165 q 274 1081 276 1129 l 194 1081 q 234 1210 197 1168 q 329 1253 271 1253 q 388 1241 364 1253 q 438 1210 413 1229 q 474 1185 458 1192 q 504 1178 489 1178 q 542 1197 529 1178 q 560 1267 556 1217 l 639 1267 q 599 1135 636 1181 q 500 1090 563 1090 z "},"Z":{"ha":833,"x_min":67,"x_max":767,"o":"m 67 0 l 67 139 l 589 849 l 92 849 l 92 986 l 756 986 l 756 847 l 235 138 l 767 138 l 767 0 l 67 0 z "},"Ź":{"ha":833,"x_min":67,"x_max":767,"o":"m 67 0 l 67 139 l 589 849 l 92 849 l 92 986 l 756 986 l 756 847 l 235 138 l 767 138 l 767 0 l 67 0 m 354 1078 l 444 1264 l 599 1264 l 474 1078 l 354 1078 z "},"Ž":{"ha":833,"x_min":67,"x_max":767,"o":"m 67 0 l 67 139 l 589 849 l 92 849 l 92 986 l 756 986 l 756 847 l 235 138 l 767 138 l 767 0 l 67 0 m 214 1268 l 325 1268 l 429 1128 l 404 1128 l 508 1268 l 619 1268 l 489 1075 l 344 1075 l 214 1268 z "},"Ż":{"ha":833,"x_min":67,"x_max":767,"o":"m 67 0 l 67 139 l 589 849 l 92 849 l 92 986 l 756 986 l 756 847 l 235 138 l 767 138 l 767 0 l 67 0 m 343 1093 l 343 1239 l 488 1239 l 488 1093 l 343 1093 z "},"Ꞌ":{"ha":833,"x_min":343,"x_max":490,"o":"m 363 511 l 343 790 l 343 986 l 490 986 l 490 790 l 472 511 l 363 511 z "},"a":{"ha":833,"x_min":71,"x_max":767,"o":"m 317 -17 q 192 8 247 -17 q 103 79 136 33 q 71 186 71 125 q 128 333 71 281 q 303 408 186 386 l 542 458 q 504 588 542 544 q 392 631 467 631 q 283 599 322 631 q 231 510 244 567 l 83 519 q 185 690 104 625 q 392 756 265 756 q 608 675 533 756 q 682 453 682 594 l 682 161 q 693 126 682 136 q 725 115 704 115 l 767 115 l 767 0 q 740 -3 758 -1 q 703 -4 721 -4 q 618 13 653 -4 q 566 65 583 29 q 546 154 549 100 l 568 154 q 525 67 560 106 q 436 6 490 28 q 317 -17 382 -17 m 338 99 q 450 122 404 99 q 519 189 496 146 q 542 290 542 232 l 542 347 l 336 306 q 243 267 269 293 q 217 197 217 240 q 249 125 217 151 q 338 99 281 99 z "},"á":{"ha":833,"x_min":71,"x_max":767,"o":"m 317 -17 q 192 8 247 -17 q 103 79 136 33 q 71 186 71 125 q 128 333 71 281 q 303 408 186 386 l 542 458 q 504 588 542 544 q 392 631 467 631 q 283 599 322 631 q 231 510 244 567 l 83 519 q 185 690 104 625 q 392 756 265 756 q 608 675 533 756 q 682 453 682 594 l 682 161 q 693 126 682 136 q 725 115 704 115 l 767 115 l 767 0 q 740 -3 758 -1 q 703 -4 721 -4 q 618 13 653 -4 q 566 65 583 29 q 546 154 549 100 l 568 154 q 525 67 560 106 q 436 6 490 28 q 317 -17 382 -17 m 338 99 q 450 122 404 99 q 519 189 496 146 q 542 290 542 232 l 542 347 l 336 306 q 243 267 269 293 q 217 197 217 240 q 249 125 217 151 q 338 99 281 99 m 332 831 l 422 1017 l 576 1017 l 451 831 l 332 831 z "},"ă":{"ha":833,"x_min":71,"x_max":767,"o":"m 317 -17 q 192 8 247 -17 q 103 79 136 33 q 71 186 71 125 q 128 333 71 281 q 303 408 186 386 l 542 458 q 504 588 542 544 q 392 631 467 631 q 283 599 322 631 q 231 510 244 567 l 83 519 q 185 690 104 625 q 392 756 265 756 q 608 675 533 756 q 682 453 682 594 l 682 161 q 693 126 682 136 q 725 115 704 115 l 767 115 l 767 0 q 740 -3 758 -1 q 703 -4 721 -4 q 618 13 653 -4 q 566 65 583 29 q 546 154 549 100 l 568 154 q 525 67 560 106 q 436 6 490 28 q 317 -17 382 -17 m 338 99 q 450 122 404 99 q 519 189 496 146 q 542 290 542 232 l 542 347 l 336 306 q 243 267 269 293 q 217 197 217 240 q 249 125 217 151 q 338 99 281 99 m 394 832 q 253 883 307 832 q 194 1019 199 935 l 286 1019 q 322 949 293 971 q 394 928 350 928 q 469 949 440 928 q 503 1019 497 971 l 594 1019 q 536 883 590 935 q 394 832 482 832 z "},"ǎ":{"ha":833,"x_min":71,"x_max":767,"o":"m 317 -17 q 192 8 247 -17 q 103 79 136 33 q 71 186 71 125 q 128 333 71 281 q 303 408 186 386 l 542 458 q 504 588 542 544 q 392 631 467 631 q 283 599 322 631 q 231 510 244 567 l 83 519 q 185 690 104 625 q 392 756 265 756 q 608 675 533 756 q 682 453 682 594 l 682 161 q 693 126 682 136 q 725 115 704 115 l 767 115 l 767 0 q 740 -3 758 -1 q 703 -4 721 -4 q 618 13 653 -4 q 566 65 583 29 q 546 154 549 100 l 568 154 q 525 67 560 106 q 436 6 490 28 q 317 -17 382 -17 m 338 99 q 450 122 404 99 q 519 189 496 146 q 542 290 542 232 l 542 347 l 336 306 q 243 267 269 293 q 217 197 217 240 q 249 125 217 151 q 338 99 281 99 m 192 1021 l 303 1021 l 407 881 l 382 881 l 486 1021 l 597 1021 l 467 828 l 322 828 l 192 1021 z "},"â":{"ha":833,"x_min":71,"x_max":767,"o":"m 317 -17 q 192 8 247 -17 q 103 79 136 33 q 71 186 71 125 q 128 333 71 281 q 303 408 186 386 l 542 458 q 504 588 542 544 q 392 631 467 631 q 283 599 322 631 q 231 510 244 567 l 83 519 q 185 690 104 625 q 392 756 265 756 q 608 675 533 756 q 682 453 682 594 l 682 161 q 693 126 682 136 q 725 115 704 115 l 767 115 l 767 0 q 740 -3 758 -1 q 703 -4 721 -4 q 618 13 653 -4 q 566 65 583 29 q 546 154 549 100 l 568 154 q 525 67 560 106 q 436 6 490 28 q 317 -17 382 -17 m 338 99 q 450 122 404 99 q 519 189 496 146 q 542 290 542 232 l 542 347 l 336 306 q 243 267 269 293 q 217 197 217 240 q 249 125 217 151 q 338 99 281 99 m 190 828 l 321 1021 l 465 1021 l 596 828 l 485 828 l 381 968 l 406 968 l 301 828 l 190 828 z "},"ä":{"ha":833,"x_min":71,"x_max":767,"o":"m 317 -17 q 192 8 247 -17 q 103 79 136 33 q 71 186 71 125 q 128 333 71 281 q 303 408 186 386 l 542 458 q 504 588 542 544 q 392 631 467 631 q 283 599 322 631 q 231 510 244 567 l 83 519 q 185 690 104 625 q 392 756 265 756 q 608 675 533 756 q 682 453 682 594 l 682 161 q 693 126 682 136 q 725 115 704 115 l 767 115 l 767 0 q 740 -3 758 -1 q 703 -4 721 -4 q 618 13 653 -4 q 566 65 583 29 q 546 154 549 100 l 568 154 q 525 67 560 106 q 436 6 490 28 q 317 -17 382 -17 m 338 99 q 450 122 404 99 q 519 189 496 146 q 542 290 542 232 l 542 347 l 336 306 q 243 267 269 293 q 217 197 217 240 q 249 125 217 151 q 338 99 281 99 m 186 844 l 186 990 l 331 990 l 331 844 l 186 844 m 458 844 l 458 990 l 603 990 l 603 844 l 458 844 z "},"à":{"ha":833,"x_min":71,"x_max":767,"o":"m 317 -17 q 192 8 247 -17 q 103 79 136 33 q 71 186 71 125 q 128 333 71 281 q 303 408 186 386 l 542 458 q 504 588 542 544 q 392 631 467 631 q 283 599 322 631 q 231 510 244 567 l 83 519 q 185 690 104 625 q 392 756 265 756 q 608 675 533 756 q 682 453 682 594 l 682 161 q 693 126 682 136 q 725 115 704 115 l 767 115 l 767 0 q 740 -3 758 -1 q 703 -4 721 -4 q 618 13 653 -4 q 566 65 583 29 q 546 154 549 100 l 568 154 q 525 67 560 106 q 436 6 490 28 q 317 -17 382 -17 m 338 99 q 450 122 404 99 q 519 189 496 146 q 542 290 542 232 l 542 347 l 336 306 q 243 267 269 293 q 217 197 217 240 q 249 125 217 151 q 338 99 281 99 m 342 831 l 217 1017 l 371 1017 l 461 831 l 342 831 z "},"ā":{"ha":833,"x_min":71,"x_max":767,"o":"m 317 -17 q 192 8 247 -17 q 103 79 136 33 q 71 186 71 125 q 128 333 71 281 q 303 408 186 386 l 542 458 q 504 588 542 544 q 392 631 467 631 q 283 599 322 631 q 231 510 244 567 l 83 519 q 185 690 104 625 q 392 756 265 756 q 608 675 533 756 q 682 453 682 594 l 682 161 q 693 126 682 136 q 725 115 704 115 l 767 115 l 767 0 q 740 -3 758 -1 q 703 -4 721 -4 q 618 13 653 -4 q 566 65 583 29 q 546 154 549 100 l 568 154 q 525 67 560 106 q 436 6 490 28 q 317 -17 382 -17 m 338 99 q 450 122 404 99 q 519 189 496 146 q 542 290 542 232 l 542 347 l 336 306 q 243 267 269 293 q 217 197 217 240 q 249 125 217 151 q 338 99 281 99 m 203 861 l 203 974 l 583 974 l 583 861 l 203 861 z "},"ą":{"ha":833,"x_min":71,"x_max":814,"o":"m 317 -17 q 192 8 247 -17 q 103 79 136 33 q 71 186 71 125 q 128 333 71 281 q 303 408 186 386 l 542 458 q 504 588 542 544 q 392 631 467 631 q 283 599 322 631 q 231 510 244 567 l 83 519 q 185 690 104 625 q 392 756 265 756 q 608 675 533 756 q 682 453 682 594 l 682 161 q 693 126 682 136 q 725 115 704 115 l 767 115 l 767 0 q 740 -3 758 -1 q 703 -4 721 -4 q 618 13 653 -4 q 566 65 583 29 q 546 154 549 100 l 568 154 q 525 67 560 106 q 436 6 490 28 q 317 -17 382 -17 m 338 99 q 450 122 404 99 q 519 189 496 146 q 542 290 542 232 l 542 347 l 336 306 q 243 267 269 293 q 217 197 217 240 q 249 125 217 151 q 338 99 281 99 m 685 -294 q 589 -263 624 -294 q 554 -181 554 -232 q 568 -110 554 -143 q 611 -40 582 -76 l 657 17 l 767 0 l 719 -61 q 685 -115 694 -94 q 676 -151 676 -135 q 688 -181 676 -171 q 717 -190 699 -190 q 751 -185 733 -190 q 781 -171 768 -181 l 814 -257 q 763 -284 797 -274 q 685 -294 728 -294 z "},"å":{"ha":833,"x_min":71,"x_max":767,"o":"m 317 -17 q 192 8 247 -17 q 103 79 136 33 q 71 186 71 125 q 128 333 71 281 q 303 408 186 386 l 542 458 q 504 588 542 544 q 392 631 467 631 q 283 599 322 631 q 231 510 244 567 l 83 519 q 185 690 104 625 q 392 756 265 756 q 608 675 533 756 q 682 453 682 594 l 682 161 q 693 126 682 136 q 725 115 704 115 l 767 115 l 767 0 q 740 -3 758 -1 q 703 -4 721 -4 q 618 13 653 -4 q 566 65 583 29 q 546 154 549 100 l 568 154 q 525 67 560 106 q 436 6 490 28 q 317 -17 382 -17 m 338 99 q 450 122 404 99 q 519 189 496 146 q 542 290 542 232 l 542 347 l 336 306 q 243 267 269 293 q 217 197 217 240 q 249 125 217 151 q 338 99 281 99 m 394 800 q 299 838 338 800 q 261 932 261 875 q 299 1026 261 988 q 394 1064 338 1064 q 490 1026 451 1064 q 528 932 528 988 q 490 838 528 875 q 394 800 451 800 m 394 874 q 435 890 419 874 q 451 932 451 907 q 435 973 451 957 q 394 989 419 989 q 353 973 369 989 q 338 932 338 957 q 353 890 338 907 q 394 874 369 874 z "},"ã":{"ha":833,"x_min":71,"x_max":767,"o":"m 317 -17 q 192 8 247 -17 q 103 79 136 33 q 71 186 71 125 q 128 333 71 281 q 303 408 186 386 l 542 458 q 504 588 542 544 q 392 631 467 631 q 283 599 322 631 q 231 510 244 567 l 83 519 q 185 690 104 625 q 392 756 265 756 q 608 675 533 756 q 682 453 682 594 l 682 161 q 693 126 682 136 q 725 115 704 115 l 767 115 l 767 0 q 740 -3 758 -1 q 703 -4 721 -4 q 618 13 653 -4 q 566 65 583 29 q 546 154 549 100 l 568 154 q 525 67 560 106 q 436 6 490 28 q 317 -17 382 -17 m 338 99 q 450 122 404 99 q 519 189 496 146 q 542 290 542 232 l 542 347 l 336 306 q 243 267 269 293 q 217 197 217 240 q 249 125 217 151 q 338 99 281 99 m 478 843 q 426 855 450 843 q 379 885 403 867 q 343 910 357 903 q 310 918 329 918 q 270 900 286 918 q 251 833 254 882 l 172 833 q 212 963 175 921 q 307 1006 249 1006 q 366 994 342 1006 q 415 963 390 982 q 451 938 436 944 q 482 931 467 931 q 520 950 507 931 q 538 1019 533 969 l 617 1019 q 577 888 614 933 q 478 843 540 843 z "},"æ":{"ha":833,"x_min":22,"x_max":811,"o":"m 581 -17 q 403 84 465 -17 q 342 369 342 185 q 403 655 342 554 q 581 756 465 756 q 703 716 651 756 q 783 594 754 676 q 811 388 811 513 l 811 326 l 474 326 q 506 167 478 222 q 579 113 533 113 q 635 138 615 113 q 667 225 656 163 l 803 214 q 726 37 778 90 q 581 -17 674 -17 m 200 -17 q 110 5 151 -17 q 46 74 69 26 q 22 196 22 121 q 75 347 22 288 q 221 421 128 406 l 333 439 q 313 586 333 542 q 247 631 292 631 q 187 597 204 631 q 161 510 169 564 l 31 518 q 102 696 49 636 q 247 756 156 756 q 404 678 351 756 q 457 446 457 600 l 397 178 q 333 35 383 88 q 200 -17 282 -17 m 226 99 q 309 149 285 99 q 333 296 333 199 l 333 324 l 246 308 q 174 272 196 300 q 151 200 151 244 q 173 124 151 150 q 226 99 194 99 m 475 438 l 672 438 q 643 584 668 540 q 579 628 618 628 q 509 584 533 628 q 475 438 485 540 z "},"b":{"ha":833,"x_min":114,"x_max":783,"o":"m 475 -17 q 339 19 397 -17 q 249 114 281 54 l 244 0 l 114 0 l 114 986 l 254 986 l 254 635 q 340 719 282 683 q 475 756 397 756 q 639 709 569 756 q 746 576 708 663 q 783 369 783 489 q 746 163 783 250 q 639 30 708 76 q 475 -17 569 -17 m 451 113 q 588 181 539 113 q 636 369 636 250 q 588 558 636 490 q 454 626 539 626 q 347 596 392 626 q 278 508 303 565 q 254 369 254 451 q 278 233 254 290 q 347 144 303 175 q 451 113 390 113 z "},"c":{"ha":833,"x_min":89,"x_max":756,"o":"m 433 -17 q 252 31 331 -17 q 131 166 174 79 q 89 369 89 253 q 131 572 89 486 q 252 707 174 658 q 433 756 331 756 q 585 724 518 756 q 694 633 651 693 q 751 490 738 574 l 608 481 q 546 589 592 551 q 435 626 500 626 q 288 558 342 626 q 235 369 235 489 q 288 181 235 250 q 435 113 342 113 q 549 152 501 113 q 613 269 597 192 l 756 261 q 697 115 742 176 q 585 18 653 53 q 433 -17 518 -17 z "},"ć":{"ha":833,"x_min":89,"x_max":756,"o":"m 433 -17 q 252 31 331 -17 q 131 166 174 79 q 89 369 89 253 q 131 572 89 486 q 252 707 174 658 q 433 756 331 756 q 585 724 518 756 q 694 633 651 693 q 751 490 738 574 l 608 481 q 546 589 592 551 q 435 626 500 626 q 288 558 342 626 q 235 369 235 489 q 288 181 235 250 q 435 113 342 113 q 549 152 501 113 q 613 269 597 192 l 756 261 q 697 115 742 176 q 585 18 653 53 q 433 -17 518 -17 m 369 831 l 460 1017 l 614 1017 l 489 831 l 369 831 z "},"č":{"ha":833,"x_min":89,"x_max":756,"o":"m 433 -17 q 252 31 331 -17 q 131 166 174 79 q 89 369 89 253 q 131 572 89 486 q 252 707 174 658 q 433 756 331 756 q 585 724 518 756 q 694 633 651 693 q 751 490 738 574 l 608 481 q 546 589 592 551 q 435 626 500 626 q 288 558 342 626 q 235 369 235 489 q 288 181 235 250 q 435 113 342 113 q 549 152 501 113 q 613 269 597 192 l 756 261 q 697 115 742 176 q 585 18 653 53 q 433 -17 518 -17 m 231 1021 l 342 1021 l 446 881 l 421 881 l 525 1021 l 636 1021 l 506 828 l 361 828 l 231 1021 z "},"ç":{"ha":833,"x_min":89,"x_max":756,"o":"m 433 -17 q 252 31 331 -17 q 131 166 174 79 q 89 369 89 253 q 131 572 89 486 q 252 707 174 658 q 433 756 331 756 q 585 724 518 756 q 694 633 651 693 q 751 490 738 574 l 608 481 q 546 589 592 551 q 435 626 500 626 q 288 558 342 626 q 235 369 235 489 q 288 181 235 250 q 435 113 342 113 q 549 152 501 113 q 613 269 597 192 l 756 261 q 697 115 742 176 q 585 18 653 53 q 433 -17 518 -17 m 422 -311 q 313 -280 354 -311 q 254 -200 271 -249 l 332 -169 q 365 -212 344 -199 q 419 -225 385 -225 q 473 -211 454 -225 q 492 -172 492 -197 q 473 -129 492 -146 q 390 -112 454 -112 l 346 -67 l 396 14 l 496 14 l 451 -47 q 552 -87 519 -51 q 585 -175 585 -122 q 563 -248 585 -218 q 506 -294 542 -278 q 422 -311 469 -311 z "},"ĉ":{"ha":833,"x_min":89,"x_max":756,"o":"m 433 -17 q 252 31 331 -17 q 131 166 174 79 q 89 369 89 253 q 131 572 89 486 q 252 707 174 658 q 433 756 331 756 q 585 724 518 756 q 694 633 651 693 q 751 490 738 574 l 608 481 q 546 589 592 551 q 435 626 500 626 q 288 558 342 626 q 235 369 235 489 q 288 181 235 250 q 435 113 342 113 q 549 152 501 113 q 613 269 597 192 l 756 261 q 697 115 742 176 q 585 18 653 53 q 433 -17 518 -17 m 229 828 l 360 1021 l 504 1021 l 635 828 l 524 828 l 419 968 l 444 968 l 340 828 l 229 828 z "},"ċ":{"ha":833,"x_min":89,"x_max":756,"o":"m 433 -17 q 252 31 331 -17 q 131 166 174 79 q 89 369 89 253 q 131 572 89 486 q 252 707 174 658 q 433 756 331 756 q 585 724 518 756 q 694 633 651 693 q 751 490 738 574 l 608 481 q 546 589 592 551 q 435 626 500 626 q 288 558 342 626 q 235 369 235 489 q 288 181 235 250 q 435 113 342 113 q 549 152 501 113 q 613 269 597 192 l 756 261 q 697 115 742 176 q 585 18 653 53 q 433 -17 518 -17 m 360 846 l 360 992 l 504 992 l 504 846 l 360 846 z "},"d":{"ha":833,"x_min":50,"x_max":719,"o":"m 358 -17 q 194 30 264 -17 q 88 163 125 76 q 50 369 50 250 q 88 576 50 489 q 194 709 125 663 q 358 756 264 756 q 494 719 436 756 q 579 635 553 683 l 579 986 l 719 986 l 719 0 l 589 0 l 585 114 q 496 19 554 54 q 358 -17 438 -17 m 382 113 q 487 144 443 113 q 555 233 531 175 q 579 369 579 290 q 555 508 579 451 q 486 596 531 565 q 379 626 442 626 q 246 558 294 626 q 197 369 197 490 q 246 181 197 250 q 382 113 294 113 z "},"ď":{"ha":833,"x_min":22,"x_max":833,"o":"m 299 -17 q 97 87 171 -17 q 22 369 22 190 q 97 653 22 550 q 300 756 171 756 q 417 719 369 756 q 490 635 465 683 l 490 986 l 631 986 l 631 0 l 500 0 l 496 114 q 418 19 467 54 q 299 -17 369 -17 m 324 113 q 410 144 372 113 q 469 233 447 175 q 490 369 490 290 q 469 508 490 451 q 410 596 447 565 q 321 626 372 626 q 211 558 253 626 q 169 369 169 490 q 211 181 169 250 q 324 113 253 113 m 663 618 l 701 986 l 833 986 l 761 618 l 663 618 z "},"đ":{"ha":833,"x_min":50,"x_max":808,"o":"m 358 -17 q 194 30 264 -17 q 88 163 125 76 q 50 369 50 250 q 88 576 50 489 q 194 709 125 663 q 358 756 264 756 q 494 719 436 756 q 579 635 553 683 l 579 986 l 719 986 l 719 0 l 589 0 l 585 114 q 496 19 554 54 q 358 -17 438 -17 m 382 113 q 487 144 443 113 q 555 233 531 175 q 579 369 579 290 q 555 508 579 451 q 486 596 531 565 q 379 626 442 626 q 246 558 294 626 q 197 369 197 490 q 246 181 197 250 q 382 113 294 113 m 375 806 l 375 910 l 808 910 l 808 806 l 375 806 z "},"ð":{"ha":833,"x_min":81,"x_max":768,"o":"m 343 721 l 310 813 l 733 974 l 768 882 l 343 721 m 625 365 q 584 650 624 539 q 461 818 544 761 q 247 886 378 875 l 283 1003 q 504 935 414 989 q 651 794 594 881 q 732 597 707 708 q 757 357 757 486 l 625 365 m 419 -17 q 241 26 317 -17 q 123 149 165 69 q 81 338 81 229 q 123 526 81 447 q 241 649 165 606 q 418 692 317 692 q 555 660 493 692 q 663 576 617 628 q 733 467 708 525 q 757 357 757 408 q 715 156 757 239 q 597 28 674 72 q 419 -17 521 -17 m 419 111 q 560 171 510 111 q 611 350 611 231 q 560 506 611 449 q 419 564 510 564 q 277 506 328 564 q 226 338 226 447 q 277 170 226 229 q 419 111 328 111 z "},"e":{"ha":833,"x_min":83,"x_max":756,"o":"m 426 -17 q 245 31 322 -17 q 126 165 168 78 q 83 369 83 253 q 126 572 83 486 q 244 707 168 658 q 422 756 319 756 q 596 709 521 756 q 713 576 671 663 q 756 367 756 489 l 756 328 l 231 328 q 290 167 238 222 q 428 113 342 113 q 536 144 493 113 q 596 225 579 175 l 743 215 q 628 47 711 110 q 426 -17 546 -17 m 231 440 l 604 440 q 547 581 596 535 q 422 626 497 626 q 294 579 344 626 q 231 440 244 532 z "},"é":{"ha":833,"x_min":83,"x_max":756,"o":"m 426 -17 q 245 31 322 -17 q 126 165 168 78 q 83 369 83 253 q 126 572 83 486 q 244 707 168 658 q 422 756 319 756 q 596 709 521 756 q 713 576 671 663 q 756 367 756 489 l 756 328 l 231 328 q 290 167 238 222 q 428 113 342 113 q 536 144 493 113 q 596 225 579 175 l 743 215 q 628 47 711 110 q 426 -17 546 -17 m 231 440 l 604 440 q 547 581 596 535 q 422 626 497 626 q 294 579 344 626 q 231 440 244 532 m 360 828 l 450 1014 l 604 1014 l 479 828 l 360 828 z "},"ě":{"ha":833,"x_min":83,"x_max":756,"o":"m 426 -17 q 245 31 322 -17 q 126 165 168 78 q 83 369 83 253 q 126 572 83 486 q 244 707 168 658 q 422 756 319 756 q 596 709 521 756 q 713 576 671 663 q 756 367 756 489 l 756 328 l 231 328 q 290 167 238 222 q 428 113 342 113 q 536 144 493 113 q 596 225 579 175 l 743 215 q 628 47 711 110 q 426 -17 546 -17 m 231 440 l 604 440 q 547 581 596 535 q 422 626 497 626 q 294 579 344 626 q 231 440 244 532 m 221 1018 l 332 1018 l 436 878 l 411 878 l 515 1018 l 626 1018 l 496 825 l 351 825 l 221 1018 z "},"ê":{"ha":833,"x_min":83,"x_max":756,"o":"m 426 -17 q 245 31 322 -17 q 126 165 168 78 q 83 369 83 253 q 126 572 83 486 q 244 707 168 658 q 422 756 319 756 q 596 709 521 756 q 713 576 671 663 q 756 367 756 489 l 756 328 l 231 328 q 290 167 238 222 q 428 113 342 113 q 536 144 493 113 q 596 225 579 175 l 743 215 q 628 47 711 110 q 426 -17 546 -17 m 231 440 l 604 440 q 547 581 596 535 q 422 626 497 626 q 294 579 344 626 q 231 440 244 532 m 219 825 l 350 1018 l 494 1018 l 625 825 l 514 825 l 410 965 l 435 965 l 331 825 l 219 825 z "},"ë":{"ha":833,"x_min":83,"x_max":756,"o":"m 426 -17 q 245 31 322 -17 q 126 165 168 78 q 83 369 83 253 q 126 572 83 486 q 244 707 168 658 q 422 756 319 756 q 596 709 521 756 q 713 576 671 663 q 756 367 756 489 l 756 328 l 231 328 q 290 167 238 222 q 428 113 342 113 q 536 144 493 113 q 596 225 579 175 l 743 215 q 628 47 711 110 q 426 -17 546 -17 m 231 440 l 604 440 q 547 581 596 535 q 422 626 497 626 q 294 579 344 626 q 231 440 244 532 m 215 842 l 215 988 l 360 988 l 360 842 l 215 842 m 488 842 l 488 988 l 632 988 l 632 842 l 488 842 z "},"ė":{"ha":833,"x_min":83,"x_max":756,"o":"m 426 -17 q 245 31 322 -17 q 126 165 168 78 q 83 369 83 253 q 126 572 83 486 q 244 707 168 658 q 422 756 319 756 q 596 709 521 756 q 713 576 671 663 q 756 367 756 489 l 756 328 l 231 328 q 290 167 238 222 q 428 113 342 113 q 536 144 493 113 q 596 225 579 175 l 743 215 q 628 47 711 110 q 426 -17 546 -17 m 231 440 l 604 440 q 547 581 596 535 q 422 626 497 626 q 294 579 344 626 q 231 440 244 532 m 350 843 l 350 989 l 494 989 l 494 843 l 350 843 z "},"è":{"ha":833,"x_min":83,"x_max":756,"o":"m 426 -17 q 245 31 322 -17 q 126 165 168 78 q 83 369 83 253 q 126 572 83 486 q 244 707 168 658 q 422 756 319 756 q 596 709 521 756 q 713 576 671 663 q 756 367 756 489 l 756 328 l 231 328 q 290 167 238 222 q 428 113 342 113 q 536 144 493 113 q 596 225 579 175 l 743 215 q 628 47 711 110 q 426 -17 546 -17 m 231 440 l 604 440 q 547 581 596 535 q 422 626 497 626 q 294 579 344 626 q 231 440 244 532 m 371 828 l 246 1014 l 400 1014 l 490 828 l 371 828 z "},"ē":{"ha":833,"x_min":83,"x_max":756,"o":"m 426 -17 q 245 31 322 -17 q 126 165 168 78 q 83 369 83 253 q 126 572 83 486 q 244 707 168 658 q 422 756 319 756 q 596 709 521 756 q 713 576 671 663 q 756 367 756 489 l 756 328 l 231 328 q 290 167 238 222 q 428 113 342 113 q 536 144 493 113 q 596 225 579 175 l 743 215 q 628 47 711 110 q 426 -17 546 -17 m 231 440 l 604 440 q 547 581 596 535 q 422 626 497 626 q 294 579 344 626 q 231 440 244 532 m 232 858 l 232 971 l 613 971 l 613 858 l 232 858 z "},"ę":{"ha":833,"x_min":83,"x_max":756,"o":"m 426 -17 q 245 31 322 -17 q 126 165 168 78 q 83 369 83 253 q 126 572 83 486 q 244 707 168 658 q 422 756 319 756 q 596 709 521 756 q 713 576 671 663 q 756 367 756 489 l 756 328 l 231 328 q 290 167 238 222 q 428 113 342 113 q 536 144 493 113 q 596 225 579 175 l 743 215 q 628 47 711 110 q 426 -17 546 -17 m 231 440 l 604 440 q 547 581 596 535 q 422 626 497 626 q 294 579 344 626 q 231 440 244 532 m 524 -262 q 428 -231 463 -262 q 393 -149 393 -200 q 407 -78 393 -111 q 450 -8 421 -44 l 496 49 l 606 32 l 558 -29 q 524 -83 533 -62 q 515 -119 515 -103 q 526 -149 515 -139 q 556 -158 538 -158 q 590 -153 572 -158 q 619 -139 607 -149 l 653 -225 q 601 -252 636 -242 q 524 -262 567 -262 z "},"ẽ":{"ha":833,"x_min":83,"x_max":756,"o":"m 426 -17 q 245 31 322 -17 q 126 165 168 78 q 83 369 83 253 q 126 572 83 486 q 244 707 168 658 q 422 756 319 756 q 596 709 521 756 q 713 576 671 663 q 756 367 756 489 l 756 328 l 231 328 q 290 167 238 222 q 428 113 342 113 q 536 144 493 113 q 596 225 579 175 l 743 215 q 628 47 711 110 q 426 -17 546 -17 m 231 440 l 604 440 q 547 581 596 535 q 422 626 497 626 q 294 579 344 626 q 231 440 244 532 m 507 840 q 456 852 479 840 q 408 882 432 864 q 372 908 386 900 q 339 915 358 915 q 299 897 315 915 q 281 831 283 879 l 201 831 q 241 960 204 918 q 336 1003 278 1003 q 395 991 371 1003 q 444 960 419 979 q 481 935 465 942 q 511 928 496 928 q 549 947 536 928 q 567 1017 563 967 l 646 1017 q 606 885 643 931 q 507 840 569 840 z "},"ə":{"ha":833,"x_min":78,"x_max":750,"o":"m 407 756 q 588 708 511 756 q 708 573 665 660 q 750 369 750 486 q 708 166 750 253 q 590 31 665 79 q 411 -17 514 -17 q 238 30 313 -17 q 120 163 163 76 q 78 372 78 250 l 78 411 l 603 411 q 545 572 597 518 q 406 626 493 626 q 297 596 340 626 q 238 514 254 565 l 90 524 q 205 692 122 629 q 407 756 288 756 m 603 299 l 229 299 q 288 158 238 204 q 411 113 338 113 q 540 160 490 113 q 603 299 590 208 z "},"f":{"ha":833,"x_min":94,"x_max":739,"o":"m 289 0 l 289 778 q 340 933 289 881 q 500 986 392 986 l 739 986 l 739 868 l 514 868 q 451 844 472 868 q 429 776 429 819 l 429 0 l 289 0 m 94 621 l 94 739 l 728 739 l 728 621 l 94 621 z "},"g":{"ha":833,"x_min":75,"x_max":744,"o":"m 413 -225 q 264 -199 329 -225 q 156 -124 199 -172 q 97 -11 114 -75 l 244 -1 q 299 -74 260 -47 q 413 -100 338 -100 q 555 -61 506 -100 q 604 54 604 -22 l 604 163 q 522 72 578 106 q 392 39 465 39 q 228 85 300 39 q 115 210 156 131 q 75 394 75 290 q 115 583 75 503 q 225 710 154 664 q 386 756 296 756 q 523 720 464 756 q 608 624 582 685 l 610 739 l 744 739 l 744 64 q 704 -94 744 -29 q 590 -192 664 -158 q 413 -225 515 -225 m 411 164 q 550 225 497 164 q 604 396 603 286 q 581 523 606 471 q 513 603 557 575 q 411 631 469 631 q 272 569 321 631 q 222 396 222 507 q 273 225 222 286 q 411 164 324 164 z "},"ğ":{"ha":833,"x_min":75,"x_max":744,"o":"m 413 -225 q 264 -199 329 -225 q 156 -124 199 -172 q 97 -11 114 -75 l 244 -1 q 299 -74 260 -47 q 413 -100 338 -100 q 555 -61 506 -100 q 604 54 604 -22 l 604 163 q 522 72 578 106 q 392 39 465 39 q 228 85 300 39 q 115 210 156 131 q 75 394 75 290 q 115 583 75 503 q 225 710 154 664 q 386 756 296 756 q 523 720 464 756 q 608 624 582 685 l 610 739 l 744 739 l 744 64 q 704 -94 744 -29 q 590 -192 664 -158 q 413 -225 515 -225 m 411 164 q 550 225 497 164 q 604 396 603 286 q 581 523 606 471 q 513 603 557 575 q 411 631 469 631 q 272 569 321 631 q 222 396 222 507 q 273 225 222 286 q 411 164 324 164 m 418 832 q 276 883 331 832 q 218 1019 222 935 l 310 1019 q 345 949 317 971 q 418 928 374 928 q 492 949 464 928 q 526 1019 521 971 l 618 1019 q 560 883 614 935 q 418 832 506 832 z "},"ǧ":{"ha":833,"x_min":75,"x_max":744,"o":"m 413 -225 q 264 -199 329 -225 q 156 -124 199 -172 q 97 -11 114 -75 l 244 -1 q 299 -74 260 -47 q 413 -100 338 -100 q 555 -61 506 -100 q 604 54 604 -22 l 604 163 q 522 72 578 106 q 392 39 465 39 q 228 85 300 39 q 115 210 156 131 q 75 394 75 290 q 115 583 75 503 q 225 710 154 664 q 386 756 296 756 q 523 720 464 756 q 608 624 582 685 l 610 739 l 744 739 l 744 64 q 704 -94 744 -29 q 590 -192 664 -158 q 413 -225 515 -225 m 411 164 q 550 225 497 164 q 604 396 603 286 q 581 523 606 471 q 513 603 557 575 q 411 631 469 631 q 272 569 321 631 q 222 396 222 507 q 273 225 222 286 q 411 164 324 164 m 215 1021 l 326 1021 l 431 881 l 406 881 l 510 1021 l 621 1021 l 490 828 l 346 828 l 215 1021 z "},"ĝ":{"ha":833,"x_min":75,"x_max":744,"o":"m 413 -225 q 264 -199 329 -225 q 156 -124 199 -172 q 97 -11 114 -75 l 244 -1 q 299 -74 260 -47 q 413 -100 338 -100 q 555 -61 506 -100 q 604 54 604 -22 l 604 163 q 522 72 578 106 q 392 39 465 39 q 228 85 300 39 q 115 210 156 131 q 75 394 75 290 q 115 583 75 503 q 225 710 154 664 q 386 756 296 756 q 523 720 464 756 q 608 624 582 685 l 610 739 l 744 739 l 744 64 q 704 -94 744 -29 q 590 -192 664 -158 q 413 -225 515 -225 m 411 164 q 550 225 497 164 q 604 396 603 286 q 581 523 606 471 q 513 603 557 575 q 411 631 469 631 q 272 569 321 631 q 222 396 222 507 q 273 225 222 286 q 411 164 324 164 m 214 828 l 344 1021 l 489 1021 l 619 828 l 508 828 l 404 968 l 429 968 l 325 828 l 214 828 z "},"ģ":{"ha":833,"x_min":75,"x_max":744,"o":"m 413 -225 q 264 -199 329 -225 q 156 -124 199 -172 q 97 -11 114 -75 l 244 -1 q 299 -74 260 -47 q 413 -100 338 -100 q 555 -61 506 -100 q 604 54 604 -22 l 604 163 q 522 72 578 106 q 392 39 465 39 q 228 85 300 39 q 115 210 156 131 q 75 394 75 290 q 115 583 75 503 q 225 710 154 664 q 386 756 296 756 q 523 720 464 756 q 608 624 582 685 l 610 739 l 744 739 l 744 64 q 704 -94 744 -29 q 590 -192 664 -158 q 413 -225 515 -225 m 411 164 q 550 225 497 164 q 604 396 603 286 q 581 523 606 471 q 513 603 557 575 q 411 631 469 631 q 272 569 321 631 q 222 396 222 507 q 273 225 222 286 q 411 164 324 164 m 540 1099 l 463 967 l 514 967 l 514 832 l 361 832 l 361 958 l 454 1099 l 540 1099 z "},"ġ":{"ha":833,"x_min":75,"x_max":744,"o":"m 413 -225 q 264 -199 329 -225 q 156 -124 199 -172 q 97 -11 114 -75 l 244 -1 q 299 -74 260 -47 q 413 -100 338 -100 q 555 -61 506 -100 q 604 54 604 -22 l 604 163 q 522 72 578 106 q 392 39 465 39 q 228 85 300 39 q 115 210 156 131 q 75 394 75 290 q 115 583 75 503 q 225 710 154 664 q 386 756 296 756 q 523 720 464 756 q 608 624 582 685 l 610 739 l 744 739 l 744 64 q 704 -94 744 -29 q 590 -192 664 -158 q 413 -225 515 -225 m 411 164 q 550 225 497 164 q 604 396 603 286 q 581 523 606 471 q 513 603 557 575 q 411 631 469 631 q 272 569 321 631 q 222 396 222 507 q 273 225 222 286 q 411 164 324 164 m 344 846 l 344 992 l 489 992 l 489 846 l 344 846 z "},"ḡ":{"ha":833,"x_min":75,"x_max":744,"o":"m 413 -225 q 264 -199 329 -225 q 156 -124 199 -172 q 97 -11 114 -75 l 244 -1 q 299 -74 260 -47 q 413 -100 338 -100 q 555 -61 506 -100 q 604 54 604 -22 l 604 163 q 522 72 578 106 q 392 39 465 39 q 228 85 300 39 q 115 210 156 131 q 75 394 75 290 q 115 583 75 503 q 225 710 154 664 q 386 756 296 756 q 523 720 464 756 q 608 624 582 685 l 610 739 l 744 739 l 744 64 q 704 -94 744 -29 q 590 -192 664 -158 q 413 -225 515 -225 m 411 164 q 550 225 497 164 q 604 396 603 286 q 581 523 606 471 q 513 603 557 575 q 411 631 469 631 q 272 569 321 631 q 222 396 222 507 q 273 225 222 286 q 411 164 324 164 m 226 861 l 226 974 l 607 974 l 607 861 l 226 861 z "},"ǥ":{"ha":833,"x_min":72,"x_max":808,"o":"m 410 338 l 410 443 l 808 443 l 808 338 l 410 338 m 410 -225 q 261 -199 326 -225 q 153 -124 196 -172 q 94 -11 111 -75 l 242 -1 q 296 -74 257 -47 q 410 -100 335 -100 q 552 -61 503 -100 q 601 54 601 -22 l 601 163 q 519 72 575 106 q 389 39 463 39 q 225 85 297 39 q 113 210 153 131 q 72 394 72 290 q 112 583 72 503 q 222 710 151 664 q 383 756 293 756 q 520 720 461 756 q 606 624 579 685 l 607 739 l 742 739 l 742 64 q 701 -94 742 -29 q 587 -192 661 -158 q 410 -225 513 -225 m 408 164 q 547 225 494 164 q 601 396 600 286 q 578 523 603 471 q 510 603 554 575 q 408 631 467 631 q 269 569 318 631 q 219 396 219 507 q 270 225 219 286 q 408 164 321 164 z "},"h":{"ha":833,"x_min":129,"x_max":726,"o":"m 129 0 l 129 986 l 269 986 l 269 578 l 256 583 q 303 681 269 643 q 383 738 336 719 q 488 756 431 756 q 619 720 565 756 q 699 622 672 685 q 726 476 726 558 l 726 0 l 586 0 l 586 440 q 551 587 586 540 q 446 633 515 633 q 318 583 367 633 q 269 436 269 533 l 269 0 l 129 0 z "},"ħ":{"ha":833,"x_min":46,"x_max":726,"o":"m 129 0 l 129 986 l 269 986 l 269 578 l 256 583 q 303 681 269 643 q 383 738 336 719 q 488 756 431 756 q 619 720 565 756 q 699 622 672 685 q 726 476 726 558 l 726 0 l 586 0 l 586 440 q 551 587 586 540 q 446 633 515 633 q 318 583 367 633 q 269 436 269 533 l 269 0 l 129 0 m 46 806 l 46 910 l 479 910 l 479 806 l 46 806 z "},"ĥ":{"ha":833,"x_min":0,"x_max":726,"o":"m 129 0 l 129 986 l 269 986 l 269 578 l 256 583 q 303 681 269 643 q 383 738 336 719 q 488 756 431 756 q 619 720 565 756 q 699 622 672 685 q 726 476 726 558 l 726 0 l 586 0 l 586 440 q 551 587 586 540 q 446 633 515 633 q 318 583 367 633 q 269 436 269 533 l 269 0 l 129 0 m 0 1075 l 131 1268 l 275 1268 l 406 1075 l 294 1075 l 190 1215 l 215 1215 l 111 1075 l 0 1075 z "},"i":{"ha":833,"x_min":106,"x_max":783,"o":"m 394 0 l 394 739 l 536 739 l 536 0 l 394 0 m 106 0 l 106 118 l 783 118 l 783 0 l 106 0 m 119 621 l 119 739 l 524 739 l 524 621 l 119 621 m 386 846 l 386 992 l 531 992 l 531 846 l 386 846 z "},"ı":{"ha":833,"x_min":106,"x_max":783,"o":"m 394 0 l 394 739 l 536 739 l 536 0 l 394 0 m 106 0 l 106 118 l 783 118 l 783 0 l 106 0 m 119 621 l 119 739 l 524 739 l 524 621 l 119 621 z "},"í":{"ha":833,"x_min":106,"x_max":783,"o":"m 394 0 l 394 739 l 536 739 l 536 0 l 394 0 m 106 0 l 106 118 l 783 118 l 783 0 l 106 0 m 119 621 l 119 739 l 524 739 l 524 621 l 119 621 m 396 831 l 486 1017 l 640 1017 l 515 831 l 396 831 z "},"î":{"ha":833,"x_min":106,"x_max":783,"o":"m 394 0 l 394 739 l 536 739 l 536 0 l 394 0 m 106 0 l 106 118 l 783 118 l 783 0 l 106 0 m 119 621 l 119 739 l 524 739 l 524 621 l 119 621 m 256 828 l 386 1021 l 531 1021 l 661 828 l 550 828 l 446 968 l 471 968 l 367 828 l 256 828 z "},"ï":{"ha":833,"x_min":106,"x_max":783,"o":"m 394 0 l 394 739 l 536 739 l 536 0 l 394 0 m 106 0 l 106 118 l 783 118 l 783 0 l 106 0 m 119 621 l 119 739 l 524 739 l 524 621 l 119 621 m 251 844 l 251 990 l 396 990 l 396 844 l 251 844 m 524 844 l 524 990 l 668 990 l 668 844 l 524 844 z "},"ì":{"ha":833,"x_min":106,"x_max":783,"o":"m 394 0 l 394 739 l 536 739 l 536 0 l 394 0 m 106 0 l 106 118 l 783 118 l 783 0 l 106 0 m 119 621 l 119 739 l 524 739 l 524 621 l 119 621 m 407 831 l 282 1017 l 436 1017 l 526 831 l 407 831 z "},"ī":{"ha":833,"x_min":106,"x_max":783,"o":"m 394 0 l 394 739 l 536 739 l 536 0 l 394 0 m 106 0 l 106 118 l 783 118 l 783 0 l 106 0 m 119 621 l 119 739 l 524 739 l 524 621 l 119 621 m 268 861 l 268 974 l 649 974 l 649 861 l 268 861 z "},"į":{"ha":833,"x_min":106,"x_max":831,"o":"m 394 0 l 394 739 l 536 739 l 536 0 l 394 0 m 106 0 l 106 118 l 783 118 l 783 0 l 106 0 m 119 621 l 119 739 l 524 739 l 524 621 l 119 621 m 386 846 l 386 992 l 531 992 l 531 846 l 386 846 m 701 -294 q 606 -263 640 -294 q 571 -181 571 -232 q 585 -110 571 -143 q 628 -40 599 -76 l 674 17 l 783 0 l 736 -61 q 702 -115 711 -94 q 693 -151 693 -135 q 704 -181 693 -171 q 733 -190 715 -190 q 767 -185 750 -190 q 797 -171 785 -181 l 831 -257 q 779 -284 814 -274 q 701 -294 744 -294 z "},"ĩ":{"ha":833,"x_min":106,"x_max":783,"o":"m 394 0 l 394 739 l 536 739 l 536 0 l 394 0 m 106 0 l 106 118 l 783 118 l 783 0 l 106 0 m 119 621 l 119 739 l 524 739 l 524 621 l 119 621 m 543 843 q 492 855 515 843 q 444 885 468 867 q 408 910 422 903 q 375 918 394 918 q 335 900 351 918 q 317 833 319 882 l 238 833 q 277 963 240 921 q 372 1006 314 1006 q 431 994 407 1006 q 481 963 456 982 q 517 938 501 944 q 547 931 532 931 q 585 950 572 931 q 603 1019 599 969 l 682 1019 q 642 888 679 933 q 543 843 606 843 z "},"j":{"ha":833,"x_min":147,"x_max":625,"o":"m 147 -208 l 147 -90 l 372 -90 q 456 -65 429 -90 q 483 26 483 -40 l 483 739 l 625 739 l 625 18 q 567 -150 625 -92 q 388 -208 510 -208 l 147 -208 m 158 621 l 158 739 l 560 739 l 560 621 l 158 621 m 479 846 l 479 992 l 624 992 l 624 846 l 479 846 z "},"ȷ":{"ha":833,"x_min":147,"x_max":625,"o":"m 147 -208 l 147 -90 l 372 -90 q 456 -65 429 -90 q 483 26 483 -40 l 483 739 l 625 739 l 625 18 q 567 -150 625 -92 q 388 -208 510 -208 l 147 -208 m 158 621 l 158 739 l 560 739 l 560 621 l 158 621 z "},"ĵ":{"ha":833,"x_min":147,"x_max":754,"o":"m 147 -208 l 147 -90 l 372 -90 q 456 -65 429 -90 q 483 26 483 -40 l 483 739 l 625 739 l 625 18 q 567 -150 625 -92 q 388 -208 510 -208 l 147 -208 m 158 621 l 158 739 l 560 739 l 560 621 l 158 621 m 349 828 l 479 1021 l 624 1021 l 754 828 l 643 828 l 539 968 l 564 968 l 460 828 l 349 828 z "},"k":{"ha":833,"x_min":111,"x_max":776,"o":"m 111 0 l 111 986 l 251 986 l 251 367 l 585 739 l 764 739 l 475 425 l 776 0 l 611 0 l 382 331 l 251 193 l 251 0 l 111 0 z "},"ǩ":{"ha":833,"x_min":-18,"x_max":776,"o":"m 111 0 l 111 986 l 251 986 l 251 367 l 585 739 l 764 739 l 475 425 l 776 0 l 611 0 l 382 331 l 251 193 l 251 0 l 111 0 m -18 1268 l 93 1268 l 197 1128 l 172 1128 l 276 1268 l 388 1268 l 257 1075 l 113 1075 l -18 1268 z "},"ķ":{"ha":833,"x_min":111,"x_max":776,"o":"m 111 0 l 111 986 l 251 986 l 251 367 l 585 739 l 764 739 l 475 425 l 776 0 l 611 0 l 382 331 l 251 193 l 251 0 l 111 0 m 324 -339 l 401 -208 l 350 -208 l 350 -72 l 503 -72 l 503 -200 l 410 -339 l 324 -339 z "},"l":{"ha":833,"x_min":78,"x_max":756,"o":"m 367 0 l 367 776 q 342 844 367 819 q 275 868 318 868 l 106 868 l 106 986 l 290 986 q 452 931 397 986 q 507 769 507 876 l 507 0 l 367 0 m 78 0 l 78 118 l 756 118 l 756 0 l 78 0 z "},"ĺ":{"ha":833,"x_min":78,"x_max":756,"o":"m 367 0 l 367 776 q 342 844 367 819 q 275 868 318 868 l 106 868 l 106 986 l 290 986 q 452 931 397 986 q 507 769 507 876 l 507 0 l 367 0 m 78 0 l 78 118 l 756 118 l 756 0 l 78 0 m 326 1078 l 417 1264 l 571 1264 l 446 1078 l 326 1078 z "},"ľ":{"ha":833,"x_min":78,"x_max":758,"o":"m 367 0 l 367 776 q 342 844 367 819 q 275 868 318 868 l 106 868 l 106 986 l 290 986 q 452 931 397 986 q 507 769 507 876 l 507 0 l 367 0 m 78 0 l 78 118 l 756 118 l 756 0 l 78 0 m 582 618 l 624 986 l 758 986 l 682 618 l 582 618 z "},"ļ":{"ha":833,"x_min":78,"x_max":756,"o":"m 367 0 l 367 776 q 342 844 367 819 q 275 868 318 868 l 106 868 l 106 986 l 290 986 q 452 931 397 986 q 507 769 507 876 l 507 0 l 367 0 m 78 0 l 78 118 l 756 118 l 756 0 l 78 0 m 333 -339 l 411 -208 l 360 -208 l 360 -72 l 513 -72 l 513 -200 l 419 -339 l 333 -339 z "},"ł":{"ha":833,"x_min":78,"x_max":756,"o":"m 367 0 l 367 776 q 342 844 367 819 q 275 868 318 868 l 106 868 l 106 986 l 290 986 q 452 931 397 986 q 507 769 507 876 l 507 0 l 367 0 m 78 0 l 78 118 l 756 118 l 756 0 l 78 0 m 219 404 l 219 511 l 664 678 l 664 571 l 219 404 z "},"m":{"ha":833,"x_min":50,"x_max":783,"o":"m 50 0 l 50 739 l 172 739 l 178 572 l 163 576 q 217 708 176 661 q 321 756 258 756 q 422 708 388 756 q 464 568 456 661 l 449 568 q 506 706 461 657 q 617 756 550 756 q 744 695 704 756 q 783 499 783 635 l 783 0 l 647 0 l 647 475 q 628 599 647 564 q 571 633 610 633 q 526 617 546 633 q 494 565 506 600 q 483 472 483 529 l 483 0 l 350 0 l 350 475 q 333 597 350 561 q 275 633 315 633 q 229 617 249 633 q 198 565 210 600 q 186 472 186 529 l 186 0 l 50 0 z "},"n":{"ha":833,"x_min":111,"x_max":722,"o":"m 111 0 l 111 739 l 240 739 l 244 546 l 229 557 q 278 669 243 625 q 365 734 314 713 q 475 756 417 756 q 613 719 558 756 q 694 619 667 682 q 722 476 722 556 l 722 0 l 582 0 l 582 440 q 545 585 582 536 q 435 633 508 633 q 342 611 383 633 q 276 545 301 589 q 251 438 251 501 l 251 0 l 111 0 z "},"ń":{"ha":833,"x_min":111,"x_max":722,"o":"m 111 0 l 111 739 l 240 739 l 244 546 l 229 557 q 278 669 243 625 q 365 734 314 713 q 475 756 417 756 q 613 719 558 756 q 694 619 667 682 q 722 476 722 556 l 722 0 l 582 0 l 582 440 q 545 585 582 536 q 435 633 508 633 q 342 611 383 633 q 276 545 301 589 q 251 438 251 501 l 251 0 l 111 0 m 353 831 l 443 1017 l 597 1017 l 472 831 l 353 831 z "},"ň":{"ha":833,"x_min":111,"x_max":722,"o":"m 111 0 l 111 739 l 240 739 l 244 546 l 229 557 q 278 669 243 625 q 365 734 314 713 q 475 756 417 756 q 613 719 558 756 q 694 619 667 682 q 722 476 722 556 l 722 0 l 582 0 l 582 440 q 545 585 582 536 q 435 633 508 633 q 342 611 383 633 q 276 545 301 589 q 251 438 251 501 l 251 0 l 111 0 m 213 1021 l 324 1021 l 428 881 l 403 881 l 507 1021 l 618 1021 l 488 828 l 343 828 l 213 1021 z "},"ņ":{"ha":833,"x_min":111,"x_max":722,"o":"m 111 0 l 111 739 l 240 739 l 244 546 l 229 557 q 278 669 243 625 q 365 734 314 713 q 475 756 417 756 q 613 719 558 756 q 694 619 667 682 q 722 476 722 556 l 722 0 l 582 0 l 582 440 q 545 585 582 536 q 435 633 508 633 q 342 611 383 633 q 276 545 301 589 q 251 438 251 501 l 251 0 l 111 0 m 313 -339 l 390 -208 l 339 -208 l 339 -72 l 492 -72 l 492 -200 l 399 -339 l 313 -339 z "},"ñ":{"ha":833,"x_min":111,"x_max":722,"o":"m 111 0 l 111 739 l 240 739 l 244 546 l 229 557 q 278 669 243 625 q 365 734 314 713 q 475 756 417 756 q 613 719 558 756 q 694 619 667 682 q 722 476 722 556 l 722 0 l 582 0 l 582 440 q 545 585 582 536 q 435 633 508 633 q 342 611 383 633 q 276 545 301 589 q 251 438 251 501 l 251 0 l 111 0 m 499 843 q 447 855 471 843 q 400 885 424 867 q 364 910 378 903 q 331 918 350 918 q 291 900 307 918 q 272 833 275 882 l 193 833 q 233 963 196 921 q 328 1006 269 1006 q 387 994 363 1006 q 436 963 411 982 q 472 938 457 944 q 503 931 488 931 q 541 950 528 931 q 558 1019 554 969 l 638 1019 q 598 888 635 933 q 499 843 561 843 z "},"ŋ":{"ha":833,"x_min":111,"x_max":722,"o":"m 394 -208 l 394 -90 l 501 -90 q 560 -67 539 -90 q 582 -6 582 -44 l 582 132 l 722 132 l 722 -8 q 666 -153 722 -99 q 514 -208 610 -208 l 394 -208 m 111 0 l 111 739 l 240 739 l 244 546 l 229 557 q 278 669 243 625 q 365 734 314 713 q 475 756 417 756 q 613 719 558 756 q 694 619 667 682 q 722 476 722 556 l 722 0 l 582 0 l 582 440 q 545 585 582 536 q 435 633 508 633 q 342 611 383 633 q 276 545 301 589 q 251 438 251 501 l 251 0 l 111 0 z "},"o":{"ha":833,"x_min":75,"x_max":758,"o":"m 417 -17 q 237 31 314 -17 q 117 165 160 78 q 75 369 75 253 q 117 574 75 488 q 237 708 160 661 q 417 756 314 756 q 597 708 519 756 q 716 574 674 661 q 758 369 758 488 q 716 165 758 253 q 597 31 674 78 q 417 -17 519 -17 m 417 113 q 560 181 510 113 q 611 369 611 249 q 560 558 611 490 q 417 626 510 626 q 273 558 324 626 q 222 369 222 490 q 273 181 222 249 q 417 113 324 113 z "},"ó":{"ha":833,"x_min":75,"x_max":758,"o":"m 417 -17 q 237 31 314 -17 q 117 165 160 78 q 75 369 75 253 q 117 574 75 488 q 237 708 160 661 q 417 756 314 756 q 597 708 519 756 q 716 574 674 661 q 758 369 758 488 q 716 165 758 253 q 597 31 674 78 q 417 -17 519 -17 m 417 113 q 560 181 510 113 q 611 369 611 249 q 560 558 611 490 q 417 626 510 626 q 273 558 324 626 q 222 369 222 490 q 273 181 222 249 q 417 113 324 113 m 354 831 l 444 1017 l 599 1017 l 474 831 l 354 831 z "},"ô":{"ha":833,"x_min":75,"x_max":758,"o":"m 417 -17 q 237 31 314 -17 q 117 165 160 78 q 75 369 75 253 q 117 574 75 488 q 237 708 160 661 q 417 756 314 756 q 597 708 519 756 q 716 574 674 661 q 758 369 758 488 q 716 165 758 253 q 597 31 674 78 q 417 -17 519 -17 m 417 113 q 560 181 510 113 q 611 369 611 249 q 560 558 611 490 q 417 626 510 626 q 273 558 324 626 q 222 369 222 490 q 273 181 222 249 q 417 113 324 113 m 213 828 l 343 1021 l 488 1021 l 618 828 l 507 828 l 403 968 l 428 968 l 324 828 l 213 828 z "},"ö":{"ha":833,"x_min":75,"x_max":758,"o":"m 417 -17 q 237 31 314 -17 q 117 165 160 78 q 75 369 75 253 q 117 574 75 488 q 237 708 160 661 q 417 756 314 756 q 597 708 519 756 q 716 574 674 661 q 758 369 758 488 q 716 165 758 253 q 597 31 674 78 q 417 -17 519 -17 m 417 113 q 560 181 510 113 q 611 369 611 249 q 560 558 611 490 q 417 626 510 626 q 273 558 324 626 q 222 369 222 490 q 273 181 222 249 q 417 113 324 113 m 208 844 l 208 990 l 353 990 l 353 844 l 208 844 m 481 844 l 481 990 l 625 990 l 625 844 l 481 844 z "},"ò":{"ha":833,"x_min":75,"x_max":758,"o":"m 417 -17 q 237 31 314 -17 q 117 165 160 78 q 75 369 75 253 q 117 574 75 488 q 237 708 160 661 q 417 756 314 756 q 597 708 519 756 q 716 574 674 661 q 758 369 758 488 q 716 165 758 253 q 597 31 674 78 q 417 -17 519 -17 m 417 113 q 560 181 510 113 q 611 369 611 249 q 560 558 611 490 q 417 626 510 626 q 273 558 324 626 q 222 369 222 490 q 273 181 222 249 q 417 113 324 113 m 364 831 l 239 1017 l 393 1017 l 483 831 l 364 831 z "},"ő":{"ha":833,"x_min":75,"x_max":758,"o":"m 417 -17 q 237 31 314 -17 q 117 165 160 78 q 75 369 75 253 q 117 574 75 488 q 237 708 160 661 q 417 756 314 756 q 597 708 519 756 q 716 574 674 661 q 758 369 758 488 q 716 165 758 253 q 597 31 674 78 q 417 -17 519 -17 m 417 113 q 560 181 510 113 q 611 369 611 249 q 560 558 611 490 q 417 626 510 626 q 273 558 324 626 q 222 369 222 490 q 273 181 222 249 q 417 113 324 113 m 244 828 l 335 1014 l 489 1014 l 364 828 l 244 828 m 456 828 l 546 1014 l 700 1014 l 575 828 l 456 828 z "},"ō":{"ha":833,"x_min":75,"x_max":758,"o":"m 417 -17 q 237 31 314 -17 q 117 165 160 78 q 75 369 75 253 q 117 574 75 488 q 237 708 160 661 q 417 756 314 756 q 597 708 519 756 q 716 574 674 661 q 758 369 758 488 q 716 165 758 253 q 597 31 674 78 q 417 -17 519 -17 m 417 113 q 560 181 510 113 q 611 369 611 249 q 560 558 611 490 q 417 626 510 626 q 273 558 324 626 q 222 369 222 490 q 273 181 222 249 q 417 113 324 113 m 225 861 l 225 974 l 606 974 l 606 861 l 225 861 z "},"ø":{"ha":833,"x_min":75,"x_max":758,"o":"m 417 -17 q 237 31 314 -17 q 117 165 160 78 q 75 369 75 253 q 117 574 75 488 q 237 708 160 661 q 417 756 314 756 q 597 708 519 756 q 716 574 674 661 q 758 369 758 488 q 716 165 758 253 q 597 31 674 78 q 417 -17 519 -17 m 417 113 q 560 181 510 113 q 611 369 611 249 q 560 558 611 490 q 417 626 510 626 q 273 558 324 626 q 222 369 222 490 q 273 181 222 249 q 417 113 324 113 m 106 -19 l 617 758 l 728 758 l 217 -19 l 106 -19 z "},"õ":{"ha":833,"x_min":75,"x_max":758,"o":"m 417 -17 q 237 31 314 -17 q 117 165 160 78 q 75 369 75 253 q 117 574 75 488 q 237 708 160 661 q 417 756 314 756 q 597 708 519 756 q 716 574 674 661 q 758 369 758 488 q 716 165 758 253 q 597 31 674 78 q 417 -17 519 -17 m 417 113 q 560 181 510 113 q 611 369 611 249 q 560 558 611 490 q 417 626 510 626 q 273 558 324 626 q 222 369 222 490 q 273 181 222 249 q 417 113 324 113 m 500 843 q 449 855 472 843 q 401 885 425 867 q 365 910 379 903 q 332 918 351 918 q 292 900 308 918 q 274 833 276 882 l 194 833 q 234 963 197 921 q 329 1006 271 1006 q 388 994 364 1006 q 438 963 413 982 q 474 938 458 944 q 504 931 489 931 q 542 950 529 931 q 560 1019 556 969 l 639 1019 q 599 888 636 933 q 500 843 563 843 z "},"œ":{"ha":833,"x_min":14,"x_max":821,"o":"m 590 -17 q 413 88 476 -17 q 350 369 350 193 q 413 652 350 549 q 590 756 476 756 q 715 714 663 756 q 794 590 767 672 q 821 386 821 508 l 821 326 l 483 326 q 515 167 488 222 q 589 113 543 113 q 645 138 625 113 q 678 225 665 163 l 813 214 q 735 37 788 90 q 590 -17 683 -17 m 247 -17 q 76 85 138 -17 q 14 369 14 186 q 76 654 14 553 q 247 756 138 756 q 369 709 317 756 q 451 576 422 663 q 481 369 481 489 q 451 169 481 257 q 369 33 422 82 q 247 -17 317 -17 m 249 113 q 301 141 279 113 q 333 227 322 169 q 344 369 344 285 q 333 512 344 454 q 301 599 322 569 q 249 628 279 628 q 197 598 218 628 q 163 511 175 568 q 151 369 151 454 q 163 228 151 285 q 197 142 175 171 q 249 113 218 113 m 485 438 l 682 438 q 651 581 676 535 q 583 628 625 628 q 517 581 542 628 q 485 438 493 535 z "},"p":{"ha":833,"x_min":100,"x_max":769,"o":"m 100 -208 l 100 739 l 233 739 l 236 571 l 219 579 q 310 710 247 665 q 460 756 374 756 q 635 702 567 756 q 736 561 703 649 q 769 369 769 474 q 736 178 769 265 q 635 37 703 90 q 460 -17 567 -17 q 354 2 403 -17 q 272 56 306 21 q 222 142 238 92 l 240 161 l 240 -208 l 100 -208 m 433 113 q 572 179 522 113 q 622 369 622 246 q 572 560 622 493 q 433 626 522 626 q 332 598 375 626 q 265 513 289 569 q 240 369 240 456 q 264 226 240 283 q 331 141 288 169 q 433 113 375 113 z "},"þ":{"ha":833,"x_min":101,"x_max":771,"o":"m 101 -208 l 101 986 l 244 986 l 244 639 q 296 700 264 674 q 370 741 328 726 q 464 756 413 756 q 640 701 572 756 q 739 560 707 647 q 771 369 771 472 q 738 178 771 265 q 639 37 706 90 q 467 -17 572 -17 q 333 14 390 -17 q 244 99 276 44 l 244 -208 l 101 -208 m 431 113 q 542 148 499 113 q 604 242 585 183 q 624 369 624 300 q 604 501 624 442 q 542 595 585 560 q 431 631 499 631 q 318 594 361 631 q 254 498 275 557 q 233 369 233 439 q 254 242 233 301 q 319 148 275 183 q 431 113 363 113 z "},"q":{"ha":833,"x_min":64,"x_max":733,"o":"m 733 -208 l 593 -208 l 593 161 l 611 142 q 562 56 596 92 q 479 2 528 21 q 374 -17 431 -17 q 199 37 268 -17 q 97 178 131 90 q 64 369 64 265 q 97 561 64 474 q 199 702 131 649 q 374 756 268 756 q 524 710 461 756 q 614 579 588 665 l 597 571 l 600 739 l 733 739 l 733 -208 m 400 113 q 503 141 460 113 q 569 226 546 169 q 593 369 593 283 q 569 513 593 456 q 501 598 544 569 q 400 626 458 626 q 261 560 311 626 q 211 369 211 493 q 261 179 211 246 q 400 113 311 113 z "},"r":{"ha":833,"x_min":117,"x_max":758,"o":"m 304 0 l 304 739 l 415 739 l 428 550 l 415 551 q 475 693 429 647 q 601 739 521 739 l 758 739 l 758 617 l 607 617 q 518 597 554 617 q 463 537 482 576 q 444 439 444 497 l 444 0 l 304 0 m 117 0 l 117 118 l 675 118 l 675 0 l 117 0 m 117 621 l 117 739 l 383 739 l 383 621 l 117 621 z "},"ŕ":{"ha":833,"x_min":117,"x_max":758,"o":"m 304 0 l 304 739 l 415 739 l 428 550 l 415 551 q 475 693 429 647 q 601 739 521 739 l 758 739 l 758 617 l 607 617 q 518 597 554 617 q 463 537 482 576 q 444 439 444 497 l 444 0 l 304 0 m 117 0 l 117 118 l 675 118 l 675 0 l 117 0 m 117 621 l 117 739 l 383 739 l 383 621 l 117 621 m 408 831 l 499 1017 l 653 1017 l 528 831 l 408 831 z "},"ř":{"ha":833,"x_min":117,"x_max":758,"o":"m 304 0 l 304 739 l 415 739 l 428 550 l 415 551 q 475 693 429 647 q 601 739 521 739 l 758 739 l 758 617 l 607 617 q 518 597 554 617 q 463 537 482 576 q 444 439 444 497 l 444 0 l 304 0 m 117 0 l 117 118 l 675 118 l 675 0 l 117 0 m 117 621 l 117 739 l 383 739 l 383 621 l 117 621 m 268 1021 l 379 1021 l 483 881 l 458 881 l 563 1021 l 674 1021 l 543 828 l 399 828 l 268 1021 z "},"ŗ":{"ha":833,"x_min":117,"x_max":758,"o":"m 304 0 l 304 739 l 415 739 l 428 550 l 415 551 q 475 693 429 647 q 601 739 521 739 l 758 739 l 758 617 l 607 617 q 518 597 554 617 q 463 537 482 576 q 444 439 444 497 l 444 0 l 304 0 m 117 0 l 117 118 l 675 118 l 675 0 l 117 0 m 117 621 l 117 739 l 383 739 l 383 621 l 117 621 m 272 -339 l 350 -208 l 299 -208 l 299 -72 l 451 -72 l 451 -200 l 358 -339 l 272 -339 z "},"s":{"ha":833,"x_min":104,"x_max":729,"o":"m 428 -17 q 258 17 329 -17 q 149 106 188 50 q 104 232 110 163 l 247 240 q 303 145 258 181 q 429 110 347 110 q 546 131 506 110 q 586 196 586 151 q 572 242 586 224 q 520 274 558 261 q 408 301 482 288 q 237 351 299 322 q 149 423 175 379 q 122 529 122 467 q 155 644 122 593 q 251 726 188 696 q 410 756 315 756 q 572 722 508 756 q 672 633 636 688 q 718 515 708 579 l 575 507 q 546 570 567 543 q 490 613 525 597 q 410 629 456 629 q 301 600 336 629 q 267 529 267 571 q 283 476 267 496 q 339 442 300 456 q 444 417 378 429 q 618 370 557 399 q 704 300 679 342 q 729 197 729 258 q 691 83 729 131 q 585 9 653 35 q 428 -17 518 -17 z "},"ś":{"ha":833,"x_min":104,"x_max":729,"o":"m 428 -17 q 258 17 329 -17 q 149 106 188 50 q 104 232 110 163 l 247 240 q 303 145 258 181 q 429 110 347 110 q 546 131 506 110 q 586 196 586 151 q 572 242 586 224 q 520 274 558 261 q 408 301 482 288 q 237 351 299 322 q 149 423 175 379 q 122 529 122 467 q 155 644 122 593 q 251 726 188 696 q 410 756 315 756 q 572 722 508 756 q 672 633 636 688 q 718 515 708 579 l 575 507 q 546 570 567 543 q 490 613 525 597 q 410 629 456 629 q 301 600 336 629 q 267 529 267 571 q 283 476 267 496 q 339 442 300 456 q 444 417 378 429 q 618 370 557 399 q 704 300 679 342 q 729 197 729 258 q 691 83 729 131 q 585 9 653 35 q 428 -17 518 -17 m 357 831 l 447 1017 l 601 1017 l 476 831 l 357 831 z "},"š":{"ha":833,"x_min":104,"x_max":729,"o":"m 428 -17 q 258 17 329 -17 q 149 106 188 50 q 104 232 110 163 l 247 240 q 303 145 258 181 q 429 110 347 110 q 546 131 506 110 q 586 196 586 151 q 572 242 586 224 q 520 274 558 261 q 408 301 482 288 q 237 351 299 322 q 149 423 175 379 q 122 529 122 467 q 155 644 122 593 q 251 726 188 696 q 410 756 315 756 q 572 722 508 756 q 672 633 636 688 q 718 515 708 579 l 575 507 q 546 570 567 543 q 490 613 525 597 q 410 629 456 629 q 301 600 336 629 q 267 529 267 571 q 283 476 267 496 q 339 442 300 456 q 444 417 378 429 q 618 370 557 399 q 704 300 679 342 q 729 197 729 258 q 691 83 729 131 q 585 9 653 35 q 428 -17 518 -17 m 217 1021 l 328 1021 l 432 881 l 407 881 l 511 1021 l 622 1021 l 492 828 l 347 828 l 217 1021 z "},"ş":{"ha":833,"x_min":104,"x_max":729,"o":"m 428 -17 q 258 17 329 -17 q 149 106 188 50 q 104 232 110 163 l 247 240 q 303 145 258 181 q 429 110 347 110 q 546 131 506 110 q 586 196 586 151 q 572 242 586 224 q 520 274 558 261 q 408 301 482 288 q 237 351 299 322 q 149 423 175 379 q 122 529 122 467 q 155 644 122 593 q 251 726 188 696 q 410 756 315 756 q 572 722 508 756 q 672 633 636 688 q 718 515 708 579 l 575 507 q 546 570 567 543 q 490 613 525 597 q 410 629 456 629 q 301 600 336 629 q 267 529 267 571 q 283 476 267 496 q 339 442 300 456 q 444 417 378 429 q 618 370 557 399 q 704 300 679 342 q 729 197 729 258 q 691 83 729 131 q 585 9 653 35 q 428 -17 518 -17 m 408 -311 q 299 -280 340 -311 q 240 -200 257 -249 l 318 -169 q 351 -212 331 -199 q 406 -225 371 -225 q 459 -211 440 -225 q 478 -172 478 -197 q 459 -129 478 -146 q 376 -112 440 -112 l 332 -67 l 382 14 l 482 14 l 438 -47 q 538 -87 506 -51 q 571 -175 571 -122 q 549 -248 571 -218 q 492 -294 528 -278 q 408 -311 456 -311 z "},"ŝ":{"ha":833,"x_min":104,"x_max":729,"o":"m 428 -17 q 258 17 329 -17 q 149 106 188 50 q 104 232 110 163 l 247 240 q 303 145 258 181 q 429 110 347 110 q 546 131 506 110 q 586 196 586 151 q 572 242 586 224 q 520 274 558 261 q 408 301 482 288 q 237 351 299 322 q 149 423 175 379 q 122 529 122 467 q 155 644 122 593 q 251 726 188 696 q 410 756 315 756 q 572 722 508 756 q 672 633 636 688 q 718 515 708 579 l 575 507 q 546 570 567 543 q 490 613 525 597 q 410 629 456 629 q 301 600 336 629 q 267 529 267 571 q 283 476 267 496 q 339 442 300 456 q 444 417 378 429 q 618 370 557 399 q 704 300 679 342 q 729 197 729 258 q 691 83 729 131 q 585 9 653 35 q 428 -17 518 -17 m 215 828 l 346 1021 l 490 1021 l 621 828 l 510 828 l 406 968 l 431 968 l 326 828 l 215 828 z "},"ș":{"ha":833,"x_min":104,"x_max":729,"o":"m 428 -17 q 258 17 329 -17 q 149 106 188 50 q 104 232 110 163 l 247 240 q 303 145 258 181 q 429 110 347 110 q 546 131 506 110 q 586 196 586 151 q 572 242 586 224 q 520 274 558 261 q 408 301 482 288 q 237 351 299 322 q 149 423 175 379 q 122 529 122 467 q 155 644 122 593 q 251 726 188 696 q 410 756 315 756 q 572 722 508 756 q 672 633 636 688 q 718 515 708 579 l 575 507 q 546 570 567 543 q 490 613 525 597 q 410 629 456 629 q 301 600 336 629 q 267 529 267 571 q 283 476 267 496 q 339 442 300 456 q 444 417 378 429 q 618 370 557 399 q 704 300 679 342 q 729 197 729 258 q 691 83 729 131 q 585 9 653 35 q 428 -17 518 -17 m 317 -339 l 394 -208 l 343 -208 l 343 -72 l 496 -72 l 496 -200 l 403 -339 l 317 -339 z "},"ß":{"ha":833,"x_min":97,"x_max":767,"o":"m 97 0 l 97 679 q 135 850 97 778 q 244 961 174 922 q 411 1000 315 1000 q 631 929 553 1000 q 708 740 708 858 q 649 587 708 647 q 489 518 589 526 l 488 542 q 634 503 571 538 q 732 411 697 469 q 767 278 767 353 q 675 74 767 149 q 415 0 583 0 l 326 0 l 326 132 l 415 132 q 568 171 514 132 q 622 290 622 210 q 597 381 622 344 q 524 437 572 418 q 403 456 475 456 l 340 456 l 340 586 l 400 586 q 521 625 478 586 q 564 732 564 664 q 526 830 564 793 q 408 867 488 867 q 284 818 331 867 q 238 682 238 769 l 238 0 l 97 0 z "},"t":{"ha":833,"x_min":67,"x_max":728,"o":"m 522 0 q 355 52 410 0 q 300 213 300 104 l 300 913 l 440 913 l 440 219 q 465 143 440 168 q 538 118 489 118 l 728 118 l 728 0 l 522 0 m 67 621 l 67 739 l 728 739 l 728 621 l 67 621 z "},"ŧ":{"ha":833,"x_min":67,"x_max":728,"o":"m 522 0 q 355 52 410 0 q 300 213 300 104 l 300 913 l 440 913 l 440 219 q 465 143 440 168 q 538 118 489 118 l 728 118 l 728 0 l 522 0 m 67 621 l 67 739 l 728 739 l 728 621 l 67 621 m 140 347 l 140 451 l 661 451 l 661 347 l 140 347 z "},"ť":{"ha":833,"x_min":67,"x_max":728,"o":"m 526 794 l 568 1147 l 701 1147 l 626 794 l 526 794 m 522 0 q 355 52 410 0 q 300 213 300 104 l 300 913 l 440 913 l 440 219 q 465 143 440 168 q 538 118 489 118 l 728 118 l 728 0 l 522 0 m 67 621 l 67 739 l 728 739 l 728 621 l 67 621 z "},"ţ":{"ha":833,"x_min":67,"x_max":728,"o":"m 522 0 q 355 52 410 0 q 300 213 300 104 l 300 913 l 440 913 l 440 219 q 465 143 440 168 q 538 118 489 118 l 728 118 l 728 0 l 522 0 m 67 621 l 67 739 l 728 739 l 728 621 l 67 621 m 483 -311 q 374 -280 415 -311 q 315 -200 332 -249 l 393 -169 q 426 -212 406 -199 q 481 -225 446 -225 q 534 -211 515 -225 q 553 -172 553 -197 q 534 -129 553 -146 q 451 -112 515 -112 l 407 -67 l 457 14 l 557 14 l 513 -47 q 613 -87 581 -51 q 646 -175 646 -122 q 624 -248 646 -218 q 567 -294 603 -278 q 483 -311 531 -311 z "},"ț":{"ha":833,"x_min":67,"x_max":728,"o":"m 522 0 q 355 52 410 0 q 300 213 300 104 l 300 913 l 440 913 l 440 219 q 465 143 440 168 q 538 118 489 118 l 728 118 l 728 0 l 522 0 m 67 621 l 67 739 l 728 739 l 728 621 l 67 621 m 392 -339 l 469 -208 l 418 -208 l 418 -72 l 571 -72 l 571 -200 l 478 -339 l 392 -339 z "},"u":{"ha":833,"x_min":118,"x_max":708,"o":"m 353 -17 q 182 56 246 -17 q 118 261 118 129 l 118 739 l 258 739 l 258 297 q 293 151 258 197 q 399 106 328 106 q 522 157 475 106 q 568 303 568 208 l 568 739 l 708 739 l 708 0 l 576 0 l 575 193 l 594 185 q 513 36 575 89 q 353 -17 450 -17 z "},"ú":{"ha":833,"x_min":118,"x_max":708,"o":"m 353 -17 q 182 56 246 -17 q 118 261 118 129 l 118 739 l 258 739 l 258 297 q 293 151 258 197 q 399 106 328 106 q 522 157 475 106 q 568 303 568 208 l 568 739 l 708 739 l 708 0 l 576 0 l 575 193 l 594 185 q 513 36 575 89 q 353 -17 450 -17 m 344 831 l 435 1017 l 589 1017 l 464 831 l 344 831 z "},"ŭ":{"ha":833,"x_min":118,"x_max":708,"o":"m 353 -17 q 182 56 246 -17 q 118 261 118 129 l 118 739 l 258 739 l 258 297 q 293 151 258 197 q 399 106 328 106 q 522 157 475 106 q 568 303 568 208 l 568 739 l 708 739 l 708 0 l 576 0 l 575 193 l 594 185 q 513 36 575 89 q 353 -17 450 -17 m 408 832 q 267 883 321 832 q 208 1019 213 935 l 300 1019 q 335 949 307 971 q 408 928 364 928 q 483 949 454 928 q 517 1019 511 971 l 608 1019 q 550 883 604 935 q 408 832 496 832 z "},"û":{"ha":833,"x_min":118,"x_max":708,"o":"m 353 -17 q 182 56 246 -17 q 118 261 118 129 l 118 739 l 258 739 l 258 297 q 293 151 258 197 q 399 106 328 106 q 522 157 475 106 q 568 303 568 208 l 568 739 l 708 739 l 708 0 l 576 0 l 575 193 l 594 185 q 513 36 575 89 q 353 -17 450 -17 m 204 828 l 335 1021 l 479 1021 l 610 828 l 499 828 l 394 968 l 419 968 l 315 828 l 204 828 z "},"ü":{"ha":833,"x_min":118,"x_max":708,"o":"m 353 -17 q 182 56 246 -17 q 118 261 118 129 l 118 739 l 258 739 l 258 297 q 293 151 258 197 q 399 106 328 106 q 522 157 475 106 q 568 303 568 208 l 568 739 l 708 739 l 708 0 l 576 0 l 575 193 l 594 185 q 513 36 575 89 q 353 -17 450 -17 m 200 844 l 200 990 l 344 990 l 344 844 l 200 844 m 472 844 l 472 990 l 617 990 l 617 844 l 472 844 z "},"ù":{"ha":833,"x_min":118,"x_max":708,"o":"m 353 -17 q 182 56 246 -17 q 118 261 118 129 l 118 739 l 258 739 l 258 297 q 293 151 258 197 q 399 106 328 106 q 522 157 475 106 q 568 303 568 208 l 568 739 l 708 739 l 708 0 l 576 0 l 575 193 l 594 185 q 513 36 575 89 q 353 -17 450 -17 m 356 831 l 231 1017 l 385 1017 l 475 831 l 356 831 z "},"ű":{"ha":833,"x_min":118,"x_max":708,"o":"m 353 -17 q 182 56 246 -17 q 118 261 118 129 l 118 739 l 258 739 l 258 297 q 293 151 258 197 q 399 106 328 106 q 522 157 475 106 q 568 303 568 208 l 568 739 l 708 739 l 708 0 l 576 0 l 575 193 l 594 185 q 513 36 575 89 q 353 -17 450 -17 m 236 828 l 326 1014 l 481 1014 l 356 828 l 236 828 m 447 828 l 538 1014 l 692 1014 l 567 828 l 447 828 z "},"ū":{"ha":833,"x_min":118,"x_max":708,"o":"m 353 -17 q 182 56 246 -17 q 118 261 118 129 l 118 739 l 258 739 l 258 297 q 293 151 258 197 q 399 106 328 106 q 522 157 475 106 q 568 303 568 208 l 568 739 l 708 739 l 708 0 l 576 0 l 575 193 l 594 185 q 513 36 575 89 q 353 -17 450 -17 m 217 861 l 217 974 l 597 974 l 597 861 l 217 861 z "},"ų":{"ha":833,"x_min":118,"x_max":757,"o":"m 353 -17 q 182 56 246 -17 q 118 261 118 129 l 118 739 l 258 739 l 258 297 q 293 151 258 197 q 399 106 328 106 q 522 157 475 106 q 568 303 568 208 l 568 739 l 708 739 l 708 0 l 576 0 l 575 193 l 594 185 q 513 36 575 89 q 353 -17 450 -17 m 626 -294 q 531 -263 565 -294 q 496 -181 496 -232 q 510 -110 496 -143 q 553 -40 524 -76 l 599 17 l 708 0 l 661 -61 q 627 -115 636 -94 q 618 -151 618 -135 q 629 -181 618 -171 q 658 -190 640 -190 q 692 -185 675 -190 q 722 -171 710 -181 l 756 -257 q 704 -284 739 -274 q 626 -294 669 -294 z "},"ů":{"ha":833,"x_min":118,"x_max":708,"o":"m 353 -17 q 182 56 246 -17 q 118 261 118 129 l 118 739 l 258 739 l 258 297 q 293 151 258 197 q 399 106 328 106 q 522 157 475 106 q 568 303 568 208 l 568 739 l 708 739 l 708 0 l 576 0 l 575 193 l 594 185 q 513 36 575 89 q 353 -17 450 -17 m 408 800 q 313 838 351 800 q 275 932 275 875 q 313 1026 275 988 q 408 1064 351 1064 q 503 1026 465 1064 q 542 932 542 988 q 503 838 542 875 q 408 800 465 800 m 408 874 q 449 890 433 874 q 465 932 465 907 q 449 973 465 957 q 408 989 433 989 q 367 973 383 989 q 351 932 351 957 q 367 890 351 907 q 408 874 383 874 z "},"ũ":{"ha":833,"x_min":118,"x_max":708,"o":"m 353 -17 q 182 56 246 -17 q 118 261 118 129 l 118 739 l 258 739 l 258 297 q 293 151 258 197 q 399 106 328 106 q 522 157 475 106 q 568 303 568 208 l 568 739 l 708 739 l 708 0 l 576 0 l 575 193 l 594 185 q 513 36 575 89 q 353 -17 450 -17 m 492 843 q 440 855 464 843 q 393 885 417 867 q 357 910 371 903 q 324 918 343 918 q 284 900 300 918 q 265 833 268 882 l 186 833 q 226 963 189 921 q 321 1006 263 1006 q 380 994 356 1006 q 429 963 404 982 q 465 938 450 944 q 496 931 481 931 q 534 950 521 931 q 551 1019 547 969 l 631 1019 q 591 888 628 933 q 492 843 554 843 z "},"v":{"ha":833,"x_min":63,"x_max":771,"o":"m 329 0 l 63 739 l 214 739 l 417 149 l 619 739 l 771 739 l 504 0 l 329 0 z "},"w":{"ha":833,"x_min":25,"x_max":808,"o":"m 168 0 l 25 739 l 172 739 l 260 168 l 357 635 l 476 635 l 574 168 l 661 739 l 808 739 l 667 0 l 508 0 l 417 432 l 325 0 l 168 0 z "},"ẃ":{"ha":833,"x_min":25,"x_max":808,"o":"m 168 0 l 25 739 l 172 739 l 260 168 l 357 635 l 476 635 l 574 168 l 661 739 l 808 739 l 667 0 l 508 0 l 417 432 l 325 0 l 168 0 m 354 831 l 444 1017 l 599 1017 l 474 831 l 354 831 z "},"ŵ":{"ha":833,"x_min":25,"x_max":808,"o":"m 168 0 l 25 739 l 172 739 l 260 168 l 357 635 l 476 635 l 574 168 l 661 739 l 808 739 l 667 0 l 508 0 l 417 432 l 325 0 l 168 0 m 213 828 l 343 1021 l 488 1021 l 618 828 l 507 828 l 403 968 l 428 968 l 324 828 l 213 828 z "},"ẅ":{"ha":833,"x_min":25,"x_max":808,"o":"m 168 0 l 25 739 l 172 739 l 260 168 l 357 635 l 476 635 l 574 168 l 661 739 l 808 739 l 667 0 l 508 0 l 417 432 l 325 0 l 168 0 m 208 844 l 208 990 l 353 990 l 353 844 l 208 844 m 481 844 l 481 990 l 625 990 l 625 844 l 481 844 z "},"ẁ":{"ha":833,"x_min":25,"x_max":808,"o":"m 168 0 l 25 739 l 172 739 l 260 168 l 357 635 l 476 635 l 574 168 l 661 739 l 808 739 l 667 0 l 508 0 l 417 432 l 325 0 l 168 0 m 364 831 l 239 1017 l 393 1017 l 483 831 l 364 831 z "},"x":{"ha":833,"x_min":65,"x_max":768,"o":"m 65 0 l 335 379 l 79 739 l 238 739 l 418 475 l 594 739 l 756 739 l 501 376 l 768 0 l 608 0 l 418 283 l 226 0 l 65 0 z "},"y":{"ha":833,"x_min":65,"x_max":772,"o":"m 181 -208 l 181 -90 l 271 -90 q 328 -78 310 -90 q 357 -40 347 -67 l 382 25 l 335 25 l 65 739 l 217 739 l 426 157 l 622 739 l 772 739 l 478 -83 q 409 -179 456 -150 q 285 -208 363 -208 l 181 -208 z "},"ý":{"ha":833,"x_min":65,"x_max":772,"o":"m 181 -208 l 181 -90 l 271 -90 q 328 -78 310 -90 q 357 -40 347 -67 l 382 25 l 335 25 l 65 739 l 217 739 l 426 157 l 622 739 l 772 739 l 478 -83 q 409 -179 456 -150 q 285 -208 363 -208 l 181 -208 m 358 831 l 449 1017 l 603 1017 l 478 831 l 358 831 z "},"ŷ":{"ha":833,"x_min":65,"x_max":772,"o":"m 181 -208 l 181 -90 l 271 -90 q 328 -78 310 -90 q 357 -40 347 -67 l 382 25 l 335 25 l 65 739 l 217 739 l 426 157 l 622 739 l 772 739 l 478 -83 q 409 -179 456 -150 q 285 -208 363 -208 l 181 -208 m 217 828 l 347 1021 l 492 1021 l 622 828 l 511 828 l 407 968 l 432 968 l 328 828 l 217 828 z "},"ÿ":{"ha":833,"x_min":65,"x_max":772,"o":"m 181 -208 l 181 -90 l 271 -90 q 328 -78 310 -90 q 357 -40 347 -67 l 382 25 l 335 25 l 65 739 l 217 739 l 426 157 l 622 739 l 772 739 l 478 -83 q 409 -179 456 -150 q 285 -208 363 -208 l 181 -208 m 213 844 l 213 990 l 357 990 l 357 844 l 213 844 m 485 844 l 485 990 l 629 990 l 629 844 l 485 844 z "},"ỳ":{"ha":833,"x_min":65,"x_max":772,"o":"m 181 -208 l 181 -90 l 271 -90 q 328 -78 310 -90 q 357 -40 347 -67 l 382 25 l 335 25 l 65 739 l 217 739 l 426 157 l 622 739 l 772 739 l 478 -83 q 409 -179 456 -150 q 285 -208 363 -208 l 181 -208 m 368 831 l 243 1017 l 397 1017 l 488 831 l 368 831 z "},"ỹ":{"ha":833,"x_min":65,"x_max":772,"o":"m 181 -208 l 181 -90 l 271 -90 q 328 -78 310 -90 q 357 -40 347 -67 l 382 25 l 335 25 l 65 739 l 217 739 l 426 157 l 622 739 l 772 739 l 478 -83 q 409 -179 456 -150 q 285 -208 363 -208 l 181 -208 m 504 843 q 453 855 476 843 q 406 885 429 867 q 369 910 383 903 q 336 918 356 918 q 297 900 313 918 q 278 833 281 882 l 199 833 q 238 963 201 921 q 333 1006 275 1006 q 392 994 368 1006 q 442 963 417 982 q 478 938 463 944 q 508 931 493 931 q 547 950 533 931 q 564 1019 560 969 l 643 1019 q 603 888 640 933 q 504 843 567 843 z "},"z":{"ha":833,"x_min":108,"x_max":725,"o":"m 108 0 l 108 132 l 556 621 l 122 621 l 122 739 l 714 739 l 714 607 l 265 118 l 725 118 l 725 0 l 108 0 z "},"ź":{"ha":833,"x_min":108,"x_max":725,"o":"m 108 0 l 108 132 l 556 621 l 122 621 l 122 739 l 714 739 l 714 607 l 265 118 l 725 118 l 725 0 l 108 0 m 356 831 l 446 1017 l 600 1017 l 475 831 l 356 831 z "},"ž":{"ha":833,"x_min":108,"x_max":725,"o":"m 108 0 l 108 132 l 556 621 l 122 621 l 122 739 l 714 739 l 714 607 l 265 118 l 725 118 l 725 0 l 108 0 m 215 1021 l 326 1021 l 431 881 l 406 881 l 510 1021 l 621 1021 l 490 828 l 346 828 l 215 1021 z "},"ż":{"ha":833,"x_min":108,"x_max":725,"o":"m 108 0 l 108 132 l 556 621 l 122 621 l 122 739 l 714 739 l 714 607 l 265 118 l 725 118 l 725 0 l 108 0 m 344 846 l 344 992 l 489 992 l 489 846 l 344 846 z "},"ꞌ":{"ha":833,"x_min":343,"x_max":490,"o":"m 363 511 l 343 790 l 343 986 l 490 986 l 490 790 l 472 511 l 363 511 z "},"ª":{"ha":833,"x_min":169,"x_max":644,"o":"m 335 522 q 215 555 260 522 q 169 647 169 588 q 209 745 169 711 q 324 794 249 779 l 475 825 q 453 892 475 869 q 394 915 432 915 q 338 898 358 915 q 310 849 317 881 l 178 854 q 247 969 190 929 q 394 1008 303 1008 q 553 959 500 1008 q 606 815 606 910 l 606 650 q 612 623 606 631 q 631 615 618 615 l 644 615 l 644 526 q 626 524 640 525 q 596 522 613 522 q 544 532 568 522 q 506 565 519 542 q 492 633 492 589 l 501 628 q 448 553 490 583 q 335 522 406 522 m 360 608 q 442 637 410 608 q 475 715 475 665 l 475 743 l 368 719 q 319 697 335 713 q 303 658 303 681 q 317 622 303 635 q 360 608 331 608 z "},"º":{"ha":833,"x_min":175,"x_max":658,"o":"m 417 522 q 240 588 306 522 q 175 765 175 654 q 240 942 175 876 q 417 1008 306 1008 q 593 942 528 1008 q 658 765 658 875 q 592 588 658 654 q 417 522 526 522 m 417 619 q 499 658 469 619 q 528 765 528 696 q 499 872 528 833 q 417 911 469 911 q 334 872 363 911 q 306 765 306 832 q 334 658 306 697 q 417 619 363 619 z "},"А":{"ha":833,"x_min":33,"x_max":800,"o":"m 33 0 l 322 986 l 511 986 l 800 0 l 649 0 l 417 835 l 185 0 l 33 0 m 194 257 l 239 392 l 594 392 l 639 257 l 194 257 z "},"Б":{"ha":833,"x_min":108,"x_max":756,"o":"m 108 0 l 108 986 l 254 986 l 254 613 l 414 613 q 594 576 517 613 q 713 470 671 539 q 756 307 756 401 q 713 144 756 213 q 594 38 671 75 q 414 0 517 0 l 108 0 m 254 138 l 399 138 q 554 181 504 138 q 604 307 604 225 q 554 432 604 389 q 399 475 504 475 l 254 475 l 254 138 m 108 857 l 108 986 l 728 986 l 728 857 l 108 857 z "},"В":{"ha":833,"x_min":115,"x_max":775,"o":"m 115 0 l 115 986 l 401 986 q 649 915 564 986 q 733 718 733 844 q 706 609 733 657 q 624 533 678 561 q 497 503 571 504 l 497 511 q 649 481 588 511 q 743 398 711 451 q 775 274 775 344 q 685 72 775 143 q 435 0 596 0 l 115 0 m 261 136 l 436 136 q 578 174 532 136 q 624 281 624 213 q 576 393 624 353 q 436 433 528 433 l 261 433 l 261 136 m 261 568 l 404 568 q 539 605 496 568 q 582 708 582 642 q 539 813 582 776 q 404 850 496 850 l 261 850 l 261 568 z "},"Г":{"ha":833,"x_min":135,"x_max":768,"o":"m 135 0 l 135 986 l 768 986 l 768 857 l 271 857 l 271 0 l 135 0 z "},"Ѓ":{"ha":833,"x_min":135,"x_max":768,"o":"m 135 0 l 135 986 l 768 986 l 768 857 l 271 857 l 271 0 l 135 0 m 389 1078 l 479 1264 l 633 1264 l 508 1078 l 389 1078 z "},"Ґ":{"ha":833,"x_min":135,"x_max":782,"o":"m 646 857 l 646 1201 l 782 1201 l 782 857 l 646 857 m 135 0 l 135 986 l 768 986 l 768 857 l 271 857 l 271 0 l 135 0 z "},"Ғ":{"ha":833,"x_min":26,"x_max":768,"o":"m 26 390 l 26 521 l 601 521 l 601 390 l 26 390 m 135 0 l 135 986 l 768 986 l 768 857 l 271 857 l 271 0 l 135 0 z "},"Д":{"ha":833,"x_min":17,"x_max":807,"o":"m 17 -208 l 17 129 l 63 129 q 145 174 115 129 q 185 313 175 219 l 257 986 l 688 986 l 688 129 l 807 129 l 807 -208 l 671 -208 l 671 0 l 153 0 l 153 -208 l 17 -208 m 265 129 l 551 129 l 551 857 l 381 857 l 321 299 q 301 201 315 243 q 265 129 288 160 z "},"Е":{"ha":833,"x_min":122,"x_max":739,"o":"m 122 0 l 122 986 l 728 986 l 728 849 l 268 849 l 268 561 l 711 561 l 711 428 l 268 428 l 268 138 l 739 138 l 739 0 l 122 0 z "},"Ѐ":{"ha":833,"x_min":122,"x_max":739,"o":"m 122 0 l 122 986 l 728 986 l 728 849 l 268 849 l 268 561 l 711 561 l 711 428 l 268 428 l 268 138 l 739 138 l 739 0 l 122 0 m 386 1079 l 261 1265 l 415 1265 l 506 1079 l 386 1079 z "},"Ё":{"ha":833,"x_min":122,"x_max":739,"o":"m 122 0 l 122 986 l 728 986 l 728 849 l 268 849 l 268 561 l 711 561 l 711 428 l 268 428 l 268 138 l 739 138 l 739 0 l 122 0 m 231 1093 l 231 1239 l 375 1239 l 375 1093 l 231 1093 m 503 1093 l 503 1239 l 647 1239 l 647 1093 l 503 1093 z "},"Ж":{"ha":833,"x_min":8,"x_max":825,"o":"m 681 0 l 471 493 l 668 986 l 813 986 l 615 493 l 825 0 l 681 0 m 8 0 l 218 493 l 21 986 l 165 986 l 363 493 l 153 0 l 8 0 m 349 0 l 349 986 l 485 986 l 485 0 l 349 0 z "},"З":{"ha":833,"x_min":44,"x_max":786,"o":"m 419 -22 q 233 13 317 -22 q 99 113 150 49 q 44 260 49 176 l 186 268 q 258 151 193 194 q 417 107 322 107 q 536 129 485 107 q 616 190 588 151 q 644 282 644 229 q 613 384 644 344 q 533 443 582 424 q 432 461 483 463 l 333 460 l 333 589 l 432 588 q 512 602 471 588 q 582 652 553 617 q 611 746 611 688 q 558 843 611 807 q 417 879 504 879 q 283 846 336 879 q 221 757 229 813 l 78 765 q 134 891 88 836 q 254 977 181 946 q 419 1008 328 1008 q 592 976 517 1008 q 710 885 667 943 q 753 750 753 826 q 726 641 753 688 q 647 564 699 594 q 518 521 594 533 l 519 544 q 665 493 606 531 q 756 399 725 456 q 786 272 786 342 q 739 119 786 186 q 608 15 692 53 q 419 -22 525 -22 z "},"И":{"ha":833,"x_min":94,"x_max":739,"o":"m 739 0 l 596 0 l 596 779 l 272 0 l 94 0 l 94 986 l 238 986 l 238 207 l 561 986 l 739 986 l 739 0 z "},"Й":{"ha":833,"x_min":94,"x_max":739,"o":"m 739 0 l 596 0 l 596 779 l 272 0 l 94 0 l 94 986 l 238 986 l 238 207 l 561 986 l 739 986 l 739 0 m 417 1079 q 275 1131 329 1079 q 217 1267 221 1182 l 308 1267 q 344 1197 315 1218 q 417 1175 372 1175 q 491 1197 463 1175 q 525 1267 519 1218 l 617 1267 q 558 1131 613 1182 q 417 1079 504 1079 z "},"Ѝ":{"ha":833,"x_min":94,"x_max":739,"o":"m 739 0 l 596 0 l 596 779 l 272 0 l 94 0 l 94 986 l 238 986 l 238 207 l 561 986 l 739 986 l 739 0 m 364 1078 l 239 1264 l 393 1264 l 483 1078 l 364 1078 z "},"К":{"ha":833,"x_min":75,"x_max":790,"o":"m 617 0 l 201 493 l 372 493 l 790 0 l 617 0 m 75 0 l 75 986 l 211 986 l 211 0 l 75 0 m 201 493 l 604 986 l 776 986 l 372 493 l 201 493 z "},"Ќ":{"ha":833,"x_min":75,"x_max":790,"o":"m 617 0 l 201 493 l 372 493 l 790 0 l 617 0 m 75 0 l 75 986 l 211 986 l 211 0 l 75 0 m 201 493 l 604 986 l 776 986 l 372 493 l 201 493 m 347 1078 l 438 1264 l 592 1264 l 467 1078 l 347 1078 z "},"Л":{"ha":833,"x_min":26,"x_max":764,"o":"m 26 0 l 26 138 l 103 138 q 161 165 140 138 q 186 238 182 192 l 250 986 l 764 986 l 764 0 l 628 0 l 628 858 l 376 858 l 322 217 q 267 59 315 118 q 122 0 218 0 l 26 0 z "},"М":{"ha":833,"x_min":67,"x_max":767,"o":"m 361 119 l 192 825 l 207 826 l 207 0 l 67 0 l 67 986 l 261 986 l 444 238 l 389 238 l 572 986 l 767 986 l 767 0 l 626 0 l 626 826 l 642 825 l 472 119 l 361 119 z "},"Н":{"ha":833,"x_min":78,"x_max":756,"o":"m 78 0 l 78 986 l 224 986 l 224 511 l 158 564 l 675 564 l 610 511 l 610 986 l 756 986 l 756 0 l 610 0 l 610 481 l 675 428 l 158 428 l 224 481 l 224 0 l 78 0 z "},"О":{"ha":833,"x_min":50,"x_max":783,"o":"m 417 -22 q 217 38 299 -22 q 93 213 136 97 q 50 492 50 328 q 93 774 50 658 q 217 949 136 889 q 417 1008 299 1008 q 617 949 535 1008 q 741 774 699 889 q 783 492 783 658 q 741 213 783 328 q 617 38 699 97 q 417 -22 535 -22 m 417 114 q 534 156 486 114 q 607 282 582 197 q 632 492 632 367 q 607 702 632 617 q 534 830 582 788 q 417 872 486 872 q 299 830 347 872 q 226 702 251 788 q 201 492 201 617 q 226 282 201 367 q 299 156 251 197 q 417 114 347 114 z "},"П":{"ha":833,"x_min":90,"x_max":743,"o":"m 90 0 l 90 986 l 743 986 l 743 0 l 607 0 l 607 857 l 226 857 l 226 0 l 90 0 z "},"Р":{"ha":833,"x_min":119,"x_max":767,"o":"m 119 0 l 119 986 l 425 986 q 605 949 528 986 q 724 842 682 911 q 767 679 767 774 q 724 516 767 585 q 605 410 682 447 q 425 374 528 374 l 265 374 l 265 0 l 119 0 m 265 511 l 410 511 q 565 554 515 511 q 615 679 615 597 q 565 806 615 763 q 410 849 515 849 l 265 849 l 265 511 z "},"С":{"ha":833,"x_min":50,"x_max":775,"o":"m 421 -22 q 219 40 301 -22 q 93 218 136 103 q 50 492 50 333 q 93 767 50 651 q 219 945 136 882 q 421 1008 301 1008 q 648 919 556 1008 q 769 671 740 831 l 617 663 q 544 819 596 765 q 421 872 492 872 q 300 828 349 872 q 226 699 251 783 q 201 492 201 614 q 226 287 201 371 q 300 158 251 203 q 421 114 349 114 q 551 172 497 114 q 624 343 606 231 l 775 336 q 657 72 750 167 q 421 -22 564 -22 z "},"Т":{"ha":833,"x_min":56,"x_max":778,"o":"m 344 0 l 344 849 l 56 849 l 56 986 l 778 986 l 778 849 l 489 849 l 489 0 l 344 0 z "},"У":{"ha":833,"x_min":64,"x_max":776,"o":"m 188 0 l 188 129 l 274 129 q 320 141 303 129 q 349 182 338 153 l 381 272 l 331 272 l 64 986 l 214 986 l 425 400 l 628 986 l 776 986 l 468 122 q 403 30 446 60 q 292 0 360 0 l 188 0 z "},"Ў":{"ha":833,"x_min":64,"x_max":776,"o":"m 188 0 l 188 129 l 274 129 q 320 141 303 129 q 349 182 338 153 l 381 272 l 331 272 l 64 986 l 214 986 l 425 400 l 628 986 l 776 986 l 468 122 q 403 30 446 60 q 292 0 360 0 l 188 0 m 422 1079 q 281 1131 335 1079 q 222 1267 226 1182 l 314 1267 q 349 1197 321 1218 q 422 1175 378 1175 q 497 1197 468 1175 q 531 1267 525 1218 l 622 1267 q 564 1131 618 1182 q 422 1079 510 1079 z "},"Ф":{"ha":833,"x_min":33,"x_max":800,"o":"m 415 101 q 213 149 299 101 q 80 285 126 197 q 33 493 33 374 q 80 701 33 614 q 213 837 126 789 q 415 885 299 885 q 620 837 533 885 q 753 701 707 789 q 800 493 800 614 q 753 285 800 374 q 620 149 707 197 q 415 101 533 101 m 417 231 q 592 301 528 231 q 657 493 657 372 q 592 685 657 615 q 417 756 528 756 q 241 685 306 756 q 176 493 176 615 q 241 301 176 372 q 417 231 306 231 m 347 0 l 347 986 l 483 986 l 483 0 l 347 0 z "},"Х":{"ha":833,"x_min":63,"x_max":771,"o":"m 63 0 l 322 496 l 67 986 l 232 986 l 418 607 l 604 986 l 767 986 l 511 494 l 771 0 l 606 0 l 415 385 l 224 0 l 63 0 z "},"Ч":{"ha":833,"x_min":69,"x_max":736,"o":"m 600 0 l 600 513 l 626 557 q 588 442 625 493 q 489 360 550 390 q 351 331 428 331 q 204 369 268 331 q 105 478 140 407 q 69 644 69 549 l 69 986 l 206 986 l 206 661 q 250 515 206 569 q 361 461 294 461 q 485 487 431 461 q 569 558 539 513 q 600 663 600 603 l 600 986 l 736 986 l 736 0 l 600 0 z "},"Ц":{"ha":833,"x_min":71,"x_max":814,"o":"m 678 -208 l 678 129 l 814 129 l 814 -208 l 678 -208 m 464 0 l 464 129 l 700 129 l 700 0 l 464 0 m 71 986 l 207 986 l 207 129 l 589 129 l 589 986 l 725 986 l 725 0 l 71 0 l 71 986 z "},"Ш":{"ha":833,"x_min":69,"x_max":764,"o":"m 628 0 l 628 986 l 764 986 l 764 0 l 628 0 m 89 0 l 89 129 l 744 129 l 744 0 l 89 0 m 69 0 l 69 986 l 206 986 l 206 0 l 69 0 m 351 0 l 351 986 l 482 986 l 482 0 l 351 0 z "},"Щ":{"ha":833,"x_min":44,"x_max":814,"o":"m 678 -208 l 678 129 l 814 129 l 814 -208 l 678 -208 m 563 0 l 563 129 l 797 129 l 797 0 l 563 0 m 599 0 l 599 986 l 732 986 l 732 0 l 599 0 m 64 0 l 64 129 l 714 129 l 714 0 l 64 0 m 44 0 l 44 986 l 179 986 l 179 0 l 44 0 m 324 0 l 324 986 l 453 986 l 453 0 l 324 0 z "},"Џ":{"ha":833,"x_min":90,"x_max":743,"o":"m 349 -208 l 349 44 l 485 44 l 485 -208 l 349 -208 m 90 986 l 226 986 l 226 129 l 607 129 l 607 986 l 743 986 l 743 0 l 90 0 l 90 986 z "},"Ь":{"ha":833,"x_min":119,"x_max":767,"o":"m 119 986 l 265 986 l 265 613 l 425 613 q 605 576 528 613 q 724 470 682 539 q 767 307 767 401 q 724 144 767 213 q 605 38 682 75 q 425 0 528 0 l 119 0 l 119 986 m 265 475 l 265 138 l 410 138 q 565 181 515 138 q 615 307 615 225 q 565 432 615 389 q 410 475 515 475 l 265 475 z "},"Ы":{"ha":833,"x_min":43,"x_max":790,"o":"m 43 0 l 43 986 l 181 986 l 181 613 l 238 613 q 490 532 401 613 q 579 304 579 451 q 490 80 579 160 q 238 0 401 0 l 43 0 m 181 129 l 238 129 q 387 174 338 129 q 436 304 436 218 q 387 438 436 393 q 238 483 338 483 l 181 483 l 181 129 m 654 0 l 654 986 l 790 986 l 790 0 l 654 0 z "},"Ъ":{"ha":833,"x_min":38,"x_max":790,"o":"m 38 857 l 38 986 l 281 986 l 281 857 l 38 857 m 143 986 l 289 986 l 289 613 l 450 613 q 628 576 551 613 q 748 470 706 539 q 790 307 790 401 q 748 144 790 213 q 628 38 706 75 q 450 0 551 0 l 143 0 l 143 986 m 289 475 l 289 138 l 433 138 q 589 181 539 138 q 639 307 639 225 q 589 432 639 389 q 433 475 539 475 l 289 475 z "},"Љ":{"ha":833,"x_min":6,"x_max":828,"o":"m 6 0 l 6 138 l 39 138 q 99 165 76 138 q 122 238 121 192 l 154 986 l 519 986 l 519 0 l 383 0 l 383 858 l 282 858 l 258 217 q 233 102 256 151 q 166 26 210 53 q 58 0 122 0 l 6 0 m 383 0 l 383 986 l 519 986 l 521 613 l 557 613 q 758 531 688 613 q 828 304 828 450 q 758 81 828 161 q 557 0 688 0 l 383 0 m 521 129 l 544 129 q 647 173 615 129 q 678 304 678 217 q 647 439 678 394 q 544 483 615 483 l 521 483 l 521 129 z "},"Њ":{"ha":833,"x_min":25,"x_max":808,"o":"m 311 0 l 311 986 l 446 986 l 446 613 l 494 613 q 731 531 654 613 q 808 304 808 450 q 731 81 808 161 q 494 0 654 0 l 311 0 m 25 0 l 25 986 l 158 986 l 158 0 l 25 0 m 124 483 l 124 613 l 390 613 l 390 483 l 124 483 m 446 129 l 479 129 q 619 173 581 129 q 657 304 657 217 q 619 439 657 394 q 479 483 581 483 l 446 483 l 446 129 z "},"Ѕ":{"ha":833,"x_min":60,"x_max":774,"o":"m 429 -22 q 242 21 322 -22 q 115 141 163 64 q 60 321 68 218 l 210 331 q 249 211 219 260 q 325 138 278 163 q 435 114 372 114 q 538 130 496 114 q 601 176 579 146 q 624 250 624 207 q 603 328 624 294 q 528 389 582 361 q 369 446 474 417 q 204 508 268 474 q 111 594 140 543 q 82 722 82 646 q 122 872 82 807 q 235 972 161 936 q 414 1008 310 1008 q 590 968 517 1008 q 705 856 663 928 q 757 689 747 785 l 607 681 q 576 781 600 738 q 510 848 551 824 q 410 872 468 872 q 280 833 328 872 q 232 729 232 793 q 251 658 232 686 q 319 608 271 631 q 456 563 368 586 q 643 489 574 531 q 743 389 713 447 q 774 250 774 331 q 731 108 774 169 q 610 12 688 46 q 429 -22 533 -22 z "},"Є":{"ha":833,"x_min":50,"x_max":774,"o":"m 417 -22 q 217 38 299 -22 q 93 214 136 99 q 50 492 50 329 q 93 772 50 656 q 217 948 136 888 q 417 1008 299 1008 q 656 912 565 1008 q 774 639 747 815 l 629 639 q 556 817 610 754 q 417 879 501 879 q 294 834 344 879 q 219 702 244 789 q 193 492 193 615 q 219 283 193 369 q 294 152 244 197 q 417 107 344 107 q 556 169 501 107 q 629 346 610 231 l 774 346 q 656 74 747 171 q 417 -22 565 -22 m 475 426 l 93 426 l 93 557 l 475 557 l 475 426 z "},"Э":{"ha":833,"x_min":60,"x_max":783,"o":"m 417 -22 q 177 74 268 -22 q 60 346 86 171 l 204 346 q 279 169 225 231 q 417 107 333 107 q 539 152 489 107 q 615 283 589 197 q 640 492 640 369 q 615 702 640 615 q 539 834 589 789 q 417 879 489 879 q 278 817 333 879 q 204 639 224 754 l 60 639 q 178 912 88 815 q 417 1008 268 1008 q 617 948 535 1008 q 741 772 699 888 q 783 492 783 656 q 741 214 783 329 q 617 38 699 99 q 417 -22 535 -22 m 358 426 l 358 557 l 740 557 l 740 426 l 358 426 z "},"І":{"ha":833,"x_min":108,"x_max":725,"o":"m 108 0 l 108 138 l 344 138 l 344 849 l 108 849 l 108 986 l 725 986 l 725 849 l 489 849 l 489 138 l 725 138 l 725 0 l 108 0 z "},"Ї":{"ha":833,"x_min":108,"x_max":725,"o":"m 108 0 l 108 138 l 344 138 l 344 849 l 108 849 l 108 986 l 725 986 l 725 849 l 489 849 l 489 138 l 725 138 l 725 0 l 108 0 m 208 1092 l 208 1238 l 353 1238 l 353 1092 l 208 1092 m 481 1092 l 481 1238 l 625 1238 l 625 1092 l 481 1092 z "},"Ј":{"ha":833,"x_min":53,"x_max":711,"o":"m 382 -22 q 210 20 283 -22 q 97 142 138 63 q 53 329 56 221 l 197 340 q 246 169 200 225 q 383 114 292 114 q 520 169 475 114 q 565 335 565 224 l 565 986 l 711 986 l 711 335 q 624 73 711 168 q 382 -22 536 -22 z "},"Ћ":{"ha":833,"x_min":7,"x_max":792,"o":"m 164 0 l 164 986 l 300 986 l 300 474 l 274 429 q 306 544 275 493 q 391 626 338 596 q 510 656 444 656 q 657 617 593 656 q 756 509 721 579 q 792 342 792 439 l 792 0 l 656 0 l 656 325 q 608 470 656 415 q 489 525 561 525 q 392 499 435 525 q 324 428 349 474 q 300 324 300 383 l 300 0 l 164 0 m 7 857 l 7 986 l 503 986 l 503 857 l 7 857 z "},"Ю":{"ha":833,"x_min":26,"x_max":807,"o":"m 538 -22 q 335 101 400 -22 q 271 492 271 224 q 335 885 271 761 q 538 1008 400 1008 q 742 885 678 1008 q 807 492 807 761 q 742 101 807 224 q 538 -22 678 -22 m 26 0 l 26 986 l 163 986 l 163 0 l 26 0 m 131 428 l 131 558 l 365 558 l 365 428 l 131 428 m 538 107 q 637 196 607 107 q 667 492 667 285 q 637 790 667 700 q 538 879 607 879 q 442 790 471 879 q 413 492 413 700 q 442 196 413 285 q 538 107 471 107 z "},"Я":{"ha":833,"x_min":57,"x_max":739,"o":"m 739 0 l 593 0 l 593 385 l 418 385 l 217 0 l 57 0 l 286 414 q 140 515 193 449 q 86 685 86 581 q 127 848 86 781 q 244 951 168 915 q 424 986 319 986 l 739 986 l 739 0 m 593 521 l 593 849 l 425 849 q 283 806 328 849 q 238 685 238 764 q 283 563 238 606 q 425 521 328 521 l 593 521 z "},"Ђ":{"ha":833,"x_min":7,"x_max":819,"o":"m 164 0 l 164 986 l 300 986 l 300 474 l 274 429 q 306 544 275 493 q 388 626 336 596 q 504 656 439 656 q 668 615 597 656 q 779 502 739 575 q 819 333 819 429 q 772 156 819 232 q 637 40 724 81 q 431 0 550 0 l 431 129 q 611 184 546 129 q 676 332 676 239 q 626 473 676 421 q 493 525 576 525 q 393 499 438 525 q 324 428 349 474 q 300 321 300 382 l 300 0 l 164 0 m 7 857 l 7 986 l 503 986 l 503 857 l 7 857 z "},"Ѣ":{"ha":833,"x_min":22,"x_max":799,"o":"m 22 735 l 22 857 l 517 857 l 517 735 l 22 735 m 151 986 l 297 986 l 297 613 l 458 613 q 638 576 561 613 q 756 470 714 539 q 799 307 799 401 q 756 144 799 213 q 638 38 714 75 q 458 0 561 0 l 151 0 l 151 986 m 297 475 l 297 138 l 442 138 q 598 181 547 138 q 649 307 649 225 q 598 432 649 389 q 442 475 547 475 l 297 475 z "},"Ѫ":{"ha":833,"x_min":1,"x_max":832,"o":"m 1 0 l 132 388 q 198 503 158 467 q 288 539 238 539 l 544 539 q 635 503 596 539 q 700 388 674 467 l 832 0 l 689 0 l 581 325 q 548 391 565 374 q 504 408 531 408 l 329 408 q 283 391 301 408 q 251 325 265 374 l 144 0 l 1 0 m 349 0 l 349 539 l 485 539 l 485 0 l 349 0 m 342 411 l 88 857 l 244 857 l 499 411 l 342 411 m 335 411 l 589 857 l 746 857 l 492 411 l 335 411 m 88 857 l 88 986 l 746 986 l 746 857 l 88 857 z "},"Ѳ":{"ha":833,"x_min":50,"x_max":783,"o":"m 136 443 l 133 586 q 169 598 153 594 q 197 603 186 601 q 294 601 240 610 q 393 575 349 593 q 485 540 449 553 q 547 522 522 528 q 590 515 571 515 q 632 518 610 514 q 710 544 674 522 l 713 404 q 680 392 696 396 q 649 385 664 388 q 592 383 621 381 q 520 399 564 386 q 401 440 476 413 q 303 467 353 458 q 215 471 253 475 q 175 461 196 468 q 136 443 154 454 m 417 -22 q 217 38 299 -22 q 93 213 136 97 q 50 492 50 328 q 93 774 50 658 q 217 949 136 889 q 417 1008 299 1008 q 617 949 535 1008 q 741 774 699 889 q 783 492 783 658 q 741 213 783 328 q 617 38 699 97 q 417 -22 535 -22 m 417 114 q 534 156 486 114 q 607 282 582 197 q 632 492 632 367 q 607 702 632 617 q 534 830 582 788 q 417 872 486 872 q 299 830 347 872 q 226 702 251 788 q 201 492 201 617 q 226 282 201 367 q 299 156 251 197 q 417 114 347 114 z "},"Ѵ":{"ha":833,"x_min":18,"x_max":826,"o":"m 324 0 l 18 986 l 163 986 l 429 108 l 361 108 l 568 796 q 647 935 594 885 q 765 986 699 986 l 826 986 l 826 857 l 808 857 q 740 830 767 857 q 693 733 714 803 l 467 0 l 324 0 z "},"Җ":{"ha":833,"x_min":8,"x_max":822,"o":"m 688 -208 l 688 108 l 822 108 l 822 -208 l 688 -208 m 651 0 l 450 493 l 639 986 l 778 986 l 588 493 l 789 0 l 651 0 m 8 0 l 210 493 l 19 986 l 158 986 l 347 493 l 146 0 l 8 0 m 333 0 l 333 986 l 463 986 l 463 0 l 333 0 z "},"Қ":{"ha":833,"x_min":58,"x_max":800,"o":"m 664 -208 l 664 21 l 664 108 l 800 108 l 800 -208 l 664 -208 m 600 0 l 185 493 l 356 493 l 774 0 l 600 0 m 58 0 l 58 986 l 194 986 l 194 0 l 58 0 m 185 493 l 588 986 l 760 986 l 356 493 l 185 493 z "},"Ң":{"ha":833,"x_min":54,"x_max":815,"o":"m 679 -208 l 679 108 l 815 108 l 815 -208 l 679 -208 m 54 0 l 54 986 l 200 986 l 200 511 l 135 564 l 653 564 l 588 511 l 588 986 l 732 986 l 732 0 l 588 0 l 588 481 l 653 428 l 135 428 l 200 481 l 200 0 l 54 0 z "},"Ү":{"ha":833,"x_min":51,"x_max":782,"o":"m 344 0 l 344 406 l 51 986 l 213 986 l 417 556 l 621 986 l 782 986 l 490 406 l 490 0 l 344 0 z "},"Ұ":{"ha":833,"x_min":50,"x_max":781,"o":"m 113 306 l 113 435 l 718 435 l 718 306 l 113 306 m 343 0 l 343 406 l 50 986 l 211 986 l 415 556 l 619 986 l 781 986 l 489 406 l 489 0 l 343 0 z "},"Ҳ":{"ha":833,"x_min":60,"x_max":808,"o":"m 672 -208 l 672 108 l 808 108 l 808 -208 l 672 -208 m 60 0 l 319 496 l 64 986 l 229 986 l 415 607 l 601 986 l 764 986 l 508 494 l 768 0 l 603 0 l 413 385 l 221 0 l 60 0 z "},"Ҷ":{"ha":833,"x_min":47,"x_max":813,"o":"m 676 -208 l 676 108 l 813 108 l 813 -208 l 676 -208 m 578 0 l 578 513 l 604 557 q 565 442 603 493 q 467 360 528 390 q 329 331 406 331 q 182 369 246 331 q 83 478 118 407 q 47 644 47 549 l 47 986 l 183 986 l 183 661 q 228 515 183 569 q 339 461 272 461 q 463 487 408 461 q 547 558 517 513 q 578 663 578 603 l 578 986 l 714 986 l 714 0 l 578 0 z "},"Һ":{"ha":833,"x_min":97,"x_max":764,"o":"m 233 986 l 233 474 l 207 429 q 246 544 208 493 q 345 626 283 596 q 482 656 407 656 q 629 617 565 656 q 728 509 693 579 q 764 342 764 439 l 764 0 l 628 0 l 628 325 q 583 472 628 418 q 472 525 539 525 q 349 499 404 525 q 264 428 294 474 q 233 324 233 383 l 233 0 l 97 0 l 97 986 l 233 986 z "},"Ӏ":{"ha":833,"x_min":108,"x_max":725,"o":"m 108 0 l 108 138 l 344 138 l 344 849 l 108 849 l 108 986 l 725 986 l 725 849 l 489 849 l 489 138 l 725 138 l 725 0 l 108 0 z "},"Ә":{"ha":833,"x_min":50,"x_max":794,"o":"m 426 -22 q 223 40 307 -22 q 94 213 139 101 q 50 475 50 325 l 50 549 l 643 549 q 617 716 643 643 q 540 831 590 789 q 418 872 490 872 q 292 819 342 872 q 222 678 243 765 l 67 693 q 143 862 94 792 q 260 970 192 932 q 413 1008 328 1008 q 619 948 533 1008 q 749 772 704 888 q 794 493 794 657 q 748 219 794 335 q 618 40 701 103 q 426 -22 535 -22 m 426 114 q 541 150 493 114 q 615 254 589 186 q 642 415 642 322 l 206 415 q 233 253 206 321 q 309 149 260 185 q 426 114 358 114 z "},"Ӣ":{"ha":833,"x_min":94,"x_max":739,"o":"m 739 0 l 596 0 l 596 779 l 272 0 l 94 0 l 94 986 l 238 986 l 238 207 l 561 986 l 739 986 l 739 0 m 225 1108 l 225 1221 l 606 1221 l 606 1108 l 225 1108 z "},"Ө":{"ha":833,"x_min":50,"x_max":783,"o":"m 88 425 l 88 554 l 724 554 l 724 425 l 88 425 m 417 -22 q 217 38 299 -22 q 93 213 136 97 q 50 492 50 328 q 93 774 50 658 q 217 949 136 889 q 417 1008 299 1008 q 617 949 535 1008 q 741 774 699 889 q 783 492 783 658 q 741 213 783 328 q 617 38 699 97 q 417 -22 535 -22 m 417 114 q 534 156 486 114 q 607 282 582 197 q 632 492 632 367 q 607 702 632 617 q 534 830 582 788 q 417 872 486 872 q 299 830 347 872 q 226 702 251 788 q 201 492 201 617 q 226 282 201 367 q 299 156 251 197 q 417 114 347 114 z "},"Ӯ":{"ha":833,"x_min":64,"x_max":776,"o":"m 188 0 l 188 129 l 274 129 q 320 141 303 129 q 349 182 338 153 l 381 272 l 331 272 l 64 986 l 214 986 l 425 400 l 628 986 l 776 986 l 468 122 q 403 30 446 60 q 292 0 360 0 l 188 0 m 231 1108 l 231 1221 l 611 1221 l 611 1108 l 231 1108 z "},"а":{"ha":833,"x_min":71,"x_max":767,"o":"m 317 -17 q 192 8 247 -17 q 103 79 136 33 q 71 186 71 125 q 128 333 71 281 q 303 408 186 386 l 542 458 q 504 588 542 544 q 392 631 467 631 q 283 599 322 631 q 231 510 244 567 l 83 519 q 185 690 104 625 q 392 756 265 756 q 608 675 533 756 q 682 453 682 594 l 682 161 q 693 126 682 136 q 725 115 704 115 l 767 115 l 767 0 q 740 -3 758 -1 q 703 -4 721 -4 q 618 13 653 -4 q 566 65 583 29 q 546 154 549 100 l 568 154 q 525 67 560 106 q 436 6 490 28 q 317 -17 382 -17 m 338 99 q 450 122 404 99 q 519 189 496 146 q 542 290 542 232 l 542 347 l 336 306 q 243 267 269 293 q 217 197 217 240 q 249 125 217 151 q 338 99 281 99 z "},"б":{"ha":833,"x_min":76,"x_max":757,"o":"m 418 -22 q 292 4 351 -22 q 179 90 232 31 q 102 233 128 143 q 76 436 76 324 q 102 658 76 568 q 181 808 128 749 q 317 907 235 868 q 388 948 363 928 q 424 994 414 968 q 435 1060 435 1021 l 568 1061 q 533 914 568 974 q 411 808 499 854 q 332 764 368 786 q 269 708 296 742 q 227 619 242 674 q 215 476 213 564 l 185 481 q 242 586 207 543 q 326 652 276 629 q 438 675 376 675 q 603 631 532 675 q 716 510 675 588 q 757 329 757 432 q 713 142 757 222 q 592 20 669 63 q 418 -22 515 -22 m 417 101 q 522 131 476 101 q 592 211 567 160 q 618 329 618 263 q 593 445 618 396 q 524 523 568 494 q 422 551 481 551 q 318 523 364 551 q 247 445 272 494 q 221 329 222 396 q 244 210 219 263 q 313 130 268 158 q 417 101 358 101 z "},"в":{"ha":833,"x_min":126,"x_max":736,"o":"m 126 0 l 126 739 l 424 739 q 631 685 556 739 q 706 533 706 631 q 654 423 706 464 q 510 381 603 382 l 510 383 q 676 335 615 382 q 736 210 736 289 q 662 56 736 111 q 456 0 588 0 l 126 0 m 258 117 l 464 117 q 560 144 525 117 q 596 215 596 171 q 560 292 596 264 q 464 321 525 321 l 258 321 l 258 117 m 258 431 l 426 431 q 528 457 490 431 q 565 528 565 483 q 528 597 565 572 q 426 622 490 622 l 258 622 l 258 431 z "},"г":{"ha":833,"x_min":200,"x_max":725,"o":"m 200 0 l 200 739 l 725 739 l 725 622 l 265 622 l 335 683 l 335 0 l 200 0 z "},"ѓ":{"ha":833,"x_min":200,"x_max":725,"o":"m 200 0 l 200 739 l 725 739 l 725 622 l 265 622 l 335 683 l 335 0 l 200 0 m 400 831 l 490 1017 l 644 1017 l 519 831 l 400 831 z "},"ґ":{"ha":833,"x_min":200,"x_max":725,"o":"m 588 624 l 588 954 l 725 954 l 725 624 l 588 624 m 200 0 l 200 739 l 725 739 l 725 622 l 265 622 l 335 683 l 335 0 l 200 0 z "},"ғ":{"ha":833,"x_min":56,"x_max":725,"o":"m 56 310 l 56 426 l 489 426 l 489 310 l 56 310 m 200 0 l 200 739 l 725 739 l 725 622 l 265 622 l 335 683 l 335 0 l 200 0 z "},"д":{"ha":833,"x_min":26,"x_max":807,"o":"m 31 38 l 31 117 l 88 117 q 156 151 132 117 q 190 253 181 185 l 256 739 l 689 739 l 689 0 l 557 0 l 557 622 l 374 622 l 321 243 q 253 90 307 142 q 99 38 199 38 l 31 38 m 26 -210 l 26 110 l 161 110 l 158 -210 l 26 -210 m 26 0 l 26 117 l 765 117 l 765 0 l 26 0 m 675 -210 l 675 117 l 807 117 l 807 -210 l 675 -210 z "},"е":{"ha":833,"x_min":83,"x_max":756,"o":"m 426 -17 q 245 31 322 -17 q 126 165 168 78 q 83 369 83 253 q 126 572 83 486 q 244 707 168 658 q 422 756 319 756 q 596 709 521 756 q 713 576 671 663 q 756 367 756 489 l 756 328 l 231 328 q 290 167 238 222 q 428 113 342 113 q 536 144 493 113 q 596 225 579 175 l 743 215 q 628 47 711 110 q 426 -17 546 -17 m 231 440 l 604 440 q 547 581 596 535 q 422 626 497 626 q 294 579 344 626 q 231 440 244 532 z "},"ѐ":{"ha":833,"x_min":83,"x_max":756,"o":"m 426 -17 q 245 31 322 -17 q 126 165 168 78 q 83 369 83 253 q 126 572 83 486 q 244 707 168 658 q 422 756 319 756 q 596 709 521 756 q 713 576 671 663 q 756 367 756 489 l 756 328 l 231 328 q 290 167 238 222 q 428 113 342 113 q 536 144 493 113 q 596 225 579 175 l 743 215 q 628 47 711 110 q 426 -17 546 -17 m 231 440 l 604 440 q 547 581 596 535 q 422 626 497 626 q 294 579 344 626 q 231 440 244 532 m 371 828 l 246 1014 l 400 1014 l 490 828 l 371 828 z "},"ё":{"ha":833,"x_min":83,"x_max":756,"o":"m 426 -17 q 245 31 322 -17 q 126 165 168 78 q 83 369 83 253 q 126 572 83 486 q 244 707 168 658 q 422 756 319 756 q 596 709 521 756 q 713 576 671 663 q 756 367 756 489 l 756 328 l 231 328 q 290 167 238 222 q 428 113 342 113 q 536 144 493 113 q 596 225 579 175 l 743 215 q 628 47 711 110 q 426 -17 546 -17 m 231 440 l 604 440 q 547 581 596 535 q 422 626 497 626 q 294 579 344 626 q 231 440 244 532 m 215 842 l 215 988 l 360 988 l 360 842 l 215 842 m 488 842 l 488 988 l 632 988 l 632 842 l 488 842 z "},"ж":{"ha":833,"x_min":13,"x_max":821,"o":"m 13 0 l 217 369 l 361 369 l 161 0 l 13 0 m 350 0 l 350 739 l 483 739 l 483 0 l 350 0 m 672 0 l 472 369 l 617 369 l 821 0 l 672 0 m 472 369 l 663 739 l 811 739 l 617 369 l 472 369 m 217 369 l 22 739 l 171 739 l 361 369 l 217 369 z "},"з":{"ha":833,"x_min":104,"x_max":724,"o":"m 415 -17 q 254 12 324 -17 q 147 92 185 40 q 104 214 108 143 l 243 219 q 294 138 247 168 q 415 107 340 107 q 539 136 493 107 q 585 214 585 165 q 541 303 585 271 q 424 333 497 335 l 351 332 l 351 449 l 424 447 q 523 473 486 446 q 560 544 560 500 q 520 610 560 586 q 414 635 481 635 q 315 613 353 635 q 272 553 276 590 l 129 560 q 217 703 140 650 q 415 756 294 756 q 623 700 547 756 q 699 549 699 644 q 647 444 699 488 q 506 388 594 401 l 507 406 q 665 336 607 390 q 724 203 724 282 q 640 42 724 101 q 415 -17 557 -17 z "},"и":{"ha":833,"x_min":125,"x_max":710,"o":"m 125 0 l 125 739 l 257 739 l 257 206 l 560 739 l 710 739 l 710 0 l 578 0 l 578 522 l 282 0 l 125 0 z "},"й":{"ha":833,"x_min":125,"x_max":710,"o":"m 125 0 l 125 739 l 257 739 l 257 206 l 560 739 l 710 739 l 710 0 l 578 0 l 578 522 l 282 0 l 125 0 m 418 832 q 276 883 331 832 q 218 1019 222 935 l 310 1019 q 345 949 317 971 q 418 928 374 928 q 492 949 464 928 q 526 1019 521 971 l 618 1019 q 560 883 614 935 q 418 832 506 832 z "},"ѝ":{"ha":833,"x_min":125,"x_max":710,"o":"m 125 0 l 125 739 l 257 739 l 257 206 l 560 739 l 710 739 l 710 0 l 578 0 l 578 522 l 282 0 l 125 0 m 365 831 l 240 1017 l 394 1017 l 485 831 l 365 831 z "},"к":{"ha":833,"x_min":117,"x_max":776,"o":"m 594 0 l 242 369 l 415 369 l 776 0 l 594 0 m 117 0 l 117 739 l 251 739 l 251 0 l 117 0 m 242 369 l 581 739 l 760 739 l 415 369 l 242 369 z "},"ќ":{"ha":833,"x_min":117,"x_max":776,"o":"m 594 0 l 242 369 l 415 369 l 776 0 l 594 0 m 117 0 l 117 739 l 251 739 l 251 0 l 117 0 m 242 369 l 581 739 l 760 739 l 415 369 l 242 369 m 351 831 l 442 1017 l 596 1017 l 471 831 l 351 831 z "},"л":{"ha":833,"x_min":35,"x_max":740,"o":"m 35 0 l 35 128 l 94 128 q 150 153 131 128 q 175 228 169 179 l 231 739 l 740 739 l 740 0 l 608 0 l 608 622 l 350 622 l 307 206 q 251 52 297 104 q 122 0 206 0 l 35 0 z "},"м":{"ha":833,"x_min":47,"x_max":786,"o":"m 47 0 l 58 739 l 224 739 l 424 161 l 622 739 l 786 739 l 786 0 l 654 0 l 654 450 l 496 0 l 350 0 l 188 456 l 179 0 l 47 0 z "},"н":{"ha":833,"x_min":117,"x_max":717,"o":"m 117 0 l 117 739 l 251 739 l 251 0 l 117 0 m 126 310 l 126 426 l 703 426 l 703 310 l 126 310 m 582 0 l 582 739 l 717 739 l 717 0 l 582 0 z "},"о":{"ha":833,"x_min":75,"x_max":758,"o":"m 417 -17 q 237 31 314 -17 q 117 165 160 78 q 75 369 75 253 q 117 574 75 488 q 237 708 160 661 q 417 756 314 756 q 597 708 519 756 q 716 574 674 661 q 758 369 758 488 q 716 165 758 253 q 597 31 674 78 q 417 -17 519 -17 m 417 113 q 560 181 510 113 q 611 369 611 249 q 560 558 611 490 q 417 626 510 626 q 273 558 324 626 q 222 369 222 490 q 273 181 222 249 q 417 113 324 113 z "},"п":{"ha":833,"x_min":115,"x_max":718,"o":"m 115 0 l 115 739 l 718 739 l 718 0 l 585 0 l 585 622 l 249 622 l 249 0 l 115 0 z "},"р":{"ha":833,"x_min":100,"x_max":769,"o":"m 100 -208 l 100 739 l 233 739 l 236 571 l 219 579 q 310 710 247 665 q 460 756 374 756 q 635 702 567 756 q 736 561 703 649 q 769 369 769 474 q 736 178 769 265 q 635 37 703 90 q 460 -17 567 -17 q 354 2 403 -17 q 272 56 306 21 q 222 142 238 92 l 240 161 l 240 -208 l 100 -208 m 433 113 q 572 179 522 113 q 622 369 622 246 q 572 560 622 493 q 433 626 522 626 q 332 598 375 626 q 265 513 289 569 q 240 369 240 456 q 264 226 240 283 q 331 141 288 169 q 433 113 375 113 z "},"с":{"ha":833,"x_min":89,"x_max":756,"o":"m 433 -17 q 252 31 331 -17 q 131 166 174 79 q 89 369 89 253 q 131 572 89 486 q 252 707 174 658 q 433 756 331 756 q 585 724 518 756 q 694 633 651 693 q 751 490 738 574 l 608 481 q 546 589 592 551 q 435 626 500 626 q 288 558 342 626 q 235 369 235 489 q 288 181 235 250 q 435 113 342 113 q 549 152 501 113 q 613 269 597 192 l 756 261 q 697 115 742 176 q 585 18 653 53 q 433 -17 518 -17 z "},"т":{"ha":833,"x_min":90,"x_max":744,"o":"m 350 0 l 350 619 l 90 619 l 90 739 l 744 739 l 744 619 l 485 619 l 485 0 l 350 0 z "},"у":{"ha":833,"x_min":65,"x_max":772,"o":"m 181 -208 l 181 -90 l 271 -90 q 328 -78 310 -90 q 357 -40 347 -67 l 382 25 l 335 25 l 65 739 l 217 739 l 426 157 l 622 739 l 772 739 l 478 -83 q 409 -179 456 -150 q 285 -208 363 -208 l 181 -208 z "},"ў":{"ha":833,"x_min":65,"x_max":772,"o":"m 181 -208 l 181 -90 l 271 -90 q 328 -78 310 -90 q 357 -40 347 -67 l 382 25 l 335 25 l 65 739 l 217 739 l 426 157 l 622 739 l 772 739 l 478 -83 q 409 -179 456 -150 q 285 -208 363 -208 l 181 -208 m 421 832 q 279 883 333 832 q 221 1019 225 935 l 313 1019 q 348 949 319 971 q 421 928 376 928 q 495 949 467 928 q 529 1019 524 971 l 621 1019 q 563 883 617 935 q 421 832 508 832 z "},"ф":{"ha":833,"x_min":28,"x_max":806,"o":"m 415 33 q 212 76 299 33 q 76 195 125 118 q 28 374 28 272 q 76 553 28 476 q 212 672 125 629 q 415 714 299 714 q 620 672 533 714 q 756 553 707 629 q 806 374 806 476 q 756 195 806 272 q 620 76 707 118 q 415 33 533 33 m 415 161 q 597 218 531 161 q 664 374 664 275 q 597 529 664 472 q 415 586 531 586 q 235 529 301 586 q 168 374 168 472 q 235 218 168 275 q 415 161 301 161 m 350 -208 l 350 986 l 483 986 l 483 -208 l 350 -208 z "},"х":{"ha":833,"x_min":65,"x_max":768,"o":"m 65 0 l 335 379 l 79 739 l 238 739 l 418 475 l 594 739 l 756 739 l 501 376 l 768 0 l 608 0 l 418 283 l 226 0 l 65 0 z "},"ч":{"ha":833,"x_min":92,"x_max":713,"o":"m 581 0 l 581 403 l 604 449 q 572 331 603 383 q 487 250 540 279 q 367 221 433 221 q 166 306 240 221 q 92 535 92 390 l 92 739 l 225 739 l 225 546 q 267 398 225 453 q 381 343 308 343 q 486 368 442 343 q 556 439 531 393 q 581 547 581 485 l 581 739 l 713 739 l 713 0 l 581 0 z "},"ц":{"ha":833,"x_min":110,"x_max":813,"o":"m 681 -208 l 681 117 l 813 117 l 813 -208 l 681 -208 m 546 0 l 546 117 l 710 117 l 710 0 l 546 0 m 110 739 l 243 739 l 243 117 l 579 117 l 579 739 l 713 739 l 713 0 l 110 0 l 110 739 z "},"ш":{"ha":833,"x_min":71,"x_max":763,"o":"m 71 0 l 71 739 l 203 739 l 203 0 l 71 0 m 71 0 l 71 117 l 763 117 l 763 0 l 71 0 m 351 0 l 351 739 l 482 739 l 482 0 l 351 0 m 629 0 l 629 739 l 763 739 l 763 0 l 629 0 z "},"щ":{"ha":833,"x_min":68,"x_max":819,"o":"m 688 -210 l 688 117 l 819 117 l 819 -210 l 688 -210 m 553 0 l 553 117 l 717 117 l 717 0 l 553 0 m 68 0 l 68 739 l 199 739 l 199 0 l 68 0 m 68 0 l 68 117 l 751 117 l 751 0 l 68 0 m 346 0 l 346 739 l 475 739 l 475 0 l 346 0 m 621 0 l 621 739 l 751 739 l 751 0 l 621 0 z "},"џ":{"ha":833,"x_min":115,"x_max":718,"o":"m 350 -208 l 350 40 l 483 40 l 483 -208 l 350 -208 m 115 739 l 249 739 l 249 117 l 585 117 l 585 739 l 718 739 l 718 0 l 115 0 l 115 739 z "},"ь":{"ha":833,"x_min":108,"x_max":751,"o":"m 108 0 l 108 739 l 240 739 l 240 469 l 435 469 q 669 408 586 469 q 751 233 751 346 q 669 61 751 122 q 435 0 586 0 l 108 0 m 240 118 l 428 118 q 565 147 519 118 q 611 235 611 176 q 565 323 611 293 q 428 353 519 353 l 240 353 l 240 118 z "},"ы":{"ha":833,"x_min":44,"x_max":789,"o":"m 44 0 l 44 739 l 176 739 l 176 469 l 272 469 q 508 408 426 469 q 589 233 589 347 q 508 60 589 121 q 272 0 426 0 l 44 0 m 176 118 l 267 118 q 405 147 360 118 q 450 235 450 175 q 404 324 450 294 q 267 353 358 353 l 176 353 l 176 118 m 657 0 l 657 739 l 789 739 l 789 0 l 657 0 z "},"ъ":{"ha":833,"x_min":14,"x_max":775,"o":"m 14 622 l 14 739 l 239 739 l 239 622 l 14 622 m 132 0 l 132 739 l 264 739 l 264 469 l 458 469 q 692 408 610 469 q 775 233 775 346 q 692 61 775 122 q 458 0 610 0 l 132 0 m 264 118 l 453 118 q 590 147 543 118 q 636 235 636 176 q 590 323 636 293 q 453 353 543 353 l 264 353 l 264 118 z "},"љ":{"ha":833,"x_min":6,"x_max":829,"o":"m 6 0 l 6 128 l 17 128 q 72 153 51 128 q 97 228 92 178 l 149 739 l 506 739 l 506 0 l 374 0 l 374 622 l 269 622 l 229 206 q 174 52 219 104 q 44 0 128 0 l 6 0 m 372 0 l 372 739 l 506 739 l 506 469 l 574 469 q 763 408 697 469 q 829 233 829 347 q 763 60 829 121 q 574 0 697 0 l 372 0 m 506 118 l 575 118 q 662 149 632 118 q 692 235 692 179 q 662 322 692 290 q 575 353 632 353 l 506 353 l 506 118 z "},"њ":{"ha":833,"x_min":26,"x_max":815,"o":"m 358 0 l 358 739 l 492 739 l 492 469 l 560 469 q 749 408 683 469 q 815 233 815 347 q 749 60 815 121 q 560 0 683 0 l 358 0 m 26 0 l 26 739 l 158 739 l 158 0 l 26 0 m 53 353 l 53 469 l 454 469 l 454 353 l 53 353 m 492 118 l 561 118 q 648 149 618 118 q 678 235 678 179 q 648 322 678 290 q 561 353 618 353 l 492 353 l 492 118 z "},"ѕ":{"ha":833,"x_min":104,"x_max":729,"o":"m 428 -17 q 258 17 329 -17 q 149 106 188 50 q 104 232 110 163 l 247 240 q 303 145 258 181 q 429 110 347 110 q 546 131 506 110 q 586 196 586 151 q 572 242 586 224 q 520 274 558 261 q 408 301 482 288 q 237 351 299 322 q 149 423 175 379 q 122 529 122 467 q 155 644 122 593 q 251 726 188 696 q 410 756 315 756 q 572 722 508 756 q 672 633 636 688 q 718 515 708 579 l 575 507 q 546 570 567 543 q 490 613 525 597 q 410 629 456 629 q 301 600 336 629 q 267 529 267 571 q 283 476 267 496 q 339 442 300 456 q 444 417 378 429 q 618 370 557 399 q 704 300 679 342 q 729 197 729 258 q 691 83 729 131 q 585 9 653 35 q 428 -17 518 -17 z "},"є":{"ha":833,"x_min":81,"x_max":751,"o":"m 422 -17 q 243 31 321 -17 q 123 166 165 79 q 81 369 81 253 q 123 574 81 488 q 243 708 165 660 q 422 756 321 756 q 575 722 507 756 q 688 625 643 688 q 751 476 733 563 l 610 476 q 542 592 590 551 q 422 632 493 632 q 274 562 328 632 q 219 369 219 492 q 274 177 219 247 q 422 107 328 107 q 540 147 492 107 q 608 258 589 186 l 750 258 q 688 111 733 172 q 574 17 642 50 q 422 -17 507 -17 m 457 310 l 132 310 l 132 429 l 457 429 l 457 310 z "},"э":{"ha":833,"x_min":82,"x_max":753,"o":"m 411 -17 q 259 17 326 -17 q 147 111 192 50 q 83 258 101 172 l 225 258 q 293 147 244 186 q 411 107 342 107 q 560 177 507 107 q 614 369 614 247 q 560 562 614 492 q 411 632 507 632 q 292 592 340 632 q 224 476 243 551 l 82 476 q 145 625 100 563 q 258 722 190 688 q 411 756 326 756 q 591 708 514 756 q 710 574 668 660 q 753 369 753 488 q 710 166 753 253 q 591 31 668 79 q 411 -17 514 -17 m 376 310 l 376 429 l 701 429 l 701 310 l 376 310 z "},"і":{"ha":833,"x_min":106,"x_max":783,"o":"m 394 0 l 394 739 l 536 739 l 536 0 l 394 0 m 106 0 l 106 118 l 783 118 l 783 0 l 106 0 m 119 621 l 119 739 l 524 739 l 524 621 l 119 621 m 386 846 l 386 992 l 531 992 l 531 846 l 386 846 z "},"ї":{"ha":833,"x_min":106,"x_max":783,"o":"m 394 0 l 394 739 l 536 739 l 536 0 l 394 0 m 106 0 l 106 118 l 783 118 l 783 0 l 106 0 m 119 621 l 119 739 l 524 739 l 524 621 l 119 621 m 251 844 l 251 990 l 396 990 l 396 844 l 251 844 m 524 844 l 524 990 l 668 990 l 668 844 l 524 844 z "},"ј":{"ha":833,"x_min":147,"x_max":625,"o":"m 147 -208 l 147 -90 l 372 -90 q 456 -65 429 -90 q 483 26 483 -40 l 483 739 l 625 739 l 625 18 q 567 -150 625 -92 q 388 -208 510 -208 l 147 -208 m 158 621 l 158 739 l 560 739 l 560 621 l 158 621 m 479 846 l 479 992 l 624 992 l 624 846 l 479 846 z "},"ћ":{"ha":833,"x_min":46,"x_max":726,"o":"m 129 0 l 129 986 l 269 986 l 269 578 l 256 583 q 303 681 269 643 q 383 738 336 719 q 488 756 431 756 q 619 720 565 756 q 699 622 672 685 q 726 476 726 558 l 726 0 l 586 0 l 586 440 q 551 587 586 540 q 446 633 515 633 q 318 583 367 633 q 269 436 269 533 l 269 0 l 129 0 m 46 806 l 46 910 l 479 910 l 479 806 l 46 806 z "},"ю":{"ha":833,"x_min":25,"x_max":797,"o":"m 517 -17 q 364 28 426 -17 q 269 159 301 72 q 236 369 236 246 q 269 580 236 493 q 364 711 301 667 q 517 756 426 756 q 669 711 607 756 q 765 580 732 667 q 797 369 797 493 q 765 159 797 246 q 669 28 732 72 q 517 -17 607 -17 m 25 0 l 25 739 l 157 739 l 157 0 l 25 0 m 75 311 l 75 428 l 306 428 l 306 311 l 75 311 m 517 107 q 623 175 586 107 q 660 369 660 243 q 623 565 660 497 q 517 632 586 632 q 410 565 447 632 q 374 369 374 497 q 410 175 374 243 q 517 107 447 107 z "},"я":{"ha":833,"x_min":108,"x_max":708,"o":"m 108 0 l 286 304 q 168 389 210 335 q 126 513 126 443 q 203 680 126 621 q 424 739 281 739 l 708 739 l 708 0 l 576 0 l 576 279 l 424 279 l 261 0 l 108 0 m 421 396 l 576 396 l 576 624 l 421 624 q 307 594 347 624 q 267 510 267 564 q 307 426 267 456 q 421 396 347 396 z "},"ђ":{"ha":833,"x_min":29,"x_max":721,"o":"m 136 0 l 136 990 l 268 990 l 268 572 l 250 581 q 299 678 264 640 q 381 736 333 717 q 483 756 429 756 q 609 722 556 756 q 692 624 663 688 q 721 475 721 561 l 721 19 l 589 19 l 589 424 q 553 574 589 524 q 446 625 517 625 q 317 573 365 625 q 268 424 268 521 l 268 0 l 136 0 m 453 -210 l 453 -92 l 507 -92 q 550 -79 532 -92 q 578 -44 568 -67 q 589 10 589 -21 l 589 332 l 721 332 l 721 10 q 672 -150 721 -90 q 529 -210 624 -210 l 453 -210 m 29 810 l 29 918 l 414 918 l 414 810 l 29 810 z "},"ѣ":{"ha":833,"x_min":13,"x_max":811,"o":"m 176 0 l 176 990 l 308 990 l 308 497 l 486 497 q 726 432 642 497 q 811 247 811 367 q 726 65 811 129 q 486 0 642 0 l 176 0 m 308 118 l 489 118 q 624 152 576 118 q 672 247 672 186 q 624 346 672 311 q 489 381 576 381 l 308 381 l 308 118 m 13 738 l 13 857 l 472 857 l 472 738 l 13 738 z "},"ѫ":{"ha":833,"x_min":18,"x_max":814,"o":"m 18 0 l 125 290 q 192 375 144 347 q 293 403 240 403 l 539 403 q 641 375 593 403 q 708 290 689 347 l 814 0 l 667 0 l 592 235 q 558 283 579 272 q 504 294 536 294 l 328 294 q 275 283 296 294 q 242 235 254 272 l 167 0 l 18 0 m 349 0 l 349 400 l 483 400 l 483 0 l 349 0 m 336 328 l 60 622 l 213 622 l 489 328 l 336 328 m 346 328 l 621 622 l 775 622 l 499 328 l 346 328 m 60 622 l 60 739 l 775 739 l 775 622 l 60 622 z "},"ѳ":{"ha":833,"x_min":75,"x_max":758,"o":"m 125 279 l 115 415 q 171 449 143 436 q 225 463 199 461 q 304 460 260 467 q 388 436 349 454 q 465 403 435 415 q 514 385 494 390 q 549 380 533 381 q 583 381 565 379 q 640 398 614 383 q 689 439 665 413 l 697 306 q 649 276 674 289 q 601 263 625 264 q 553 263 576 261 q 494 276 531 265 q 396 315 458 288 q 315 342 356 335 q 243 346 274 349 q 180 325 210 343 q 125 279 150 307 m 417 -17 q 237 31 314 -17 q 117 165 160 78 q 75 369 75 253 q 117 574 75 488 q 237 708 160 661 q 417 756 314 756 q 597 708 519 756 q 716 574 674 661 q 758 369 758 488 q 716 165 758 253 q 597 31 674 78 q 417 -17 519 -17 m 417 113 q 560 181 510 113 q 611 369 611 249 q 560 558 611 490 q 417 626 510 626 q 273 558 324 626 q 222 369 222 490 q 273 181 222 249 q 417 113 324 113 z "},"ѵ":{"ha":833,"x_min":50,"x_max":807,"o":"m 318 0 l 50 739 l 192 739 l 396 151 l 538 558 q 628 692 567 646 q 776 739 690 739 l 807 739 l 807 619 l 793 619 q 715 594 747 619 q 664 518 683 568 l 475 0 l 318 0 z "},"җ":{"ha":833,"x_min":13,"x_max":821,"o":"m 689 -208 l 689 19 l 689 103 l 821 103 l 821 -208 l 689 -208 m 13 0 l 215 369 l 358 369 l 160 0 l 13 0 m 349 0 l 349 739 l 479 739 l 479 0 l 349 0 m 667 0 l 468 369 l 611 369 l 814 0 l 667 0 m 468 369 l 658 739 l 804 739 l 611 369 l 468 369 m 215 369 l 22 739 l 169 739 l 358 369 l 215 369 z "},"қ":{"ha":833,"x_min":115,"x_max":782,"o":"m 649 -208 l 649 36 l 649 103 l 782 103 l 782 -208 l 649 -208 m 593 0 l 240 369 l 414 369 l 776 0 l 593 0 m 115 0 l 115 739 l 250 739 l 250 0 l 115 0 m 240 369 l 579 739 l 760 739 l 414 369 l 240 369 z "},"ң":{"ha":833,"x_min":114,"x_max":806,"o":"m 674 -208 l 674 103 l 806 103 l 806 -208 l 674 -208 m 114 0 l 114 739 l 249 739 l 249 0 l 114 0 m 124 310 l 124 426 l 700 426 l 700 310 l 124 310 m 579 0 l 579 739 l 714 739 l 714 0 l 579 0 z "},"ү":{"ha":833,"x_min":69,"x_max":764,"o":"m 351 0 l 69 739 l 213 739 l 417 165 l 621 739 l 764 739 l 482 0 l 351 0 m 350 -208 l 350 81 l 483 81 l 483 -208 l 350 -208 z "},"ұ":{"ha":833,"x_min":69,"x_max":764,"o":"m 179 -57 l 179 60 l 653 60 l 653 -57 l 179 -57 m 351 0 l 69 739 l 213 739 l 417 165 l 621 739 l 764 739 l 482 0 l 351 0 m 350 -208 l 350 81 l 483 81 l 483 -208 l 350 -208 z "},"ҳ":{"ha":833,"x_min":65,"x_max":796,"o":"m 664 -208 l 664 103 l 796 103 l 796 -208 l 664 -208 m 65 0 l 335 379 l 79 739 l 238 739 l 418 475 l 594 739 l 756 739 l 501 376 l 768 0 l 608 0 l 418 283 l 226 0 l 65 0 z "},"ҷ":{"ha":833,"x_min":92,"x_max":807,"o":"m 675 -210 l 675 103 l 807 103 l 807 -210 l 675 -210 m 576 0 l 576 403 l 599 449 q 567 331 599 383 q 483 250 536 279 q 364 221 431 221 q 165 306 239 221 q 92 535 92 390 l 92 739 l 222 739 l 222 546 q 264 398 222 453 q 376 343 306 343 q 482 368 438 343 q 551 439 526 393 q 576 547 576 485 l 576 739 l 707 739 l 707 0 l 576 0 z "},"һ":{"ha":833,"x_min":129,"x_max":726,"o":"m 129 0 l 129 986 l 269 986 l 269 578 l 256 583 q 303 681 269 643 q 383 738 336 719 q 488 756 431 756 q 619 720 565 756 q 699 622 672 685 q 726 476 726 558 l 726 0 l 586 0 l 586 440 q 551 587 586 540 q 446 633 515 633 q 318 583 367 633 q 269 436 269 533 l 269 0 l 129 0 z "},"ӏ":{"ha":833,"x_min":108,"x_max":725,"o":"m 108 0 l 108 138 l 344 138 l 344 849 l 108 849 l 108 986 l 725 986 l 725 849 l 489 849 l 489 138 l 725 138 l 725 0 l 108 0 z "},"ә":{"ha":833,"x_min":78,"x_max":750,"o":"m 407 756 q 588 708 511 756 q 708 573 665 660 q 750 369 750 486 q 708 166 750 253 q 590 31 665 79 q 411 -17 514 -17 q 238 30 313 -17 q 120 163 163 76 q 78 372 78 250 l 78 411 l 603 411 q 545 572 597 518 q 406 626 493 626 q 297 596 340 626 q 238 514 254 565 l 90 524 q 205 692 122 629 q 407 756 288 756 m 603 299 l 229 299 q 288 158 238 204 q 411 113 338 113 q 540 160 490 113 q 603 299 590 208 z "},"ӣ":{"ha":833,"x_min":125,"x_max":710,"o":"m 125 0 l 125 739 l 257 739 l 257 206 l 560 739 l 710 739 l 710 0 l 578 0 l 578 522 l 282 0 l 125 0 m 226 861 l 226 974 l 607 974 l 607 861 l 226 861 z "},"ө":{"ha":833,"x_min":75,"x_max":758,"o":"m 136 311 l 136 428 l 674 428 l 674 311 l 136 311 m 417 -17 q 237 31 314 -17 q 117 165 160 78 q 75 369 75 253 q 117 574 75 488 q 237 708 160 661 q 417 756 314 756 q 597 708 519 756 q 716 574 674 661 q 758 369 758 488 q 716 165 758 253 q 597 31 674 78 q 417 -17 519 -17 m 417 113 q 560 181 510 113 q 611 369 611 249 q 560 558 611 490 q 417 626 510 626 q 273 558 324 626 q 222 369 222 490 q 273 181 222 249 q 417 113 324 113 z "},"ӯ":{"ha":833,"x_min":65,"x_max":772,"o":"m 181 -208 l 181 -90 l 271 -90 q 328 -78 310 -90 q 357 -40 347 -67 l 382 25 l 335 25 l 65 739 l 217 739 l 426 157 l 622 739 l 772 739 l 478 -83 q 409 -179 456 -150 q 285 -208 363 -208 l 181 -208 m 229 861 l 229 974 l 610 974 l 610 861 l 229 861 z "},"Λ":{"ha":833,"x_min":33,"x_max":800,"o":"m 33 0 l 332 986 l 501 986 l 800 0 l 660 0 l 417 836 l 174 0 l 33 0 z "},"Ω":{"ha":833,"x_min":13,"x_max":821,"o":"m 14 0 l 14 129 l 204 129 q 103 228 147 167 q 36 366 60 290 q 13 519 13 442 q 64 773 13 663 q 207 946 115 883 q 417 1008 299 1008 q 626 946 535 1008 q 769 773 718 883 q 821 519 821 663 q 797 366 821 442 q 731 228 774 290 q 629 129 688 167 l 818 129 l 818 0 l 469 0 l 469 131 q 551 163 514 132 q 617 244 589 193 q 662 364 646 296 q 678 508 678 432 q 645 701 678 618 q 553 832 613 785 q 417 879 494 879 q 281 832 340 879 q 188 701 221 785 q 156 508 156 618 q 172 364 156 432 q 216 244 188 296 q 282 163 244 193 q 364 131 319 132 l 364 0 l 14 0 z "},"λ":{"ha":833,"x_min":74,"x_max":769,"o":"m 717 0 q 618 19 658 0 q 551 78 578 38 q 501 188 524 119 l 311 797 q 281 855 300 835 q 225 875 263 875 l 142 875 l 142 990 l 228 990 q 365 948 315 990 q 444 804 414 906 l 635 194 q 653 151 643 169 q 680 125 664 133 q 719 117 696 117 l 769 117 l 769 0 l 717 0 m 74 0 l 363 742 l 461 653 l 214 0 l 74 0 z "},"π":{"ha":833,"x_min":22,"x_max":808,"o":"m 764 0 q 592 58 646 0 q 539 218 539 117 l 539 696 l 671 696 l 671 215 q 694 144 671 169 q 763 118 718 118 l 807 118 l 807 0 l 764 0 m 167 0 l 167 693 l 299 693 l 299 0 l 167 0 m 22 625 l 22 742 l 808 742 l 808 625 l 22 625 z "},"ℇ":{"ha":833,"x_min":67,"x_max":785,"o":"m 425 -22 q 238 15 318 -22 q 112 119 157 53 q 67 272 67 186 q 97 400 67 344 q 186 492 128 456 q 329 543 244 529 l 331 519 q 204 562 256 532 q 126 640 153 592 q 100 750 100 688 q 141 885 100 826 q 255 976 182 943 q 425 1008 328 1008 q 549 991 488 1008 q 664 943 610 974 q 754 871 718 913 l 665 763 q 556 849 622 815 q 428 883 490 883 q 328 866 371 883 q 264 818 286 849 q 242 744 242 788 q 269 650 242 686 q 341 598 297 614 q 428 582 385 582 l 499 583 l 499 461 l 428 463 q 312 442 361 464 q 235 379 263 419 q 208 283 208 339 q 235 190 208 231 q 312 126 263 149 q 428 103 361 103 q 524 119 474 103 q 620 167 574 136 q 700 238 667 197 l 785 126 q 691 50 749 83 q 565 -3 633 17 q 425 -22 496 -22 z "},"⓿":{"ha":833,"x_min":19,"x_max":814,"o":"m 418 211 q 582 286 521 211 q 643 492 643 361 q 582 697 643 622 q 418 771 521 771 q 254 697 315 771 q 193 492 193 622 q 254 286 193 361 q 418 211 315 211 m 418 303 q 358 324 385 303 l 524 593 q 536 492 536 551 q 506 350 536 397 q 418 303 476 303 m 314 393 q 303 439 307 414 q 300 492 300 464 q 330 633 300 588 q 418 679 360 679 q 478 663 453 679 l 314 393 m 417 -22 q 206 40 294 -22 q 68 219 117 103 q 19 493 19 335 q 68 767 19 651 q 206 945 117 882 q 417 1008 294 1008 q 628 945 539 1008 q 765 767 717 882 q 814 493 814 651 q 765 219 814 335 q 628 40 717 103 q 417 -22 539 -22 z "},"❶":{"ha":833,"x_min":19,"x_max":814,"o":"m 392 222 l 499 222 l 499 761 l 415 761 q 383 672 415 704 q 290 640 351 640 l 254 640 l 254 560 l 392 561 l 392 222 m 417 -22 q 206 40 294 -22 q 68 219 117 103 q 19 493 19 335 q 68 767 19 651 q 206 945 117 882 q 417 1008 294 1008 q 628 945 539 1008 q 765 767 717 882 q 814 493 814 651 q 765 219 814 335 q 628 40 717 103 q 417 -22 539 -22 z "},"❷":{"ha":833,"x_min":19,"x_max":814,"o":"m 229 222 l 600 222 l 600 314 l 344 314 q 362 363 344 338 q 419 408 379 388 l 478 439 q 574 509 539 471 q 608 613 608 547 q 561 727 608 683 q 428 771 514 771 q 288 724 339 771 q 229 594 238 676 l 329 590 q 359 660 336 638 q 428 682 382 682 q 483 663 461 682 q 506 611 506 644 q 499 572 506 588 q 478 543 493 556 q 439 517 464 531 l 369 479 q 278 412 308 447 q 239 331 249 376 q 229 222 229 286 m 417 -22 q 206 40 294 -22 q 68 219 117 103 q 19 493 19 335 q 68 767 19 651 q 206 945 117 882 q 417 1008 294 1008 q 628 945 539 1008 q 765 767 717 882 q 814 493 814 651 q 765 219 814 335 q 628 40 717 103 q 417 -22 539 -22 z "},"❸":{"ha":833,"x_min":19,"x_max":814,"o":"m 417 211 q 563 256 507 211 q 618 375 618 300 q 592 458 618 422 q 497 508 565 493 q 568 549 543 521 q 593 625 593 576 q 548 730 593 689 q 410 771 503 771 q 280 729 326 771 q 225 622 233 688 l 329 615 q 352 662 332 643 q 411 681 372 681 q 469 661 450 681 q 488 611 488 642 q 467 562 488 579 q 411 544 446 544 l 375 544 l 375 460 l 411 460 q 488 438 463 460 q 513 379 513 415 q 488 321 513 342 q 417 300 463 300 q 346 319 368 300 q 321 369 324 339 l 218 365 q 265 253 222 294 q 417 211 308 211 m 417 -22 q 206 40 294 -22 q 68 219 117 103 q 19 493 19 335 q 68 767 19 651 q 206 945 117 882 q 417 1008 294 1008 q 628 945 539 1008 q 765 767 717 882 q 814 493 814 651 q 765 219 814 335 q 628 40 717 103 q 417 -22 539 -22 z "},"❹":{"ha":833,"x_min":19,"x_max":814,"o":"m 454 222 l 561 222 l 561 340 l 633 340 l 633 431 l 561 431 l 561 760 l 453 760 l 203 421 l 203 340 l 454 340 l 454 222 m 311 431 l 454 617 l 454 431 l 311 431 m 417 -22 q 206 40 294 -22 q 68 219 117 103 q 19 493 19 335 q 68 767 19 651 q 206 945 117 882 q 417 1008 294 1008 q 628 945 539 1008 q 765 767 717 882 q 814 493 814 651 q 765 219 814 335 q 628 40 717 103 q 417 -22 539 -22 z "},"❺":{"ha":833,"x_min":19,"x_max":814,"o":"m 411 211 q 560 260 506 211 q 614 397 614 310 q 572 528 614 476 q 443 579 529 579 q 384 570 411 579 q 340 543 357 561 l 357 671 l 581 671 l 581 760 l 264 760 l 231 446 l 329 446 q 367 483 344 469 q 424 497 389 497 q 489 469 468 497 q 510 399 510 440 q 484 325 510 350 q 414 300 458 300 q 354 315 376 300 q 325 361 332 331 l 222 356 q 278 249 229 288 q 411 211 326 211 m 417 -22 q 206 40 294 -22 q 68 219 117 103 q 19 493 19 335 q 68 767 19 651 q 206 945 117 882 q 417 1008 294 1008 q 628 945 539 1008 q 765 767 717 882 q 814 493 814 651 q 765 219 814 335 q 628 40 717 103 q 417 -22 539 -22 z "},"❻":{"ha":833,"x_min":19,"x_max":814,"o":"m 417 211 q 568 261 510 211 q 626 401 626 311 q 572 542 626 496 q 435 589 518 589 q 361 574 392 589 q 315 535 331 558 q 351 644 319 606 q 435 683 382 683 q 495 669 474 683 q 524 626 517 656 l 621 636 q 563 737 607 703 q 436 771 519 771 q 306 730 356 771 q 233 619 256 689 q 210 464 210 550 q 267 275 210 339 q 417 211 324 211 m 419 300 q 344 328 372 300 q 317 404 315 357 q 331 458 318 436 q 367 492 344 481 q 421 504 390 504 q 499 478 472 504 q 525 404 525 451 q 497 328 525 357 q 419 300 469 300 m 417 -22 q 206 40 294 -22 q 68 219 117 103 q 19 493 19 335 q 68 767 19 651 q 206 945 117 882 q 417 1008 294 1008 q 628 945 539 1008 q 765 767 717 882 q 814 493 814 651 q 765 219 814 335 q 628 40 717 103 q 417 -22 539 -22 z "},"❼":{"ha":833,"x_min":19,"x_max":814,"o":"m 329 222 l 433 222 q 453 397 433 317 q 511 547 474 476 q 603 686 549 618 l 603 761 l 233 761 l 233 669 l 486 669 q 401 532 436 604 q 348 382 367 460 q 329 222 329 304 m 417 -22 q 206 40 294 -22 q 68 219 117 103 q 19 493 19 335 q 68 767 19 651 q 206 945 117 882 q 417 1008 294 1008 q 628 945 539 1008 q 765 767 717 882 q 814 493 814 651 q 765 219 814 335 q 628 40 717 103 q 417 -22 539 -22 z "},"❽":{"ha":833,"x_min":19,"x_max":814,"o":"m 418 211 q 575 253 524 211 q 626 367 626 294 q 596 454 626 417 q 513 513 565 492 q 578 553 554 526 q 601 632 601 581 q 556 734 601 697 q 418 771 511 771 q 281 734 326 771 q 235 632 235 697 q 258 553 235 581 q 324 513 282 526 q 240 455 269 493 q 210 367 210 417 q 262 253 210 294 q 418 211 314 211 m 418 300 q 344 319 371 300 q 317 376 317 338 q 344 440 317 414 q 418 465 371 465 q 493 440 467 465 q 519 376 519 414 q 493 319 519 338 q 418 300 467 300 m 418 550 q 361 567 382 550 q 340 619 340 585 q 360 666 340 650 q 418 682 381 682 q 476 666 456 682 q 496 619 496 650 q 475 567 496 585 q 418 550 454 550 m 417 -22 q 206 40 294 -22 q 68 219 117 103 q 19 493 19 335 q 68 767 19 651 q 206 945 117 882 q 417 1008 294 1008 q 628 945 539 1008 q 765 767 717 882 q 814 493 814 651 q 765 219 814 335 q 628 40 717 103 q 417 -22 539 -22 z "},"❾":{"ha":833,"x_min":19,"x_max":814,"o":"m 400 211 q 531 252 481 211 q 603 363 581 293 q 626 518 626 432 q 570 707 626 643 q 419 771 514 771 q 268 721 326 771 q 210 581 210 671 q 264 440 210 486 q 401 393 318 393 q 476 409 446 393 q 521 447 507 425 q 485 338 517 376 q 401 299 454 299 q 342 313 363 299 q 313 356 321 328 l 215 346 q 273 245 229 279 q 400 211 317 211 m 415 478 q 338 504 364 478 q 311 578 311 531 q 339 653 311 625 q 417 682 367 682 q 493 653 465 682 q 519 578 521 625 q 506 524 519 546 q 470 490 493 501 q 415 478 447 478 m 417 -22 q 206 40 294 -22 q 68 219 117 103 q 19 493 19 335 q 68 767 19 651 q 206 945 117 882 q 417 1008 294 1008 q 628 945 539 1008 q 765 767 717 882 q 814 493 814 651 q 765 219 814 335 q 628 40 717 103 q 417 -22 539 -22 z "},"⓪":{"ha":833,"x_min":17,"x_max":817,"o":"m 417 -22 q 202 38 292 -22 q 65 214 113 99 q 17 493 17 329 q 65 772 17 657 q 202 948 113 888 q 417 1008 292 1008 q 631 948 542 1008 q 769 772 721 888 q 817 493 817 657 q 769 214 817 329 q 631 38 721 99 q 417 -22 542 -22 m 417 74 q 578 122 510 74 q 683 265 646 171 q 719 493 719 358 q 683 722 719 629 q 578 864 646 815 q 417 913 510 913 q 256 864 324 913 q 151 722 188 815 q 114 493 114 629 q 151 265 114 358 q 256 122 188 171 q 417 74 324 74 m 418 211 q 254 286 315 211 q 193 492 193 361 q 254 697 193 622 q 418 771 315 771 q 582 697 521 771 q 643 492 643 622 q 582 286 643 361 q 418 211 521 211 m 418 303 q 506 350 476 303 q 536 492 536 397 q 506 631 536 583 q 418 679 475 679 q 330 633 360 679 q 300 492 300 588 q 333 354 300 406 q 418 303 365 303 m 343 297 l 299 368 l 493 689 l 538 619 l 343 297 z "},"①":{"ha":833,"x_min":17,"x_max":817,"o":"m 417 -22 q 202 38 292 -22 q 65 214 113 99 q 17 493 17 329 q 65 772 17 657 q 202 948 113 888 q 417 1008 292 1008 q 631 948 542 1008 q 769 772 721 888 q 817 493 817 657 q 769 214 817 329 q 631 38 721 99 q 417 -22 542 -22 m 417 74 q 578 122 510 74 q 683 265 646 171 q 719 493 719 358 q 683 722 719 629 q 578 864 646 815 q 417 913 510 913 q 256 864 324 913 q 151 722 188 815 q 114 493 114 629 q 151 265 114 358 q 256 122 188 171 q 417 74 324 74 m 392 222 l 392 561 l 254 560 l 254 640 l 290 640 q 383 672 351 640 q 415 761 415 704 l 499 761 l 499 222 l 392 222 z "},"②":{"ha":833,"x_min":17,"x_max":817,"o":"m 417 -22 q 202 38 292 -22 q 65 214 113 99 q 17 493 17 329 q 65 772 17 657 q 202 948 113 888 q 417 1008 292 1008 q 631 948 542 1008 q 769 772 721 888 q 817 493 817 657 q 769 214 817 329 q 631 38 721 99 q 417 -22 542 -22 m 417 74 q 578 122 510 74 q 683 265 646 171 q 719 493 719 358 q 683 722 719 629 q 578 864 646 815 q 417 913 510 913 q 256 864 324 913 q 151 722 188 815 q 114 493 114 629 q 151 265 114 358 q 256 122 188 171 q 417 74 324 74 m 229 222 q 239 331 229 286 q 278 412 249 376 q 369 479 308 447 l 439 517 q 478 543 464 531 q 499 572 493 556 q 506 611 506 588 q 483 663 506 644 q 428 682 461 682 q 359 660 382 682 q 329 590 336 638 l 229 594 q 288 724 238 676 q 428 771 339 771 q 561 727 514 771 q 608 613 608 683 q 574 509 608 547 q 478 439 539 471 l 419 408 q 362 363 379 388 q 344 314 344 338 l 600 314 l 600 222 l 229 222 z "},"③":{"ha":833,"x_min":17,"x_max":817,"o":"m 417 -22 q 202 38 292 -22 q 65 214 113 99 q 17 493 17 329 q 65 772 17 657 q 202 948 113 888 q 417 1008 292 1008 q 631 948 542 1008 q 769 772 721 888 q 817 493 817 657 q 769 214 817 329 q 631 38 721 99 q 417 -22 542 -22 m 417 74 q 578 122 510 74 q 683 265 646 171 q 719 493 719 358 q 683 722 719 629 q 578 864 646 815 q 417 913 510 913 q 256 864 324 913 q 151 722 188 815 q 114 493 114 629 q 151 265 114 358 q 256 122 188 171 q 417 74 324 74 m 417 211 q 265 253 308 211 q 218 365 222 294 l 321 369 q 346 319 324 339 q 417 300 368 300 q 488 321 463 300 q 513 379 513 342 q 488 438 513 415 q 411 460 463 460 l 375 460 l 375 544 l 411 544 q 467 562 446 544 q 488 611 488 579 q 469 661 488 642 q 411 681 450 681 q 352 662 372 681 q 329 615 332 643 l 225 622 q 280 729 233 688 q 410 771 326 771 q 548 730 503 771 q 593 625 593 689 q 568 549 593 576 q 497 508 543 521 q 592 458 565 493 q 618 375 618 422 q 563 256 618 300 q 417 211 507 211 z "},"④":{"ha":833,"x_min":17,"x_max":817,"o":"m 417 -22 q 202 38 292 -22 q 65 214 113 99 q 17 493 17 329 q 65 772 17 657 q 202 948 113 888 q 417 1008 292 1008 q 631 948 542 1008 q 769 772 721 888 q 817 493 817 657 q 769 214 817 329 q 631 38 721 99 q 417 -22 542 -22 m 417 74 q 578 122 510 74 q 683 265 646 171 q 719 493 719 358 q 683 722 719 629 q 578 864 646 815 q 417 913 510 913 q 256 864 324 913 q 151 722 188 815 q 114 493 114 629 q 151 265 114 358 q 256 122 188 171 q 417 74 324 74 m 454 222 l 454 340 l 203 340 l 203 421 l 453 760 l 561 760 l 561 431 l 633 431 l 633 340 l 561 340 l 561 222 l 454 222 m 311 431 l 454 431 l 454 617 l 311 431 z "},"⑤":{"ha":833,"x_min":17,"x_max":817,"o":"m 417 -22 q 202 38 292 -22 q 65 214 113 99 q 17 493 17 329 q 65 772 17 657 q 202 948 113 888 q 417 1008 292 1008 q 631 948 542 1008 q 769 772 721 888 q 817 493 817 657 q 769 214 817 329 q 631 38 721 99 q 417 -22 542 -22 m 417 74 q 578 122 510 74 q 683 265 646 171 q 719 493 719 358 q 683 722 719 629 q 578 864 646 815 q 417 913 510 913 q 256 864 324 913 q 151 722 188 815 q 114 493 114 629 q 151 265 114 358 q 256 122 188 171 q 417 74 324 74 m 411 211 q 277 249 326 211 q 221 356 228 288 l 325 361 q 354 315 332 331 q 414 300 376 300 q 484 325 458 300 q 510 399 510 350 q 488 469 510 440 q 424 497 467 497 q 367 483 389 497 q 329 446 344 469 l 231 446 l 264 760 l 581 760 l 581 671 l 357 671 l 340 543 q 383 570 356 561 q 443 579 411 579 q 571 528 529 579 q 613 397 613 476 q 558 260 613 310 q 411 211 504 211 z "},"⑥":{"ha":833,"x_min":17,"x_max":817,"o":"m 417 -22 q 202 38 292 -22 q 65 214 113 99 q 17 493 17 329 q 65 772 17 657 q 202 948 113 888 q 417 1008 292 1008 q 631 948 542 1008 q 769 772 721 888 q 817 493 817 657 q 769 214 817 329 q 631 38 721 99 q 417 -22 542 -22 m 417 74 q 578 122 510 74 q 683 265 646 171 q 719 493 719 358 q 683 722 719 629 q 578 864 646 815 q 417 913 510 913 q 256 864 324 913 q 151 722 188 815 q 114 493 114 629 q 151 265 114 358 q 256 122 188 171 q 417 74 324 74 m 417 211 q 267 275 324 211 q 210 464 210 339 q 233 619 210 550 q 306 730 256 689 q 436 771 356 771 q 563 737 519 771 q 621 636 607 703 l 524 626 q 495 669 517 656 q 435 683 474 683 q 351 644 382 683 q 315 535 319 606 q 361 574 331 558 q 435 589 392 589 q 572 542 518 589 q 626 401 626 496 q 568 261 626 311 q 417 211 510 211 m 419 300 q 497 328 469 300 q 525 404 525 357 q 499 478 525 451 q 421 504 472 504 q 367 492 390 504 q 331 458 344 481 q 317 404 318 436 q 344 328 315 357 q 419 300 372 300 z "},"⑦":{"ha":833,"x_min":17,"x_max":817,"o":"m 417 -22 q 202 38 292 -22 q 65 214 113 99 q 17 493 17 329 q 65 772 17 657 q 202 948 113 888 q 417 1008 292 1008 q 631 948 542 1008 q 769 772 721 888 q 817 493 817 657 q 769 214 817 329 q 631 38 721 99 q 417 -22 542 -22 m 417 74 q 578 122 510 74 q 683 265 646 171 q 719 493 719 358 q 683 722 719 629 q 578 864 646 815 q 417 913 510 913 q 256 864 324 913 q 151 722 188 815 q 114 493 114 629 q 151 265 114 358 q 256 122 188 171 q 417 74 324 74 m 329 222 q 348 382 329 304 q 401 532 367 460 q 486 669 436 604 l 233 669 l 233 761 l 603 761 l 603 686 q 511 547 549 618 q 453 397 474 476 q 433 222 433 317 l 329 222 z "},"⑧":{"ha":833,"x_min":17,"x_max":817,"o":"m 417 -22 q 202 38 292 -22 q 65 214 113 99 q 17 493 17 329 q 65 772 17 657 q 202 948 113 888 q 417 1008 292 1008 q 631 948 542 1008 q 769 772 721 888 q 817 493 817 657 q 769 214 817 329 q 631 38 721 99 q 417 -22 542 -22 m 417 74 q 578 122 510 74 q 683 265 646 171 q 719 493 719 358 q 683 722 719 629 q 578 864 646 815 q 417 913 510 913 q 256 864 324 913 q 151 722 188 815 q 114 493 114 629 q 151 265 114 358 q 256 122 188 171 q 417 74 324 74 m 418 211 q 262 253 314 211 q 210 367 210 294 q 240 455 210 417 q 324 513 269 493 q 258 553 282 526 q 235 632 235 581 q 281 734 235 697 q 418 771 326 771 q 556 734 511 771 q 601 632 601 697 q 578 553 601 581 q 513 513 554 526 q 596 454 565 492 q 626 367 626 417 q 575 253 626 294 q 418 211 524 211 m 418 300 q 493 319 467 300 q 519 376 519 338 q 493 440 519 414 q 418 465 467 465 q 344 440 371 465 q 317 376 317 414 q 344 319 317 338 q 418 300 371 300 m 418 550 q 475 567 454 550 q 496 619 496 585 q 476 666 496 650 q 418 682 456 682 q 360 666 381 682 q 340 619 340 650 q 361 567 340 585 q 418 550 382 550 z "},"⑨":{"ha":833,"x_min":17,"x_max":817,"o":"m 417 -22 q 202 38 292 -22 q 65 214 113 99 q 17 493 17 329 q 65 772 17 657 q 202 948 113 888 q 417 1008 292 1008 q 631 948 542 1008 q 769 772 721 888 q 817 493 817 657 q 769 214 817 329 q 631 38 721 99 q 417 -22 542 -22 m 417 74 q 578 122 510 74 q 683 265 646 171 q 719 493 719 358 q 683 722 719 629 q 578 864 646 815 q 417 913 510 913 q 256 864 324 913 q 151 722 188 815 q 114 493 114 629 q 151 265 114 358 q 256 122 188 171 q 417 74 324 74 m 419 771 q 570 707 514 771 q 626 518 626 643 q 603 363 626 432 q 531 252 581 293 q 400 211 481 211 q 273 245 317 211 q 215 346 229 279 l 313 356 q 342 313 321 328 q 401 299 363 299 q 485 338 454 299 q 521 447 517 376 q 476 409 507 425 q 401 393 446 393 q 264 440 318 393 q 210 581 210 486 q 268 721 210 671 q 419 771 326 771 m 417 682 q 339 653 367 682 q 311 578 311 625 q 338 504 311 531 q 415 478 364 478 q 470 490 447 478 q 506 524 493 501 q 519 578 519 546 q 493 653 521 625 q 417 682 465 682 z "},"⁄":{"ha":833,"x_min":53,"x_max":781,"o":"m 474 631 l 663 986 l 781 986 l 592 631 l 474 631 m 53 0 l 242 354 l 360 354 l 171 0 l 53 0 z "},"½":{"ha":833,"x_min":50,"x_max":778,"o":"m 211 449 l 211 788 l 74 786 l 74 867 l 110 867 q 203 899 171 867 q 235 988 235 931 l 318 988 l 318 449 l 211 449 m 471 631 l 660 986 l 778 986 l 589 631 l 471 631 m 50 0 l 239 354 l 357 354 l 168 0 l 50 0 m 394 0 q 404 109 394 64 q 444 190 414 154 q 535 257 474 225 l 604 294 q 644 321 629 308 q 665 349 658 333 q 671 389 671 365 q 649 441 671 422 q 593 460 626 460 q 524 438 547 460 q 494 368 501 415 l 394 372 q 453 501 403 454 q 593 549 504 549 q 726 505 679 549 q 774 390 774 461 q 739 287 774 325 q 643 217 704 249 l 585 186 q 527 140 544 165 q 510 92 510 115 l 765 92 l 765 0 l 394 0 z "},"⅓":{"ha":833,"x_min":51,"x_max":779,"o":"m 208 449 l 208 788 l 71 786 l 71 867 l 107 867 q 200 899 168 867 q 232 988 232 931 l 315 988 l 315 449 l 208 449 m 472 631 l 661 986 l 779 986 l 590 631 l 472 631 m 51 0 l 240 354 l 358 354 l 169 0 l 51 0 m 572 -11 q 421 31 464 -11 q 374 143 378 72 l 476 147 q 501 97 479 117 q 572 78 524 78 q 643 99 618 78 q 668 157 668 119 q 643 215 668 193 q 567 238 618 238 l 531 238 l 531 322 l 567 322 q 622 340 601 322 q 643 389 643 357 q 624 439 643 419 q 567 458 606 458 q 508 440 528 458 q 485 393 488 421 l 381 400 q 435 507 389 465 q 565 549 482 549 q 703 508 658 549 q 749 403 749 467 q 724 326 749 354 q 653 286 699 299 q 747 235 721 271 q 774 153 774 200 q 718 33 774 78 q 572 -11 663 -11 z "},"⅔":{"ha":833,"x_min":21,"x_max":814,"o":"m 22 449 q 32 558 22 513 q 72 638 42 603 q 163 706 101 674 l 232 743 q 272 769 257 757 q 292 798 286 782 q 299 838 299 814 q 276 890 299 871 q 221 908 254 908 q 152 886 175 908 q 122 817 129 864 l 22 821 q 81 950 31 903 q 221 997 132 997 q 354 953 307 997 q 401 839 401 910 q 367 735 401 774 q 271 665 332 697 l 213 635 q 155 589 172 614 q 138 540 138 564 l 393 540 l 393 449 l 22 449 m 468 631 l 657 986 l 775 986 l 586 631 l 468 631 m 47 0 l 236 354 l 354 354 l 165 0 l 47 0 m 613 -11 q 461 31 504 -11 q 414 143 418 72 l 517 147 q 542 97 519 117 q 613 78 564 78 q 683 99 658 78 q 708 157 708 119 q 683 215 708 193 q 607 238 658 238 l 571 238 l 571 322 l 607 322 q 663 340 642 322 q 683 389 683 357 q 665 439 683 419 q 607 458 646 458 q 548 440 568 458 q 525 393 528 421 l 421 400 q 476 507 429 465 q 606 549 522 549 q 744 508 699 549 q 789 403 789 467 q 764 326 789 354 q 693 286 739 299 q 788 235 761 271 q 814 153 814 200 q 758 33 814 78 q 613 -11 703 -11 z "},"¼":{"ha":833,"x_min":50,"x_max":778,"o":"m 208 449 l 208 788 l 71 786 l 71 867 l 107 867 q 200 899 168 867 q 232 988 232 931 l 315 988 l 315 449 l 208 449 m 471 631 l 660 986 l 778 986 l 589 631 l 471 631 m 50 0 l 239 354 l 357 354 l 168 0 l 50 0 m 596 0 l 596 118 l 344 118 l 344 199 l 594 538 l 703 538 l 703 208 l 775 208 l 775 118 l 703 118 l 703 0 l 596 0 m 453 208 l 596 208 l 596 394 l 453 208 z "},"¾":{"ha":833,"x_min":28,"x_max":806,"o":"m 226 438 q 75 479 118 438 q 28 592 32 521 l 131 596 q 156 546 133 565 q 226 526 178 526 q 297 547 272 526 q 322 606 322 568 q 297 664 322 642 q 221 686 272 686 l 185 686 l 185 771 l 221 771 q 276 788 256 771 q 297 838 297 806 q 278 888 297 868 q 221 907 260 907 q 162 888 182 907 q 139 842 142 869 l 35 849 q 90 956 43 914 q 219 997 136 997 q 358 956 313 997 q 403 851 403 915 q 378 775 403 803 q 307 735 353 747 q 401 684 375 719 q 428 601 428 649 q 372 482 428 526 q 226 438 317 438 m 490 631 l 679 986 l 797 986 l 608 631 l 490 631 m 69 0 l 258 354 l 376 354 l 188 0 l 69 0 m 626 0 l 626 118 l 375 118 l 375 199 l 625 538 l 733 538 l 733 208 l 806 208 l 806 118 l 733 118 l 733 0 l 626 0 m 483 208 l 626 208 l 626 394 l 483 208 z "},"⅕":{"ha":833,"x_min":47,"x_max":781,"o":"m 199 449 l 199 788 l 61 786 l 61 867 l 97 867 q 190 899 158 867 q 222 988 222 931 l 306 988 l 306 449 l 199 449 m 468 631 l 657 986 l 775 986 l 586 631 l 468 631 m 47 0 l 236 354 l 354 354 l 165 0 l 47 0 m 579 -11 q 445 27 494 -11 q 389 133 396 65 l 493 139 q 522 93 500 108 q 582 78 544 78 q 652 103 626 78 q 678 176 678 128 q 656 247 678 218 q 592 275 635 275 q 535 261 557 275 q 497 224 513 247 l 399 224 l 432 538 l 749 538 l 749 449 l 525 449 l 508 321 q 551 348 524 339 q 611 357 579 357 q 739 306 697 357 q 781 175 781 254 q 726 38 781 88 q 579 -11 672 -11 z "},"⅛":{"ha":833,"x_min":36,"x_max":797,"o":"m 186 449 l 186 788 l 49 786 l 49 867 l 85 867 q 178 899 146 867 q 210 988 210 931 l 293 988 l 293 449 l 186 449 m 457 631 l 646 986 l 764 986 l 575 631 l 457 631 m 36 0 l 225 354 l 343 354 l 154 0 l 36 0 m 589 -11 q 433 31 485 -11 q 381 144 381 72 q 410 233 381 194 q 494 290 440 271 q 429 331 453 304 q 406 410 406 358 q 451 512 406 475 q 589 549 497 549 q 727 512 682 549 q 772 410 772 475 q 749 331 772 358 q 683 290 725 304 q 767 232 736 269 q 797 144 797 194 q 746 31 797 72 q 589 -11 694 -11 m 589 78 q 664 97 638 78 q 690 154 690 115 q 664 217 690 192 q 589 243 638 243 q 515 217 542 243 q 488 154 488 192 q 515 97 488 115 q 589 78 542 78 m 589 328 q 646 345 625 328 q 667 397 667 363 q 647 444 667 428 q 589 460 626 460 q 531 444 551 460 q 511 397 511 428 q 532 345 511 363 q 589 328 553 328 z "},"⅜":{"ha":833,"x_min":22,"x_max":811,"o":"m 213 438 q 78 476 128 438 q 22 582 29 514 l 126 588 q 156 542 133 557 q 215 526 178 526 q 285 551 260 526 q 311 625 311 576 q 290 695 311 667 q 225 724 268 724 q 168 710 190 724 q 131 672 146 696 l 32 672 l 65 986 l 382 986 l 382 897 l 158 897 l 142 769 q 185 797 157 788 q 244 806 213 806 q 372 754 331 806 q 414 624 414 703 q 360 487 414 536 q 213 438 306 438 m 471 631 l 660 986 l 778 986 l 589 631 l 471 631 m 50 0 l 239 354 l 357 354 l 168 0 l 50 0 m 603 -11 q 447 31 499 -11 q 394 144 394 72 q 424 233 394 194 q 508 290 454 271 q 443 331 467 304 q 419 410 419 358 q 465 512 419 475 q 603 549 511 549 q 741 512 696 549 q 786 410 786 475 q 763 331 786 358 q 697 290 739 304 q 781 232 750 269 q 811 144 811 194 q 760 31 811 72 q 603 -11 708 -11 m 603 78 q 678 97 651 78 q 704 154 704 115 q 678 217 704 192 q 603 243 651 243 q 528 217 556 243 q 501 154 501 192 q 528 97 501 115 q 603 78 556 78 m 603 328 q 660 345 639 328 q 681 397 681 363 q 660 444 681 428 q 603 460 640 460 q 545 444 565 460 q 525 397 525 428 q 546 345 525 363 q 603 328 567 328 z "},"⅝":{"ha":833,"x_min":22,"x_max":811,"o":"m 221 438 q 69 479 113 438 q 22 592 26 521 l 125 596 q 150 546 128 565 q 221 526 172 526 q 292 547 267 526 q 317 606 317 568 q 292 664 317 642 q 215 686 267 686 l 179 686 l 179 771 l 215 771 q 271 788 250 771 q 292 838 292 806 q 273 888 292 868 q 215 907 254 907 q 156 888 176 907 q 133 842 136 869 l 29 849 q 84 956 38 914 q 214 997 131 997 q 352 956 307 997 q 397 851 397 915 q 372 775 397 803 q 301 735 347 747 q 396 684 369 719 q 422 601 422 649 q 367 482 422 526 q 221 438 311 438 m 465 631 l 654 986 l 772 986 l 583 631 l 465 631 m 44 0 l 233 354 l 351 354 l 163 0 l 44 0 m 603 -11 q 447 31 499 -11 q 394 144 394 72 q 424 233 394 194 q 508 290 454 271 q 443 331 467 304 q 419 410 419 358 q 465 512 419 475 q 603 549 511 549 q 741 512 696 549 q 786 410 786 475 q 763 331 786 358 q 697 290 739 304 q 781 232 750 269 q 811 144 811 194 q 760 31 811 72 q 603 -11 708 -11 m 603 78 q 678 97 651 78 q 704 154 704 115 q 678 217 704 192 q 603 243 651 243 q 528 217 556 243 q 501 154 501 192 q 528 97 501 115 q 603 78 556 78 m 603 328 q 660 345 639 328 q 681 397 681 363 q 660 444 681 428 q 603 460 640 460 q 545 444 565 460 q 525 397 525 428 q 546 345 525 363 q 603 328 567 328 z "},"⅞":{"ha":833,"x_min":25,"x_max":808,"o":"m 128 447 q 147 607 128 529 q 200 757 165 685 q 285 894 235 829 l 32 894 l 32 986 l 401 986 l 401 911 q 310 772 347 843 q 252 622 272 701 q 232 447 232 542 l 128 447 m 446 631 l 635 986 l 753 986 l 564 631 l 446 631 m 25 0 l 214 354 l 332 354 l 143 0 l 25 0 m 600 -11 q 444 31 496 -11 q 392 144 392 72 q 422 233 392 194 q 506 290 451 271 q 440 331 464 304 q 417 410 417 358 q 463 512 417 475 q 600 549 508 549 q 738 512 693 549 q 783 410 783 475 q 760 331 783 358 q 694 290 736 304 q 778 232 747 269 q 808 144 808 194 q 757 31 808 72 q 600 -11 706 -11 m 600 78 q 675 97 649 78 q 701 154 701 115 q 675 217 701 192 q 600 243 649 243 q 526 217 553 243 q 499 154 499 192 q 526 97 499 115 q 600 78 553 78 m 600 328 q 657 345 636 328 q 678 397 678 363 q 658 444 678 428 q 600 460 638 460 q 542 444 563 460 q 522 397 522 428 q 543 345 522 363 q 600 328 564 328 z "},"₀":{"ha":833,"x_min":192,"x_max":642,"o":"m 417 -150 q 253 -75 314 -150 q 192 131 192 0 q 253 335 192 261 q 417 410 314 410 q 581 335 519 410 q 642 131 642 261 q 581 -75 642 0 q 417 -150 519 -150 m 417 -58 q 505 -11 475 -58 q 535 131 535 36 q 504 270 535 222 q 417 318 474 318 q 328 272 358 318 q 299 131 299 226 q 331 -7 299 44 q 417 -58 364 -58 m 342 -64 l 297 7 l 492 328 l 536 258 l 342 -64 z "},"₁":{"ha":833,"x_min":294,"x_max":539,"o":"m 432 -139 l 432 200 l 294 199 l 294 279 l 331 279 q 424 311 392 279 q 456 400 456 343 l 539 400 l 539 -139 l 432 -139 z "},"₂":{"ha":833,"x_min":228,"x_max":607,"o":"m 228 -139 q 238 -30 228 -75 q 277 51 247 15 q 368 118 307 86 l 438 156 q 477 182 463 169 q 498 210 492 194 q 504 250 504 226 q 482 302 504 283 q 426 321 460 321 q 358 299 381 321 q 328 229 335 276 l 228 233 q 287 363 236 315 q 426 410 338 410 q 560 366 513 410 q 607 251 607 322 q 572 148 607 186 q 476 78 538 110 l 418 47 q 360 1 378 26 q 343 -47 343 -24 l 599 -47 l 599 -139 l 228 -139 z "},"₃":{"ha":833,"x_min":217,"x_max":617,"o":"m 415 -150 q 264 -108 307 -150 q 217 4 221 -67 l 319 8 q 344 -42 322 -22 q 415 -61 367 -61 q 486 -40 461 -61 q 511 18 511 -19 q 486 76 511 54 q 410 99 461 99 l 374 99 l 374 183 l 410 183 q 465 201 444 183 q 486 250 486 218 q 467 300 486 281 q 410 319 449 319 q 351 301 371 319 q 328 254 331 282 l 224 261 q 278 368 232 326 q 408 410 325 410 q 547 369 501 410 q 592 264 592 328 q 567 188 592 215 q 496 147 542 160 q 590 97 564 132 q 617 14 617 61 q 561 -106 617 -61 q 415 -150 506 -150 z "},"₄":{"ha":833,"x_min":201,"x_max":632,"o":"m 453 -139 l 453 -21 l 201 -21 l 201 60 l 451 399 l 560 399 l 560 69 l 632 69 l 632 -21 l 560 -21 l 560 -139 l 453 -139 m 310 69 l 453 69 l 453 256 l 310 69 z "},"₅":{"ha":833,"x_min":221,"x_max":613,"o":"m 411 -150 q 277 -112 326 -150 q 221 -6 228 -74 l 325 0 q 354 -46 332 -31 q 414 -61 376 -61 q 484 -36 458 -61 q 510 38 510 -11 q 488 108 510 79 q 424 136 467 136 q 367 122 389 136 q 329 85 344 108 l 231 85 l 264 399 l 581 399 l 581 310 l 357 310 l 340 182 q 383 209 356 200 q 443 218 411 218 q 571 167 529 218 q 613 36 613 115 q 558 -101 613 -51 q 411 -150 504 -150 z "},"₆":{"ha":833,"x_min":208,"x_max":625,"o":"m 415 -150 q 265 -86 322 -150 q 208 103 208 -22 q 231 258 208 189 q 304 369 254 328 q 435 410 354 410 q 562 376 518 410 q 619 275 606 342 l 522 265 q 494 308 515 294 q 433 322 472 322 q 349 283 381 322 q 314 174 318 244 q 360 213 329 197 q 433 228 390 228 q 571 181 517 228 q 625 40 625 135 q 567 -100 625 -50 q 415 -150 508 -150 m 418 -61 q 496 -33 468 -61 q 524 43 524 -4 q 497 117 524 90 q 419 143 471 143 q 366 131 389 143 q 330 97 343 119 q 315 43 317 75 q 342 -33 314 -4 q 418 -61 371 -61 z "},"₇":{"ha":833,"x_min":232,"x_max":601,"o":"m 328 -139 q 347 21 328 -57 q 400 171 365 99 q 485 308 435 243 l 232 308 l 232 400 l 601 400 l 601 325 q 510 186 547 257 q 452 35 472 115 q 432 -139 432 -44 l 328 -139 z "},"₈":{"ha":833,"x_min":208,"x_max":625,"o":"m 417 -150 q 260 -108 313 -150 q 208 6 208 -67 q 238 94 208 56 q 322 151 268 132 q 257 192 281 165 q 233 271 233 219 q 279 373 233 336 q 417 410 325 410 q 555 373 510 410 q 600 271 600 336 q 576 192 600 219 q 511 151 553 165 q 594 93 564 131 q 625 6 625 56 q 574 -108 625 -67 q 417 -150 522 -150 m 417 -61 q 492 -42 465 -61 q 518 15 518 -24 q 492 78 518 53 q 417 104 465 104 q 342 78 369 104 q 315 15 315 53 q 342 -42 315 -24 q 417 -61 369 -61 m 417 189 q 474 206 453 189 q 494 258 494 224 q 474 305 494 289 q 417 321 454 321 q 359 305 379 321 q 339 258 339 289 q 360 206 339 224 q 417 189 381 189 z "},"₉":{"ha":833,"x_min":208,"x_max":625,"o":"m 418 410 q 569 346 513 410 q 625 157 625 282 q 602 1 625 71 q 529 -109 579 -68 q 399 -150 479 -150 q 272 -116 315 -150 q 214 -15 228 -82 l 311 -6 q 340 -48 319 -33 q 400 -62 361 -62 q 484 -24 453 -62 q 519 86 515 15 q 475 48 506 64 q 400 32 444 32 q 263 78 317 32 q 208 219 208 125 q 267 360 208 310 q 418 410 325 410 m 415 321 q 338 292 365 321 q 310 217 310 264 q 336 143 310 169 q 414 117 363 117 q 469 128 446 117 q 505 163 492 140 q 518 217 518 185 q 492 292 519 264 q 415 321 464 321 z "},"⁰":{"ha":833,"x_min":192,"x_max":642,"o":"m 417 438 q 253 513 314 438 q 192 718 192 588 q 253 923 192 849 q 417 997 314 997 q 581 923 519 997 q 642 718 642 849 q 581 513 642 588 q 417 438 519 438 m 417 529 q 505 576 475 529 q 535 718 535 624 q 504 858 535 810 q 417 906 474 906 q 328 860 358 906 q 299 718 299 814 q 331 581 299 632 q 417 529 364 529 m 342 524 l 297 594 l 492 915 l 536 846 l 342 524 z "},"¹":{"ha":833,"x_min":294,"x_max":539,"o":"m 432 449 l 432 788 l 294 786 l 294 867 l 331 867 q 424 899 392 867 q 456 988 456 931 l 539 988 l 539 449 l 432 449 z "},"²":{"ha":833,"x_min":228,"x_max":607,"o":"m 228 449 q 238 558 228 513 q 277 638 247 603 q 368 706 307 674 l 438 743 q 477 769 463 757 q 498 798 492 782 q 504 838 504 814 q 482 890 504 871 q 426 908 460 908 q 358 886 381 908 q 328 817 335 864 l 228 821 q 287 950 236 903 q 426 997 338 997 q 560 953 513 997 q 607 839 607 910 q 572 735 607 774 q 476 665 538 697 l 418 635 q 360 589 378 614 q 343 540 343 564 l 599 540 l 599 449 l 228 449 z "},"³":{"ha":833,"x_min":217,"x_max":617,"o":"m 415 438 q 264 479 307 438 q 217 592 221 521 l 319 596 q 344 546 322 565 q 415 526 367 526 q 486 547 461 526 q 511 606 511 568 q 486 664 511 642 q 410 686 461 686 l 374 686 l 374 771 l 410 771 q 465 788 444 771 q 486 838 486 806 q 467 888 486 868 q 410 907 449 907 q 351 888 371 907 q 328 842 331 869 l 224 849 q 278 956 232 914 q 408 997 325 997 q 547 956 501 997 q 592 851 592 915 q 567 775 592 803 q 496 735 542 747 q 590 684 564 719 q 617 601 617 649 q 561 482 617 526 q 415 438 506 438 z "},"⁴":{"ha":833,"x_min":201,"x_max":632,"o":"m 453 449 l 453 567 l 201 567 l 201 647 l 451 986 l 560 986 l 560 657 l 632 657 l 632 567 l 560 567 l 560 449 l 453 449 m 310 657 l 453 657 l 453 843 l 310 657 z "},"⁵":{"ha":833,"x_min":221,"x_max":613,"o":"m 411 438 q 277 476 326 438 q 221 582 228 514 l 325 588 q 354 542 332 557 q 414 526 376 526 q 484 551 458 526 q 510 625 510 576 q 488 695 510 667 q 424 724 467 724 q 367 710 389 724 q 329 672 344 696 l 231 672 l 264 986 l 581 986 l 581 897 l 357 897 l 340 769 q 383 797 356 788 q 443 806 411 806 q 571 754 529 806 q 613 624 613 703 q 558 487 613 536 q 411 438 504 438 z "},"⁶":{"ha":833,"x_min":208,"x_max":625,"o":"m 415 438 q 265 501 322 438 q 208 690 208 565 q 231 846 208 776 q 304 956 254 915 q 435 997 354 997 q 562 963 518 997 q 619 863 606 929 l 522 853 q 494 896 515 882 q 433 910 472 910 q 349 871 381 910 q 314 761 318 832 q 360 800 329 785 q 433 815 390 815 q 571 769 517 815 q 625 628 625 722 q 567 488 625 538 q 415 438 508 438 m 418 526 q 496 555 468 526 q 524 631 524 583 q 497 704 524 678 q 419 731 471 731 q 366 719 389 731 q 330 685 343 707 q 315 631 317 663 q 342 555 314 583 q 418 526 371 526 z "},"⁷":{"ha":833,"x_min":232,"x_max":601,"o":"m 328 447 q 347 607 328 529 q 400 757 365 685 q 485 894 435 829 l 232 894 l 232 986 l 601 986 l 601 911 q 510 772 547 843 q 452 622 472 701 q 432 447 432 542 l 328 447 z "},"⁸":{"ha":833,"x_min":208,"x_max":625,"o":"m 417 438 q 260 479 313 438 q 208 593 208 521 q 238 681 208 643 q 322 739 268 719 q 257 780 281 753 q 233 858 233 807 q 279 960 233 924 q 417 997 325 997 q 555 960 510 997 q 600 858 600 924 q 576 780 600 807 q 511 739 553 753 q 594 681 564 718 q 625 593 625 643 q 574 479 625 521 q 417 438 522 438 m 417 526 q 492 545 465 526 q 518 603 518 564 q 492 666 518 640 q 417 692 465 692 q 342 666 369 692 q 315 603 315 640 q 342 545 315 564 q 417 526 369 526 m 417 776 q 474 794 453 776 q 494 846 494 811 q 474 892 494 876 q 417 908 454 908 q 359 892 379 908 q 339 846 339 876 q 360 794 339 811 q 417 776 381 776 z "},"⁹":{"ha":833,"x_min":208,"x_max":625,"o":"m 418 997 q 569 933 513 997 q 625 744 625 869 q 602 589 625 658 q 529 478 579 519 q 399 438 479 438 q 272 472 315 438 q 214 572 228 506 l 311 582 q 340 540 319 554 q 400 525 361 525 q 484 564 453 525 q 519 674 515 603 q 475 635 506 651 q 400 619 444 619 q 263 666 317 619 q 208 807 208 713 q 267 947 208 897 q 418 997 325 997 m 415 908 q 338 880 365 908 q 310 804 310 851 q 336 731 310 757 q 414 704 363 704 q 469 716 446 704 q 505 750 492 728 q 518 804 518 772 q 492 880 519 851 q 415 908 464 908 z "}," ":{"ha":833,"x_min":0,"x_max":0,"o":""}," ":{"ha":833,"x_min":0,"x_max":0,"o":""},".":{"ha":833,"x_min":322,"x_max":511,"o":"m 322 0 l 322 183 l 511 183 l 511 0 l 322 0 z "},",":{"ha":833,"x_min":325,"x_max":508,"o":"m 339 -217 l 406 0 l 325 0 l 325 183 l 508 183 l 508 19 l 419 -217 l 339 -217 z "},":":{"ha":833,"x_min":322,"x_max":511,"o":"m 322 0 l 322 183 l 511 183 l 511 0 l 322 0 m 322 526 l 322 710 l 511 710 l 511 526 l 322 526 z "},";":{"ha":833,"x_min":322,"x_max":511,"o":"m 322 526 l 322 710 l 511 710 l 511 526 l 322 526 m 339 -217 l 406 0 l 325 0 l 325 183 l 508 183 l 508 19 l 419 -217 l 339 -217 z "},"…":{"ha":833,"x_min":56,"x_max":778,"o":"m 56 0 l 56 183 l 244 183 l 244 0 l 56 0 m 321 0 l 321 183 l 510 183 l 510 0 l 321 0 m 589 0 l 589 183 l 778 183 l 778 0 l 589 0 z "},"!":{"ha":833,"x_min":322,"x_max":511,"o":"m 369 299 q 360 411 365 346 q 350 545 354 476 q 346 669 346 614 l 346 986 l 488 986 l 488 669 q 483 545 488 614 q 474 411 479 476 q 464 299 469 346 l 369 299 m 322 0 l 322 183 l 511 183 l 511 0 l 322 0 z "},"¡":{"ha":833,"x_min":322,"x_max":511,"o":"m 369 463 l 464 463 q 474 350 469 415 q 483 216 479 285 q 488 92 488 147 l 488 -225 l 346 -225 l 346 92 q 350 216 346 147 q 360 350 354 285 q 369 463 365 415 m 322 761 l 511 761 l 511 578 l 322 578 l 322 761 z "},"?":{"ha":833,"x_min":85,"x_max":749,"o":"m 344 285 q 374 449 344 388 q 476 553 404 510 q 556 608 529 583 q 591 658 582 632 q 600 724 600 685 q 558 832 600 789 q 436 875 517 875 q 292 827 340 875 q 233 686 244 779 l 85 694 q 137 857 93 786 q 256 968 181 928 q 436 1008 332 1008 q 601 972 531 1008 q 710 872 672 936 q 749 725 749 808 q 731 624 749 667 q 675 545 713 581 q 579 472 638 510 q 519 424 540 449 q 489 366 497 399 q 481 285 481 333 l 344 285 m 319 0 l 319 183 l 508 183 l 508 0 l 319 0 z "},"¿":{"ha":833,"x_min":85,"x_max":749,"o":"m 397 -225 q 232 -192 303 -225 q 123 -100 161 -160 q 85 39 85 -40 q 103 144 85 100 q 158 226 121 189 q 254 299 196 263 q 333 374 313 335 q 353 478 353 413 l 489 478 q 459 321 489 379 q 357 219 429 263 q 278 163 304 188 q 242 110 251 139 q 233 40 233 82 q 275 -56 233 -21 q 397 -92 317 -92 q 542 -44 493 -92 q 600 97 590 4 l 749 89 q 697 -74 740 -3 q 577 -185 653 -144 q 397 -225 501 -225 m 514 758 l 514 575 l 325 575 l 325 758 l 514 758 z "},"·":{"ha":833,"x_min":322,"x_max":511,"o":"m 322 331 l 322 514 l 511 514 l 511 331 l 322 331 z "},"•":{"ha":833,"x_min":253,"x_max":581,"o":"m 417 265 q 335 287 372 265 q 275 346 297 308 q 253 428 253 383 q 275 510 253 474 q 335 569 297 547 q 417 590 372 590 q 499 569 463 590 q 558 510 536 547 q 581 428 581 474 q 558 346 581 383 q 499 287 536 308 q 417 265 463 265 z "},"*":{"ha":833,"x_min":178,"x_max":656,"o":"m 328 524 l 247 575 l 339 711 l 178 711 l 178 811 l 339 811 l 247 947 l 328 999 l 417 856 l 506 999 l 586 947 l 494 811 l 656 811 l 656 711 l 494 711 l 586 575 l 506 524 l 417 665 l 328 524 z "},"〃":{"ha":833,"x_min":208,"x_max":625,"o":"m 397 390 l 483 668 l 625 668 l 500 390 l 397 390 m 208 390 l 294 668 l 436 668 l 311 390 l 208 390 z "},"#":{"ha":833,"x_min":61,"x_max":772,"o":"m 408 0 l 586 986 l 704 986 l 526 0 l 408 0 m 61 263 l 79 378 l 717 378 l 699 263 l 61 263 m 129 0 l 308 986 l 425 986 l 249 0 l 129 0 m 117 603 l 135 718 l 772 718 l 754 603 l 117 603 z "},"/":{"ha":833,"x_min":140,"x_max":693,"o":"m 140 -153 l 560 1042 l 693 1042 l 274 -153 l 140 -153 z "},"\\":{"ha":833,"x_min":140,"x_max":693,"o":"m 693 -153 l 560 -153 l 140 1042 l 274 1042 l 693 -153 z "},"-":{"ha":833,"x_min":192,"x_max":642,"o":"m 192 340 l 192 469 l 642 469 l 642 340 l 192 340 z "},"–":{"ha":833,"x_min":136,"x_max":697,"o":"m 136 342 l 136 469 l 697 469 l 697 342 l 136 342 z "},"—":{"ha":833,"x_min":28,"x_max":806,"o":"m 28 342 l 28 469 l 806 469 l 806 342 l 28 342 z "},"_":{"ha":833,"x_min":106,"x_max":728,"o":"m 106 -128 l 106 0 l 728 0 l 728 -128 l 106 -128 z "},"〜":{"ha":833,"x_min":8,"x_max":825,"o":"m 583 299 q 505 313 547 299 q 414 358 463 328 q 322 406 364 390 q 250 422 281 422 q 170 392 210 422 q 96 307 131 363 l 8 394 q 72 478 33 443 q 156 531 110 513 q 250 550 203 550 q 329 535 286 550 q 419 490 372 521 q 512 442 471 458 q 583 426 553 426 q 663 457 624 426 q 738 542 703 488 l 825 454 q 763 372 801 407 q 678 317 724 336 q 583 299 632 299 z "},"(":{"ha":833,"x_min":256,"x_max":578,"o":"m 447 -153 q 303 143 351 -7 q 256 444 256 293 q 447 1042 256 751 l 578 1042 q 404 444 404 742 q 448 147 404 296 q 578 -153 492 -3 l 447 -153 z "},")":{"ha":833,"x_min":256,"x_max":578,"o":"m 386 -153 l 256 -153 q 385 147 342 -3 q 429 444 429 296 q 256 1042 429 742 l 386 1042 q 578 444 578 751 q 530 143 578 293 q 386 -153 482 -7 z "},"{":{"ha":833,"x_min":183,"x_max":650,"o":"m 571 -164 q 387 -95 453 -164 q 321 82 321 -26 l 321 197 q 305 297 321 257 q 258 356 289 336 q 183 375 228 375 l 183 507 q 258 526 228 507 q 305 585 289 546 q 321 683 321 625 l 321 799 q 387 977 321 908 q 571 1046 453 1046 l 650 1046 l 650 914 q 505 889 549 918 q 461 790 461 860 l 461 672 q 415 514 461 571 q 303 443 368 457 l 303 440 q 415 369 368 428 q 461 208 461 311 l 461 92 q 505 -8 461 22 q 650 -35 549 -37 l 650 -164 l 571 -164 z "},"}":{"ha":833,"x_min":183,"x_max":650,"o":"m 263 -164 l 183 -164 l 183 -35 q 329 -8 286 -37 q 372 92 372 22 l 372 208 q 419 369 372 311 q 531 440 465 428 l 531 443 q 419 514 467 457 q 372 672 372 571 l 372 790 q 329 889 372 860 q 183 914 286 918 l 183 1046 l 263 1046 q 447 977 382 1046 q 513 799 513 908 l 513 683 q 528 585 513 625 q 575 526 544 546 q 650 507 606 507 l 650 375 q 575 356 606 375 q 528 297 544 336 q 513 197 513 257 l 513 82 q 447 -95 513 -26 q 263 -164 382 -164 z "},"[":{"ha":833,"x_min":235,"x_max":599,"o":"m 599 -153 l 235 -153 l 235 1042 l 599 1042 l 599 922 l 376 922 l 376 -33 l 599 -33 l 599 -153 z "},"]":{"ha":833,"x_min":235,"x_max":599,"o":"m 235 -153 l 235 -33 l 457 -33 l 457 922 l 235 922 l 235 1042 l 599 1042 l 599 -153 l 235 -153 z "},"〈":{"ha":833,"x_min":235,"x_max":608,"o":"m 482 -158 l 235 492 l 482 1140 l 608 1140 l 360 492 l 608 -158 l 482 -158 z "},"〉":{"ha":833,"x_min":225,"x_max":599,"o":"m 351 -158 l 225 -158 l 474 492 l 225 1140 l 351 1140 l 599 492 l 351 -158 z "},"【":{"ha":833,"x_min":253,"x_max":638,"o":"m 638 -87 l 253 -87 l 253 1146 l 638 1146 q 474 738 515 947 q 474 321 433 529 q 638 -87 515 113 z "},"】":{"ha":833,"x_min":196,"x_max":581,"o":"m 196 -87 q 359 321 318 113 q 359 738 400 529 q 196 1146 318 947 l 581 1146 l 581 -87 l 196 -87 z "},"「":{"ha":833,"x_min":236,"x_max":658,"o":"m 236 326 l 236 1147 l 658 1147 l 658 1031 l 357 1031 l 357 326 l 236 326 z "},"」":{"ha":833,"x_min":175,"x_max":597,"o":"m 597 678 l 597 -143 l 175 -143 l 175 -26 l 476 -26 l 476 678 l 597 678 z "}}}
